solid Default
  facet normal -1.000000e+00 -0.000000e+00 -0.000000e+00
    outer loop
      vertex -2.250000e+01 -1.870000e+01 0.000000e+00
      vertex -2.250000e+01 -1.870000e+01 1.000000e+00
      vertex -2.250000e+01 1.870000e+01 0.000000e+00
    endloop
  endfacet
  facet normal -1.000000e+00 0.000000e+00 0.000000e+00
    outer loop
      vertex -2.250000e+01 1.870000e+01 0.000000e+00
      vertex -2.250000e+01 -1.870000e+01 1.000000e+00
      vertex -2.250000e+01 1.870000e+01 1.000000e+00
    endloop
  endfacet
  facet normal -7.071068e-01 -7.071068e-01 -0.000000e+00
    outer loop
      vertex -2.250000e+01 -1.870000e+01 0.000000e+00
      vertex -1.870000e+01 -2.250000e+01 0.000000e+00
      vertex -2.250000e+01 -1.870000e+01 1.000000e+00
    endloop
  endfacet
  facet normal -7.071068e-01 -7.071068e-01 0.000000e+00
    outer loop
      vertex -2.250000e+01 -1.870000e+01 1.000000e+00
      vertex -1.870000e+01 -2.250000e+01 0.000000e+00
      vertex -1.870000e+01 -2.250000e+01 1.000000e+00
    endloop
  endfacet
  facet normal -0.000000e+00 -0.000000e+00 -1.000000e+00
    outer loop
      vertex -2.250000e+01 -1.870000e+01 0.000000e+00
      vertex -2.250000e+01 1.870000e+01 0.000000e+00
      vertex -1.870000e+01 -2.250000e+01 0.000000e+00
    endloop
  endfacet
  facet normal 0.000000e+00 0.000000e+00 -1.000000e+00
    outer loop
      vertex -1.870000e+01 -2.250000e+01 0.000000e+00
      vertex -2.250000e+01 1.870000e+01 0.000000e+00
      vertex -1.870000e+01 2.250000e+01 0.000000e+00
    endloop
  endfacet
  facet normal 0.000000e+00 0.000000e+00 -1.000000e+00
    outer loop
      vertex -5.500000e+00 4.000000e+00 0.000000e+00
      vertex -1.870000e+01 2.250000e+01 0.000000e+00
      vertex 1.870000e+01 2.250000e+01 0.000000e+00
    endloop
  endfacet
  facet normal 0.000000e+00 0.000000e+00 -1.000000e+00
    outer loop
      vertex 5.500000e+00 4.000000e+00 0.000000e+00
      vertex 1.870000e+01 2.250000e+01 0.000000e+00
      vertex 2.250000e+01 1.870000e+01 0.000000e+00
    endloop
  endfacet
  facet normal 0.000000e+00 0.000000e+00 -1.000000e+00
    outer loop
      vertex 5.500000e+00 -1.200000e+01 0.000000e+00
      vertex 2.250000e+01 1.870000e+01 0.000000e+00
      vertex 2.250000e+01 -1.870000e+01 0.000000e+00
    endloop
  endfacet
  facet normal 0.000000e+00 0.000000e+00 -1.000000e+00
    outer loop
      vertex -1.870000e+01 -2.250000e+01 0.000000e+00
      vertex 2.250000e+01 -1.870000e+01 0.000000e+00
      vertex 1.870000e+01 -2.250000e+01 0.000000e+00
    endloop
  endfacet
  facet normal 0.000000e+00 0.000000e+00 -1.000000e+00
    outer loop
      vertex -1.870000e+01 -2.250000e+01 0.000000e+00
      vertex -1.870000e+01 2.250000e+01 0.000000e+00
      vertex -5.500000e+00 4.000000e+00 0.000000e+00
    endloop
  endfacet
  facet normal 0.000000e+00 0.000000e+00 -1.000000e+00
    outer loop
      vertex -5.500000e+00 -1.200000e+01 0.000000e+00
      vertex -1.870000e+01 -2.250000e+01 0.000000e+00
      vertex -5.500000e+00 4.000000e+00 0.000000e+00
    endloop
  endfacet
  facet normal 0.000000e+00 0.000000e+00 -1.000000e+00
    outer loop
      vertex 5.500000e+00 4.000000e+00 0.000000e+00
      vertex 2.250000e+01 1.870000e+01 0.000000e+00
      vertex 5.500000e+00 -1.200000e+01 0.000000e+00
    endloop
  endfacet
  facet normal 0.000000e+00 0.000000e+00 -1.000000e+00
    outer loop
      vertex -1.870000e+01 -2.250000e+01 0.000000e+00
      vertex -5.500000e+00 -1.200000e+01 0.000000e+00
      vertex 2.250000e+01 -1.870000e+01 0.000000e+00
    endloop
  endfacet
  facet normal 0.000000e+00 0.000000e+00 -1.000000e+00
    outer loop
      vertex -5.500000e+00 -1.200000e+01 0.000000e+00
      vertex 5.500000e+00 -1.200000e+01 0.000000e+00
      vertex 2.250000e+01 -1.870000e+01 0.000000e+00
    endloop
  endfacet
  facet normal 0.000000e+00 0.000000e+00 -1.000000e+00
    outer loop
      vertex -5.500000e+00 4.000000e+00 0.000000e+00
      vertex 1.870000e+01 2.250000e+01 0.000000e+00
      vertex 5.500000e+00 4.000000e+00 0.000000e+00
    endloop
  endfacet
  facet normal -7.071068e-01 7.071068e-01 0.000000e+00
    outer loop
      vertex -2.250000e+01 1.870000e+01 0.000000e+00
      vertex -2.250000e+01 1.870000e+01 1.000000e+00
      vertex -1.870000e+01 2.250000e+01 0.000000e+00
    endloop
  endfacet
  facet normal -7.071068e-01 7.071068e-01 0.000000e+00
    outer loop
      vertex -1.870000e+01 2.250000e+01 0.000000e+00
      vertex -2.250000e+01 1.870000e+01 1.000000e+00
      vertex -1.870000e+01 2.250000e+01 1.000000e+00
    endloop
  endfacet
  facet normal 0.000000e+00 0.000000e+00 1.000000e+00
    outer loop
      vertex -2.250000e+01 1.870000e+01 1.000000e+00
      vertex -2.250000e+01 -1.870000e+01 1.000000e+00
      vertex -1.870000e+01 -2.250000e+01 1.000000e+00
    endloop
  endfacet
  facet normal 0.000000e+00 0.000000e+00 1.000000e+00
    outer loop
      vertex -5.500000e+00 -1.200000e+01 1.000000e+00
      vertex -2.250000e+01 1.870000e+01 1.000000e+00
      vertex -1.870000e+01 -2.250000e+01 1.000000e+00
    endloop
  endfacet
  facet normal 0.000000e+00 0.000000e+00 1.000000e+00
    outer loop
      vertex 1.870000e+01 2.250000e+01 1.000000e+00
      vertex -2.250000e+01 1.870000e+01 1.000000e+00
      vertex 2.250000e+01 1.870000e+01 1.000000e+00
    endloop
  endfacet
  facet normal 0.000000e+00 0.000000e+00 1.000000e+00
    outer loop
      vertex -1.870000e+01 2.250000e+01 1.000000e+00
      vertex -2.250000e+01 1.870000e+01 1.000000e+00
      vertex 1.870000e+01 2.250000e+01 1.000000e+00
    endloop
  endfacet
  facet normal 0.000000e+00 0.000000e+00 1.000000e+00
    outer loop
      vertex 1.870000e+01 -2.250000e+01 1.000000e+00
      vertex -5.500000e+00 -1.200000e+01 1.000000e+00
      vertex -1.870000e+01 -2.250000e+01 1.000000e+00
    endloop
  endfacet
  facet normal 0.000000e+00 0.000000e+00 1.000000e+00
    outer loop
      vertex 5.500000e+00 4.000000e+00 1.000000e+00
      vertex 5.500000e+00 -1.200000e+01 1.000000e+00
      vertex 1.870000e+01 -2.250000e+01 1.000000e+00
    endloop
  endfacet
  facet normal 0.000000e+00 0.000000e+00 1.000000e+00
    outer loop
      vertex 5.500000e+00 4.000000e+00 1.000000e+00
      vertex 1.870000e+01 -2.250000e+01 1.000000e+00
      vertex 2.250000e+01 -1.870000e+01 1.000000e+00
    endloop
  endfacet
  facet normal 0.000000e+00 0.000000e+00 1.000000e+00
    outer loop
      vertex 2.250000e+01 1.870000e+01 1.000000e+00
      vertex 5.500000e+00 4.000000e+00 1.000000e+00
      vertex 2.250000e+01 -1.870000e+01 1.000000e+00
    endloop
  endfacet
  facet normal 0.000000e+00 0.000000e+00 1.000000e+00
    outer loop
      vertex 2.250000e+01 1.870000e+01 1.000000e+00
      vertex -2.250000e+01 1.870000e+01 1.000000e+00
      vertex 5.500000e+00 4.000000e+00 1.000000e+00
    endloop
  endfacet
  facet normal 0.000000e+00 0.000000e+00 1.000000e+00
    outer loop
      vertex 1.870000e+01 -2.250000e+01 1.000000e+00
      vertex 5.500000e+00 -1.200000e+01 1.000000e+00
      vertex -5.500000e+00 -1.200000e+01 1.000000e+00
    endloop
  endfacet
  facet normal 0.000000e+00 0.000000e+00 1.000000e+00
    outer loop
      vertex -5.500000e+00 4.000000e+00 1.000000e+00
      vertex 5.500000e+00 4.000000e+00 1.000000e+00
      vertex -2.250000e+01 1.870000e+01 1.000000e+00
    endloop
  endfacet
  facet normal 0.000000e+00 0.000000e+00 1.000000e+00
    outer loop
      vertex -5.500000e+00 -1.200000e+01 1.000000e+00
      vertex -5.500000e+00 4.000000e+00 1.000000e+00
      vertex -2.250000e+01 1.870000e+01 1.000000e+00
    endloop
  endfacet
  facet normal 0.000000e+00 -1.000000e+00 0.000000e+00
    outer loop
      vertex -1.870000e+01 -2.250000e+01 1.000000e+00
      vertex -1.870000e+01 -2.250000e+01 0.000000e+00
      vertex 1.870000e+01 -2.250000e+01 0.000000e+00
    endloop
  endfacet
  facet normal 0.000000e+00 -1.000000e+00 0.000000e+00
    outer loop
      vertex 1.870000e+01 -2.250000e+01 1.000000e+00
      vertex -1.870000e+01 -2.250000e+01 1.000000e+00
      vertex 1.870000e+01 -2.250000e+01 0.000000e+00
    endloop
  endfacet
  facet normal 7.071068e-01 -7.071068e-01 0.000000e+00
    outer loop
      vertex 1.870000e+01 -2.250000e+01 1.000000e+00
      vertex 1.870000e+01 -2.250000e+01 0.000000e+00
      vertex 2.250000e+01 -1.870000e+01 0.000000e+00
    endloop
  endfacet
  facet normal 7.071068e-01 -7.071068e-01 0.000000e+00
    outer loop
      vertex 2.250000e+01 -1.870000e+01 1.000000e+00
      vertex 1.870000e+01 -2.250000e+01 1.000000e+00
      vertex 2.250000e+01 -1.870000e+01 0.000000e+00
    endloop
  endfacet
  facet normal 1.000000e+00 0.000000e+00 0.000000e+00
    outer loop
      vertex 2.250000e+01 -1.870000e+01 1.000000e+00
      vertex 2.250000e+01 -1.870000e+01 0.000000e+00
      vertex 2.250000e+01 1.870000e+01 0.000000e+00
    endloop
  endfacet
  facet normal 1.000000e+00 0.000000e+00 0.000000e+00
    outer loop
      vertex 2.250000e+01 1.870000e+01 1.000000e+00
      vertex 2.250000e+01 -1.870000e+01 1.000000e+00
      vertex 2.250000e+01 1.870000e+01 0.000000e+00
    endloop
  endfacet
  facet normal 7.071068e-01 7.071068e-01 0.000000e+00
    outer loop
      vertex 2.250000e+01 1.870000e+01 0.000000e+00
      vertex 1.870000e+01 2.250000e+01 0.000000e+00
      vertex 1.870000e+01 2.250000e+01 1.000000e+00
    endloop
  endfacet
  facet normal 7.071068e-01 7.071068e-01 0.000000e+00
    outer loop
      vertex 2.250000e+01 1.870000e+01 1.000000e+00
      vertex 2.250000e+01 1.870000e+01 0.000000e+00
      vertex 1.870000e+01 2.250000e+01 1.000000e+00
    endloop
  endfacet
  facet normal 0.000000e+00 1.000000e+00 0.000000e+00
    outer loop
      vertex -1.870000e+01 2.250000e+01 0.000000e+00
      vertex -1.870000e+01 2.250000e+01 1.000000e+00
      vertex 1.870000e+01 2.250000e+01 0.000000e+00
    endloop
  endfacet
  facet normal 0.000000e+00 1.000000e+00 0.000000e+00
    outer loop
      vertex 1.870000e+01 2.250000e+01 0.000000e+00
      vertex -1.870000e+01 2.250000e+01 1.000000e+00
      vertex 1.870000e+01 2.250000e+01 1.000000e+00
    endloop
  endfacet
  facet normal 1.000000e+00 0.000000e+00 0.000000e+00
    outer loop
      vertex -5.500000e+00 4.000000e+00 0.000000e+00
      vertex -5.500000e+00 4.000000e+00 1.000000e+00
      vertex -5.500000e+00 -1.200000e+01 1.000000e+00
    endloop
  endfacet
  facet normal 1.000000e+00 0.000000e+00 0.000000e+00
    outer loop
      vertex -5.500000e+00 -1.200000e+01 0.000000e+00
      vertex -5.500000e+00 4.000000e+00 0.000000e+00
      vertex -5.500000e+00 -1.200000e+01 1.000000e+00
    endloop
  endfacet
  facet normal 0.000000e+00 -1.000000e+00 0.000000e+00
    outer loop
      vertex 5.500000e+00 4.000000e+00 0.000000e+00
      vertex 5.500000e+00 4.000000e+00 1.000000e+00
      vertex -5.500000e+00 4.000000e+00 1.000000e+00
    endloop
  endfacet
  facet normal -0.000000e+00 -1.000000e+00 -0.000000e+00
    outer loop
      vertex -5.500000e+00 4.000000e+00 0.000000e+00
      vertex 5.500000e+00 4.000000e+00 0.000000e+00
      vertex -5.500000e+00 4.000000e+00 1.000000e+00
    endloop
  endfacet
  facet normal -1.000000e+00 0.000000e+00 0.000000e+00
    outer loop
      vertex 5.500000e+00 4.000000e+00 1.000000e+00
      vertex 5.500000e+00 4.000000e+00 0.000000e+00
      vertex 5.500000e+00 -1.200000e+01 1.000000e+00
    endloop
  endfacet
  facet normal -1.000000e+00 0.000000e+00 0.000000e+00
    outer loop
      vertex 5.500000e+00 -1.200000e+01 1.000000e+00
      vertex 5.500000e+00 4.000000e+00 0.000000e+00
      vertex 5.500000e+00 -1.200000e+01 0.000000e+00
    endloop
  endfacet
  facet normal 0.000000e+00 1.000000e+00 0.000000e+00
    outer loop
      vertex 5.500000e+00 -1.200000e+01 1.000000e+00
      vertex 5.500000e+00 -1.200000e+01 0.000000e+00
      vertex -5.500000e+00 -1.200000e+01 1.000000e+00
    endloop
  endfacet
  facet normal 0.000000e+00 1.000000e+00 0.000000e+00
    outer loop
      vertex -5.500000e+00 -1.200000e+01 1.000000e+00
      vertex 5.500000e+00 -1.200000e+01 0.000000e+00
      vertex -5.500000e+00 -1.200000e+01 0.000000e+00
    endloop
  endfacet
endsolid Default
