solid ipadstand
facet normal 0.0 0.0 1.0
outer loop
vertex 17.434467956211 -2.69879604775092e-16 9.5
vertex 14.2814800674211 10.0 9.5
vertex 0.0 0.0 9.5
endloop
endfacet
facet normal 0.0 0.0 1.0
outer loop
vertex 14.2814800674211 10.0 9.5
vertex 17.434467956211 -2.69879604775092e-16 9.5
vertex 31.7159480236321 10.0 9.5
endloop
endfacet
facet normal -0.0 -0.0 1.0
outer loop
vertex 62.2344746836286 2.06667563818263e-16 20.0
vertex 31.7159480236321 10.0 20.0
vertex 17.434467956211 -2.69879604775092e-16 20.0
endloop
endfacet
facet normal -0.0 -0.0 1.0
outer loop
vertex 31.7159480236321 10.0 20.0
vertex 62.2344746836286 2.06667563818263e-16 20.0
vertex 62.2344746836286 10.0 20.0
endloop
endfacet
facet normal 1.0 0.0 0.0
outer loop
vertex 98.2079706481072 10.0 0.0
vertex 98.2079706481072 8.5652539530346e-16 10.0
vertex 98.2079706481072 0.0 0.0
endloop
endfacet
facet normal 1.0 0.0 0.0
outer loop
vertex 98.2079706481072 8.5652539530346e-16 10.0
vertex 98.2079706481072 10.0 20.0
vertex 98.2079706481072 0.0 20.0
endloop
endfacet
facet normal 1.0 0.0 0.0
outer loop
vertex 98.2079706481072 10.0 20.0
vertex 98.2079706481072 8.5652539530346e-16 10.0
vertex 98.2079706481072 10.0 0.0
endloop
endfacet
facet normal -5.72909673900947e-32 -8.12350892843522e-33 1.0
outer loop
vertex 81.6609652643147 -4.39753851493619e-16 10.0
vertex 90.0549827593174 10.0 10.0
vertex 78.5079773755249 10.0 10.0
endloop
endfacet
facet normal -5.72909673900947e-32 -8.12350892843522e-33 1.0
outer loop
vertex 90.0549827593174 10.0 10.0
vertex 81.6609652643147 -4.39753851493619e-16 10.0
vertex 93.2079706481072 8.5652539530346e-16 10.0
endloop
endfacet
facet normal 0.573576436351046 -0.819152044288992 0.0
outer loop
vertex 14.2814800674211 10.0 20.0
vertex 0.0 0.0 9.5
vertex 14.2814800674211 10.0 9.5
endloop
endfacet
facet normal 0.573576436351046 -0.819152044288992 0.0
outer loop
vertex 0.0 0.0 9.5
vertex 14.2814800674211 10.0 20.0
vertex 0.0 0.0 20.0
endloop
endfacet
facet normal 0.0 0.0 1.0
outer loop
vertex 87.434467956211 2.81343962109178e-15 20.0
vertex 98.2079706481072 10.0 20.0
vertex 84.2814800674211 10.0 20.0
endloop
endfacet
facet normal 0.0 0.0 1.0
outer loop
vertex 98.2079706481072 10.0 20.0
vertex 87.434467956211 2.81343962109178e-15 20.0
vertex 98.2079706481072 0.0 20.0
endloop
endfacet
facet normal 0.0 0.0 1.0
outer loop
vertex 14.2814800674211 10.0 20.0
vertex 0.0 10.0 20.0
vertex 0.0 0.0 20.0
endloop
endfacet
facet normal -1.0 0.0 0.0
outer loop
vertex 0.0 10.0 20.0
vertex 0.0 0.0 9.5
vertex 0.0 0.0 20.0
endloop
endfacet
facet normal -1.0 0.0 0.0
outer loop
vertex 0.0 0.0 9.5
vertex 0.0 10.0 20.0
vertex 0.0 0.0 0.0
endloop
endfacet
facet normal -1.0 0.0 0.0
outer loop
vertex 0.0 0.0 0.0
vertex 0.0 10.0 20.0
vertex 0.0 10.0 0.0
endloop
endfacet
facet normal 0.0 0.0 -1.0
outer loop
vertex 98.2079706481072 10.0 0.0
vertex 0.0 0.0 0.0
vertex 0.0 10.0 0.0
endloop
endfacet
facet normal 0.0 0.0 -1.0
outer loop
vertex 0.0 0.0 0.0
vertex 98.2079706481072 10.0 0.0
vertex 98.2079706481072 0.0 0.0
endloop
endfacet
facet normal 0.0 0.0 -1.0
outer loop
vertex 66.9609719917324 10.0 30.0
vertex 62.2344746836286 2.06667563818263e-16 30.0
vertex 62.2344746836286 10.0 30.0
endloop
endfacet
facet normal 0.0 0.0 -1.0
outer loop
vertex 62.2344746836286 2.06667563818263e-16 30.0
vertex 66.9609719917324 10.0 30.0
vertex 70.1139598805222 8.55257642649427e-16 30.0
endloop
endfacet
facet normal -2.95794809115639e-17 1.0 -2.41116060870344e-16
outer loop
vertex 0.0 10.0 0.0
vertex 14.2814800674211 10.0 9.5
vertex 98.2079706481072 10.0 0.0
endloop
endfacet
facet normal -2.95794809115639e-17 1.0 -2.41116060870344e-16
outer loop
vertex 14.2814800674211 10.0 9.5
vertex 0.0 10.0 0.0
vertex 0.0 10.0 20.0
endloop
endfacet
facet normal -2.95794809115639e-17 1.0 -2.41116060870344e-16
outer loop
vertex 14.2814800674211 10.0 9.5
vertex 0.0 10.0 20.0
vertex 14.2814800674211 10.0 20.0
endloop
endfacet
facet normal -2.95794809115639e-17 1.0 -2.41116060870344e-16
outer loop
vertex 31.7159480236321 10.0 20.0
vertex 78.5079773755249 10.0 10.0
vertex 31.7159480236321 10.0 9.5
endloop
endfacet
facet normal -2.95794809115639e-17 1.0 -2.41116060870344e-16
outer loop
vertex 78.5079773755249 10.0 10.0
vertex 31.7159480236321 10.0 20.0
vertex 62.2344746836286 10.0 20.0
endloop
endfacet
facet normal -2.95794809115639e-17 1.0 -2.41116060870344e-16
outer loop
vertex 78.5079773755249 10.0 10.0
vertex 62.2344746836286 10.0 20.0
vertex 67.7053379779612 10.0 28.7107202924256
endloop
endfacet
facet normal -2.95794809115639e-17 1.0 -2.41116060870344e-16
outer loop
vertex 67.7053379779612 10.0 28.7107202924256
vertex 62.2344746836286 10.0 20.0
vertex 62.2344746836286 10.0 30.0
endloop
endfacet
facet normal -2.95794809115639e-17 1.0 -2.41116060870344e-16
outer loop
vertex 67.7053379779612 10.0 28.7107202924256
vertex 62.2344746836286 10.0 30.0
vertex 66.9609719917324 10.0 30.0
endloop
endfacet
facet normal -2.95794809115639e-17 1.0 -2.41116060870344e-16
outer loop
vertex 98.2079706481072 10.0 0.0
vertex 90.0549827593174 10.0 10.0
vertex 98.2079706481072 10.0 20.0
endloop
endfacet
facet normal -2.95794809115639e-17 1.0 -2.41116060870344e-16
outer loop
vertex 90.0549827593174 10.0 10.0
vertex 98.2079706481072 10.0 0.0
vertex 31.7159480236321 10.0 9.5
endloop
endfacet
facet normal -2.95794809115639e-17 1.0 -2.41116060870344e-16
outer loop
vertex 31.7159480236321 10.0 9.5
vertex 98.2079706481072 10.0 0.0
vertex 14.2814800674211 10.0 9.5
endloop
endfacet
facet normal -2.95794809115639e-17 1.0 -2.41116060870344e-16
outer loop
vertex 90.0549827593174 10.0 10.0
vertex 31.7159480236321 10.0 9.5
vertex 78.5079773755249 10.0 10.0
endloop
endfacet
facet normal -2.95794809115639e-17 1.0 -2.41116060870344e-16
outer loop
vertex 98.2079706481072 10.0 20.0
vertex 90.0549827593174 10.0 10.0
vertex 84.2814800674211 10.0 20.0
endloop
endfacet
facet normal -1.0 0.0 0.0
outer loop
vertex 62.2344746836286 10.0 30.0
vertex 62.2344746836286 2.06667563818263e-16 20.0
vertex 62.2344746836286 2.06667563818263e-16 30.0
endloop
endfacet
facet normal -1.0 0.0 0.0
outer loop
vertex 62.2344746836286 2.06667563818263e-16 20.0
vertex 62.2344746836286 10.0 30.0
vertex 62.2344746836286 10.0 20.0
endloop
endfacet
facet normal 8.08067902519237e-18 -1.0 3.30801734158076e-17
outer loop
vertex 98.2079706481072 0.0 20.0
vertex 93.2079706481072 8.5652539530346e-16 10.0
vertex 98.2079706481072 8.5652539530346e-16 10.0
endloop
endfacet
facet normal 8.08067902519237e-18 -1.0 3.30801734158076e-17
outer loop
vertex 93.2079706481072 8.5652539530346e-16 10.0
vertex 98.2079706481072 0.0 20.0
vertex 87.434467956211 2.81343962109178e-15 20.0
endloop
endfacet
facet normal 8.08067902519237e-18 -1.0 3.30801734158076e-17
outer loop
vertex 71.6787119930104 1.24046734136789e-15 27.2897698399198
vertex 62.2344746836286 2.06667563818263e-16 20.0
vertex 81.6609652643147 -4.39753851493619e-16 10.0
endloop
endfacet
facet normal 8.08067902519237e-18 -1.0 3.30801734158076e-17
outer loop
vertex 62.2344746836286 2.06667563818263e-16 20.0
vertex 71.6787119930104 1.24046734136789e-15 27.2897698399198
vertex 62.2344746836286 2.06667563818263e-16 30.0
endloop
endfacet
facet normal 8.08067902519237e-18 -1.0 3.30801734158076e-17
outer loop
vertex 62.2344746836286 2.06667563818263e-16 30.0
vertex 71.6787119930104 1.24046734136789e-15 27.2897698399198
vertex 70.1139598805222 8.55257642649427e-16 30.0
endloop
endfacet
facet normal 8.08067902519237e-18 -1.0 3.30801734158076e-17
outer loop
vertex 98.2079706481072 8.5652539530346e-16 10.0
vertex 0.0 0.0 0.0
vertex 98.2079706481072 0.0 0.0
endloop
endfacet
facet normal 8.08067902519237e-18 -1.0 3.30801734158076e-17
outer loop
vertex 0.0 0.0 0.0
vertex 98.2079706481072 8.5652539530346e-16 10.0
vertex 17.434467956211 -2.69879604775092e-16 9.5
endloop
endfacet
facet normal 8.08067902519237e-18 -1.0 3.30801734158076e-17
outer loop
vertex 17.434467956211 -2.69879604775092e-16 9.5
vertex 98.2079706481072 8.5652539530346e-16 10.0
vertex 93.2079706481072 8.5652539530346e-16 10.0
endloop
endfacet
facet normal 8.08067902519237e-18 -1.0 3.30801734158076e-17
outer loop
vertex 17.434467956211 -2.69879604775092e-16 9.5
vertex 93.2079706481072 8.5652539530346e-16 10.0
vertex 81.6609652643147 -4.39753851493619e-16 10.0
endloop
endfacet
facet normal 8.08067902519237e-18 -1.0 3.30801734158076e-17
outer loop
vertex 17.434467956211 -2.69879604775092e-16 9.5
vertex 81.6609652643147 -4.39753851493619e-16 10.0
vertex 17.434467956211 -2.69879604775092e-16 20.0
endloop
endfacet
facet normal 8.08067902519237e-18 -1.0 3.30801734158076e-17
outer loop
vertex 17.434467956211 -2.69879604775092e-16 20.0
vertex 81.6609652643147 -4.39753851493619e-16 10.0
vertex 62.2344746836286 2.06667563818263e-16 20.0
endloop
endfacet
facet normal 8.08067902519237e-18 -1.0 3.30801734158076e-17
outer loop
vertex 0.0 0.0 9.5
vertex 0.0 0.0 0.0
vertex 17.434467956211 -2.69879604775092e-16 9.5
endloop
endfacet
facet normal -0.835440062922777 -0.263413240020532 -0.482341545220263
outer loop
vertex 87.434467956211 2.81343962109178e-15 20.0
vertex 90.0549827593174 10.0 10.0
vertex 93.2079706481072 8.5652539530346e-16 10.0
endloop
endfacet
facet normal -0.835440062922777 -0.263413240020532 -0.482341545220263
outer loop
vertex 90.0549827593174 10.0 10.0
vertex 87.434467956211 2.81343962109178e-15 20.0
vertex 84.2814800674211 10.0 20.0
endloop
endfacet
facet normal 0.835440062922777 0.263413240020534 0.482341545220263
outer loop
vertex 78.5079773755249 10.0 10.0
vertex 71.6787119930104 1.24046734136789e-15 27.2897698399198
vertex 81.6609652643147 -4.39753851493619e-16 10.0
endloop
endfacet
facet normal 0.835440062922777 0.263413240020534 0.482341545220263
outer loop
vertex 71.6787119930104 1.24046734136789e-15 27.2897698399198
vertex 66.9609719917324 10.0 30.0
vertex 70.1139598805222 8.55257642649427e-16 30.0
endloop
endfacet
facet normal 0.835440062922777 0.263413240020534 0.482341545220263
outer loop
vertex 66.9609719917324 10.0 30.0
vertex 71.6787119930104 1.24046734136789e-15 27.2897698399198
vertex 78.5079773755249 10.0 10.0
endloop
endfacet
facet normal 0.835440062922777 0.263413240020534 0.482341545220263
outer loop
vertex 66.9609719917324 10.0 30.0
vertex 78.5079773755249 10.0 10.0
vertex 67.7053379779612 10.0 28.7107202924256
endloop
endfacet
facet normal -0.573576436351046 0.819152044288992 0.0
outer loop
vertex 17.434467956211 -2.69879604775092e-16 20.0
vertex 31.7159480236321 10.0 9.5
vertex 17.434467956211 -2.69879604775092e-16 9.5
endloop
endfacet
facet normal -0.573576436351046 0.819152044288992 0.0
outer loop
vertex 31.7159480236321 10.0 9.5
vertex 17.434467956211 -2.69879604775092e-16 20.0
vertex 31.7159480236321 10.0 20.0
endloop
endfacet
endsolid ipadstand
