solid ipadstandSolid
facet normal -2.58621343983341e-16 -7.85579640363678e-16 1.0
outer loop
vertex 0.0861016267811008 -1.68994210205376 20.0
vertex 0.0861016267811149 1.68994210205377 20.0
vertex -9.51738687859915e-15 -1.40998324127395e-14 20.0
endloop
endfacet
facet normal -2.58621343983341e-16 -7.85579640363678e-16 1.0
outer loop
vertex 0.0861016267811149 1.68994210205377 20.0
vertex 0.0861016267811008 -1.68994210205376 20.0
vertex 0.343514795333265 -3.36238231296839 20.0
endloop
endfacet
facet normal -2.58621343983341e-16 -7.85579640363678e-16 1.0
outer loop
vertex 0.0861016267811149 1.68994210205377 20.0
vertex 0.343514795333265 -3.36238231296839 20.0
vertex 0.343514795333281 3.3623823129684 20.0
endloop
endfacet
facet normal -2.58621343983341e-16 -7.85579640363678e-16 1.0
outer loop
vertex 0.343514795333281 3.3623823129684 20.0
vertex 0.343514795333265 -3.36238231296839 20.0
vertex 0.769573605299115 -4.99999999999999 20.0
endloop
endfacet
facet normal -2.58621343983341e-16 -7.85579640363678e-16 1.0
outer loop
vertex 0.343514795333281 3.3623823129684 20.0
vertex 0.769573605299115 -4.99999999999999 20.0
vertex 0.769573605299144 5.0 20.0
endloop
endfacet
facet normal -2.58621343983341e-16 -7.85579640363678e-16 1.0
outer loop
vertex 0.769573605299144 5.0 20.0
vertex 0.769573605299115 -4.99999999999999 20.0
vertex 1.35986557716127 -6.58583516999192 20.0
endloop
endfacet
facet normal -2.58621343983341e-16 -7.85579640363678e-16 1.0
outer loop
vertex 0.769573605299144 5.0 20.0
vertex 1.35986557716127 -6.58583516999192 20.0
vertex 1.35986557716131 6.58583516999192 20.0
endloop
endfacet
facet normal -2.58621343983341e-16 -7.85579640363678e-16 1.0
outer loop
vertex 1.35986557716131 6.58583516999192 20.0
vertex 1.35986557716127 -6.58583516999192 20.0
vertex 2.10827735010145 -8.10346411560174 20.0
endloop
endfacet
facet normal -2.58621343983341e-16 -7.85579640363678e-16 1.0
outer loop
vertex 1.35986557716131 6.58583516999192 20.0
vertex 2.10827735010145 -8.10346411560174 20.0
vertex 2.1082773501015 8.10346411560174 20.0
endloop
endfacet
facet normal -2.58621343983341e-16 -7.85579640363678e-16 1.0
outer loop
vertex 2.1082773501015 8.10346411560174 20.0
vertex 2.10827735010145 -8.10346411560174 20.0
vertex 3.00705799504268 -9.53716950748227 20.0
endloop
endfacet
facet normal -2.58621343983341e-16 -7.85579640363678e-16 1.0
outer loop
vertex 2.1082773501015 8.10346411560174 20.0
vertex 3.00705799504268 -9.53716950748227 20.0
vertex 3.00705799504274 9.53716950748226 20.0
endloop
endfacet
facet normal -2.58621343983341e-16 -7.85579640363678e-16 1.0
outer loop
vertex 3.00705799504274 9.53716950748226 20.0
vertex 3.00705799504268 -9.53716950748227 20.0
vertex 16.6275476171152 -5.24264562570406 20.0
endloop
endfacet
facet normal -2.58621343983341e-16 -7.85579640363678e-16 1.0
outer loop
vertex 3.00705799504274 9.53716950748226 20.0
vertex 16.6275476171152 -5.24264562570406 20.0
vertex 16.6275476171152 5.24264562570404 20.0
endloop
endfacet
facet normal -2.58621343983341e-16 -7.85579640363678e-16 1.0
outer loop
vertex 16.6275476171152 5.24264562570404 20.0
vertex 16.6275476171152 -5.24264562570406 20.0
vertex 59.354073426688 -18.714267466469 20.0
endloop
endfacet
facet normal -2.58621343983341e-16 -7.85579640363678e-16 1.0
outer loop
vertex 16.6275476171152 5.24264562570404 20.0
vertex 59.354073426688 -18.714267466469 20.0
vertex 33.2550952342304 -1.55858823448482e-14 20.0
endloop
endfacet
facet normal -2.58621343983341e-16 -7.85579640363678e-16 1.0
outer loop
vertex 33.2550952342304 -1.55858823448482e-14 20.0
vertex 59.354073426688 -18.714267466469 20.0
vertex 62.3611314217307 -9.17709795898674 20.0
endloop
endfacet
facet normal -2.58621343983341e-16 -7.85579640363678e-16 1.0
outer loop
vertex 33.2550952342304 -1.55858823448482e-14 20.0
vertex 59.0932292733512 18.6320236208357 20.0
vertex 16.6275476171152 5.24264562570404 20.0
endloop
endfacet
facet normal -2.58621343983341e-16 -7.85579640363678e-16 1.0
outer loop
vertex 59.0932292733512 18.6320236208357 20.0
vertex 33.2550952342304 -1.55858823448482e-14 20.0
vertex 62.1002872683939 9.09485411335341 20.0
endloop
endfacet
facet normal -1.76356144010485e-16 -1.27159678649374e-16 1.0
outer loop
vertex 83.387734169491 15.806760339595 20.0
vertex 93.6626063056841 29.5317063314313 20.0
vertex 83.3877341694909 26.2920515910031 20.0
endloop
endfacet
facet normal -1.76356144010485e-16 -1.27159678649374e-16 1.0
outer loop
vertex 93.6626063056841 29.5317063314313 20.0
vertex 83.387734169491 15.806760339595 20.0
vertex 96.6696643007269 19.9945368239489 20.0
endloop
endfacet
facet normal -0.875983238284001 4.12332079058777e-15 -0.482341545220267
outer loop
vertex 83.3877341694909 26.2920515910031 20.0
vertex 88.8940215519429 17.5428860825018 10.0
vertex 83.387734169491 15.806760339595 20.0
endloop
endfacet
facet normal -0.875983238284001 4.12332079058777e-15 -0.482341545220267
outer loop
vertex 88.8940215519429 17.5428860825018 10.0
vertex 83.3877341694909 26.2920515910031 20.0
vertex 88.894021551943 28.0281773339099 10.0
endloop
endfacet
facet normal -4.09904350551639e-16 -3.28543178620147e-16 1.0
outer loop
vertex 77.881446787039 14.0706345966882 10.0
vertex 88.894021551943 28.0281773339099 10.0
vertex 77.881446787039 24.5559258480964 10.0
endloop
endfacet
facet normal -4.09904350551639e-16 -3.28543178620147e-16 1.0
outer loop
vertex 88.894021551943 28.0281773339099 10.0
vertex 77.881446787039 14.0706345966882 10.0
vertex 88.8940215519429 17.5428860825018 10.0
endloop
endfacet
facet normal 0.875983238284003 1.62208336184742e-15 0.482341545220263
outer loop
vertex 77.881446787039 14.0706345966882 10.0
vertex 66.8688720221351 21.0836743622828 30.0000000000001
vertex 66.868872022135 10.5983831108749 30.0000000000001
endloop
endfacet
facet normal 0.875983238284003 1.62208336184742e-15 0.482341545220263
outer loop
vertex 66.8688720221351 21.0836743622828 30.0000000000001
vertex 77.881446787039 14.0706345966882 10.0
vertex 77.881446787039 24.5559258480964 10.0
endloop
endfacet
facet normal 2.7350120988884e-16 -5.95981951253716e-17 1.0
outer loop
vertex 77.8814467870391 -24.5559258480965 9.99999999999999
vertex 88.8940215519431 -17.5428860825018 9.99999999999998
vertex 77.8814467870391 -14.0706345966884 9.99999999999999
endloop
endfacet
facet normal 2.7350120988884e-16 -5.95981951253716e-17 1.0
outer loop
vertex 88.8940215519431 -17.5428860825018 9.99999999999998
vertex 77.8814467870391 -24.5559258480965 9.99999999999999
vertex 88.894021551943 -28.0281773339099 9.99999999999998
endloop
endfacet
facet normal 0.875983238284003 4.77165867702726e-16 0.482341545220263
outer loop
vertex 77.8814467870391 -14.0706345966884 9.99999999999999
vertex 68.1707147769927 -21.4941438062005 27.6357159290187
vertex 77.8814467870391 -24.5559258480965 9.99999999999999
endloop
endfacet
facet normal 0.875983238284003 4.77165867702726e-16 0.482341545220263
outer loop
vertex 68.1707147769927 -21.4941438062005 27.6357159290187
vertex 77.8814467870391 -14.0706345966884 9.99999999999999
vertex 66.8688720221351 -21.083674362283 30.0000000000001
endloop
endfacet
facet normal 0.875983238284003 4.77165867702726e-16 0.482341545220263
outer loop
vertex 66.8688720221351 -21.083674362283 30.0000000000001
vertex 77.8814467870391 -14.0706345966884 9.99999999999999
vertex 66.8688720221351 -10.5983831108749 30.0000000000001
endloop
endfacet
facet normal 0.875983238284003 4.77165867702726e-16 0.482341545220263
outer loop
vertex 66.8688720221351 -10.5983831108749 30.0000000000001
vertex 77.8814467870391 -14.0706345966884 9.99999999999999
vertex 68.5804673889451 -11.1380470570809 26.8915618675032
endloop
endfacet
facet normal 2.7350120988884e-16 -5.95981951253716e-17 1.0
outer loop
vertex 83.3877341694911 -26.2920515910032 20.0
vertex 96.6696643007269 -19.994536823949 20.0
vertex 83.387734169491 -15.8067603395951 20.0
endloop
endfacet
facet normal 2.7350120988884e-16 -5.95981951253716e-17 1.0
outer loop
vertex 96.6696643007269 -19.994536823949 20.0
vertex 83.3877341694911 -26.2920515910032 20.0
vertex 93.6626063056842 -29.5317063314313 20.0
endloop
endfacet
facet normal 0.300705799504274 0.953716950748227 -1.63323579143412e-16
outer loop
vertex 62.3611314217307 -9.17709795898674 20.0
vertex 68.5804673889451 -11.1380470570809 26.8915618675032
vertex 77.8814467870391 -14.0706345966884 9.99999999999999
endloop
endfacet
facet normal 0.300705799504274 0.953716950748227 -1.63323579143412e-16
outer loop
vertex 68.5804673889451 -11.1380470570809 26.8915618675032
vertex 62.3611314217307 -9.17709795898674 20.0
vertex 62.3611314217307 -9.17709795898674 30.0000000000001
endloop
endfacet
facet normal 0.300705799504274 0.953716950748227 -1.63323579143412e-16
outer loop
vertex 68.5804673889451 -11.1380470570809 26.8915618675032
vertex 62.3611314217307 -9.17709795898674 30.0000000000001
vertex 66.8688720221351 -10.5983831108749 30.0000000000001
endloop
endfacet
facet normal 0.300705799504274 0.953716950748227 -1.63323579143412e-16
outer loop
vertex 33.2550952342305 -4.17797386327785e-14 2.35103710769176e-14
vertex 77.8814467870391 -14.0706345966884 9.99999999999999
vertex 88.8940215519431 -17.5428860825018 9.99999999999998
endloop
endfacet
facet normal 0.300705799504274 0.953716950748227 -1.63323579143412e-16
outer loop
vertex 77.8814467870391 -14.0706345966884 9.99999999999999
vertex 33.2550952342305 -4.17797386327785e-14 2.35103710769176e-14
vertex 33.2550952342304 -1.55858823448482e-14 20.0
endloop
endfacet
facet normal 0.300705799504274 0.953716950748227 -1.63323579143412e-16
outer loop
vertex 77.8814467870391 -14.0706345966884 9.99999999999999
vertex 33.2550952342304 -1.55858823448482e-14 20.0
vertex 62.3611314217307 -9.17709795898674 20.0
endloop
endfacet
facet normal 0.300705799504274 0.953716950748227 -1.63323579143412e-16
outer loop
vertex 96.6696643007269 -19.994536823949 -2.7630908452872e-14
vertex 88.8940215519431 -17.5428860825018 9.99999999999998
vertex 96.6696643007269 -19.994536823949 20.0
endloop
endfacet
facet normal 0.300705799504274 0.953716950748227 -1.63323579143412e-16
outer loop
vertex 88.8940215519431 -17.5428860825018 9.99999999999998
vertex 96.6696643007269 -19.994536823949 -2.7630908452872e-14
vertex 33.2550952342305 -4.17797386327785e-14 2.35103710769176e-14
endloop
endfacet
facet normal 0.300705799504274 0.953716950748227 -1.63323579143412e-16
outer loop
vertex 96.6696643007269 -19.994536823949 20.0
vertex 88.8940215519431 -17.5428860825018 9.99999999999998
vertex 83.387734169491 -15.8067603395951 20.0
endloop
endfacet
facet normal -0.875983238284003 1.32694654731315e-15 -0.482341545220263
outer loop
vertex 83.3877341694911 -26.2920515910032 20.0
vertex 88.8940215519431 -17.5428860825018 9.99999999999998
vertex 88.894021551943 -28.0281773339099 9.99999999999998
endloop
endfacet
facet normal -0.875983238284003 1.32694654731315e-15 -0.482341545220263
outer loop
vertex 88.8940215519431 -17.5428860825018 9.99999999999998
vertex 83.3877341694911 -26.2920515910032 20.0
vertex 83.387734169491 -15.8067603395951 20.0
endloop
endfacet
facet normal -1.44962327235389e-16 -4.04125132803404e-16 1.0
outer loop
vertex 62.1002872683939 9.09485411335341 30.0000000000001
vertex 66.8688720221351 21.0836743622828 30.0000000000001
vertex 59.0932292733512 18.6320236208357 30.0000000000001
endloop
endfacet
facet normal -1.44962327235389e-16 -4.04125132803404e-16 1.0
outer loop
vertex 66.8688720221351 21.0836743622828 30.0000000000001
vertex 62.1002872683939 9.09485411335341 30.0000000000001
vertex 66.868872022135 10.5983831108749 30.0000000000001
endloop
endfacet
facet normal -0.953716950748228 -0.300705799504269 2.42921217006949e-16
outer loop
vertex 59.0932292733512 18.6320236208357 30.0000000000001
vertex 62.1002872683939 9.09485411335341 20.0
vertex 62.1002872683939 9.09485411335341 30.0000000000001
endloop
endfacet
facet normal -0.953716950748228 -0.300705799504269 2.42921217006949e-16
outer loop
vertex 62.1002872683939 9.09485411335341 20.0
vertex 59.0932292733512 18.6320236208357 30.0000000000001
vertex 59.0932292733512 18.6320236208357 20.0
endloop
endfacet
facet normal 0.953716950748227 -0.300705799504273 -2.78764262835322e-16
outer loop
vertex 96.6696643007269 -19.994536823949 -2.7630908452872e-14
vertex 93.6626063056842 -29.5317063314313 9.99999999999998
vertex 93.6626063056842 -29.5317063314313 -2.73768725422725e-14
endloop
endfacet
facet normal 0.953716950748227 -0.300705799504273 -2.78764262835322e-16
outer loop
vertex 93.6626063056842 -29.5317063314313 9.99999999999998
vertex 96.6696643007269 -19.994536823949 -2.7630908452872e-14
vertex 93.6626063056842 -29.5317063314313 20.0
endloop
endfacet
facet normal 0.953716950748227 -0.300705799504273 -2.78764262835322e-16
outer loop
vertex 93.6626063056842 -29.5317063314313 20.0
vertex 96.6696643007269 -19.994536823949 -2.7630908452872e-14
vertex 96.6696643007269 -19.994536823949 20.0
endloop
endfacet
facet normal 9.45320810321664e-17 1.12333731394112e-15 -1.0
outer loop
vertex 0.0861016267810792 1.68994210205379 -2.8199664825479e-15
vertex 0.0861016267810972 -1.68994210205375 5.63993296509579e-15
vertex -1.67061650487809e-15 -2.32255276601375e-15 -1.82596011786163e-19
endloop
endfacet
facet normal 9.45320810321664e-17 1.12333731394112e-15 -1.0
outer loop
vertex 0.0861016267810972 -1.68994210205375 5.63993296509579e-15
vertex 0.0861016267810792 1.68994210205379 -2.8199664825479e-15
vertex 0.343514795333246 3.36238231296841 0.0
endloop
endfacet
facet normal 9.45320810321664e-17 1.12333731394112e-15 -1.0
outer loop
vertex 0.0861016267810972 -1.68994210205375 5.63993296509579e-15
vertex 0.343514795333246 3.36238231296841 0.0
vertex 0.343514795333261 -3.36238231296838 0.0
endloop
endfacet
facet normal 9.45320810321664e-17 1.12333731394112e-15 -1.0
outer loop
vertex 0.343514795333261 -3.36238231296838 0.0
vertex 0.343514795333246 3.36238231296841 0.0
vertex 0.769573605299108 5.00000000000001 0.0
endloop
endfacet
facet normal 9.45320810321664e-17 1.12333731394112e-15 -1.0
outer loop
vertex 0.343514795333261 -3.36238231296838 0.0
vertex 0.769573605299108 5.00000000000001 0.0
vertex 0.769573605299112 -4.99999999999998 0.0
endloop
endfacet
facet normal 9.45320810321664e-17 1.12333731394112e-15 -1.0
outer loop
vertex 0.769573605299112 -4.99999999999998 0.0
vertex 0.769573605299108 5.00000000000001 0.0
vertex 1.35986557716127 6.58583516999194 0.0
endloop
endfacet
facet normal 9.45320810321664e-17 1.12333731394112e-15 -1.0
outer loop
vertex 0.769573605299112 -4.99999999999998 0.0
vertex 1.35986557716127 6.58583516999194 0.0
vertex 1.35986557716126 -6.58583516999192 0.0
endloop
endfacet
facet normal 9.45320810321664e-17 1.12333731394112e-15 -1.0
outer loop
vertex 1.35986557716126 -6.58583516999192 0.0
vertex 1.35986557716127 6.58583516999194 0.0
vertex 2.10827735010145 -8.10346411560174 0.0
endloop
endfacet
facet normal 9.45320810321664e-17 1.12333731394112e-15 -1.0
outer loop
vertex 2.10827735010145 -8.10346411560174 0.0
vertex 1.35986557716127 6.58583516999194 0.0
vertex 2.10827735010146 8.10346411560176 0.0
endloop
endfacet
facet normal 9.45320810321664e-17 1.12333731394112e-15 -1.0
outer loop
vertex 2.10827735010145 -8.10346411560174 0.0
vertex 2.10827735010146 8.10346411560176 0.0
vertex 3.00705799504272 -9.5371695074823 1.16513302966715e-14
endloop
endfacet
facet normal 9.45320810321664e-17 1.12333731394112e-15 -1.0
outer loop
vertex 3.00705799504272 -9.5371695074823 1.16513302966715e-14
vertex 2.10827735010146 8.10346411560176 0.0
vertex 3.00705799504273 9.53716950748226 -2.5403591059943e-16
endloop
endfacet
facet normal 9.45320810321664e-17 1.12333731394112e-15 -1.0
outer loop
vertex 3.00705799504272 -9.5371695074823 1.16513302966715e-14
vertex 3.00705799504273 9.53716950748226 -2.5403591059943e-16
vertex 16.6275476171152 -5.24264562570403 1.69944510359952e-14
endloop
endfacet
facet normal 9.45320810321664e-17 1.12333731394112e-15 -1.0
outer loop
vertex 16.6275476171152 -5.24264562570403 1.69944510359952e-14
vertex 3.00705799504273 9.53716950748226 -2.5403591059943e-16
vertex 16.6275476171151 5.24264562570402 9.33570392745856e-15
endloop
endfacet
facet normal 9.45320810321664e-17 1.12333731394112e-15 -1.0
outer loop
vertex 16.6275476171152 -5.24264562570403 1.69944510359952e-14
vertex 16.6275476171151 5.24264562570402 9.33570392745856e-15
vertex 93.6626063056841 29.5317063314313 4.10022467529689e-14
endloop
endfacet
facet normal 9.45320810321664e-17 1.12333731394112e-15 -1.0
outer loop
vertex 16.6275476171152 -5.24264562570403 1.69944510359952e-14
vertex 93.6626063056841 29.5317063314313 4.10022467529689e-14
vertex 33.2550952342305 -4.17797386327785e-14 2.35103710769176e-14
endloop
endfacet
facet normal 9.45320810321664e-17 1.12333731394112e-15 -1.0
outer loop
vertex 33.2550952342305 -4.17797386327785e-14 2.35103710769176e-14
vertex 93.6626063056841 29.5317063314313 4.10022467529689e-14
vertex 96.6696643007269 19.9945368239489 5.26537596456522e-14
endloop
endfacet
facet normal 9.45320810321664e-17 1.12333731394112e-15 -1.0
outer loop
vertex 33.2550952342305 -4.17797386327785e-14 2.35103710769176e-14
vertex 93.6626063056842 -29.5317063314313 -2.73768725422725e-14
vertex 16.6275476171152 -5.24264562570403 1.69944510359952e-14
endloop
endfacet
facet normal 9.45320810321664e-17 1.12333731394112e-15 -1.0
outer loop
vertex 93.6626063056842 -29.5317063314313 -2.73768725422725e-14
vertex 33.2550952342305 -4.17797386327785e-14 2.35103710769176e-14
vertex 96.6696643007269 -19.994536823949 -2.7630908452872e-14
endloop
endfacet
facet normal 0.953716950748227 0.300705799504273 1.32864222853268e-15
outer loop
vertex 96.6696643007269 19.9945368239489 5.26537596456522e-14
vertex 93.6626063056841 29.5317063314313 20.0
vertex 96.6696643007269 19.9945368239489 20.0
endloop
endfacet
facet normal 0.953716950748227 0.300705799504273 1.32864222853268e-15
outer loop
vertex 93.6626063056841 29.5317063314313 20.0
vertex 96.6696643007269 19.9945368239489 5.26537596456522e-14
vertex 93.6626063056841 29.5317063314313 4.10022467529689e-14
endloop
endfacet
facet normal 0.300705799504273 -0.953716950748227 1.455448799374e-15
outer loop
vertex 96.6696643007269 19.9945368239489 5.26537596456522e-14
vertex 88.8940215519429 17.5428860825018 10.0
vertex 77.881446787039 14.0706345966882 10.0
endloop
endfacet
facet normal 0.300705799504273 -0.953716950748227 1.455448799374e-15
outer loop
vertex 88.8940215519429 17.5428860825018 10.0
vertex 96.6696643007269 19.9945368239489 5.26537596456522e-14
vertex 96.6696643007269 19.9945368239489 20.0
endloop
endfacet
facet normal 0.300705799504273 -0.953716950748227 1.455448799374e-15
outer loop
vertex 88.8940215519429 17.5428860825018 10.0
vertex 96.6696643007269 19.9945368239489 20.0
vertex 83.387734169491 15.806760339595 20.0
endloop
endfacet
facet normal 0.300705799504273 -0.953716950748227 1.455448799374e-15
outer loop
vertex 96.6696643007269 19.9945368239489 5.26537596456522e-14
vertex 33.2550952342304 -1.55858823448482e-14 20.0
vertex 33.2550952342305 -4.17797386327785e-14 2.35103710769176e-14
endloop
endfacet
facet normal 0.300705799504273 -0.953716950748227 1.455448799374e-15
outer loop
vertex 33.2550952342304 -1.55858823448482e-14 20.0
vertex 96.6696643007269 19.9945368239489 5.26537596456522e-14
vertex 77.881446787039 14.0706345966882 10.0
endloop
endfacet
facet normal 0.300705799504273 -0.953716950748227 1.455448799374e-15
outer loop
vertex 33.2550952342304 -1.55858823448482e-14 20.0
vertex 77.881446787039 14.0706345966882 10.0
vertex 62.1002872683939 9.09485411335341 20.0
endloop
endfacet
facet normal 0.300705799504273 -0.953716950748227 1.455448799374e-15
outer loop
vertex 62.1002872683939 9.09485411335341 20.0
vertex 77.881446787039 14.0706345966882 10.0
vertex 66.868872022135 10.5983831108749 30.0000000000001
endloop
endfacet
facet normal 0.300705799504273 -0.953716950748227 1.455448799374e-15
outer loop
vertex 62.1002872683939 9.09485411335341 20.0
vertex 66.868872022135 10.5983831108749 30.0000000000001
vertex 62.1002872683939 9.09485411335341 30.0000000000001
endloop
endfacet
facet normal -0.300705799504273 0.953716950748227 2.35712950428738e-15
outer loop
vertex 16.6275476171152 5.24264562570404 20.0
vertex 93.6626063056841 29.5317063314313 4.10022467529689e-14
vertex 16.6275476171151 5.24264562570402 9.33570392745856e-15
endloop
endfacet
facet normal -0.300705799504273 0.953716950748227 2.35712950428738e-15
outer loop
vertex 93.6626063056841 29.5317063314313 4.10022467529689e-14
vertex 16.6275476171152 5.24264562570404 20.0
vertex 77.881446787039 24.5559258480964 10.0
endloop
endfacet
facet normal -0.300705799504273 0.953716950748227 2.35712950428738e-15
outer loop
vertex 77.881446787039 24.5559258480964 10.0
vertex 16.6275476171152 5.24264562570404 20.0
vertex 59.0932292733512 18.6320236208357 20.0
endloop
endfacet
facet normal -0.300705799504273 0.953716950748227 2.35712950428738e-15
outer loop
vertex 77.881446787039 24.5559258480964 10.0
vertex 59.0932292733512 18.6320236208357 20.0
vertex 66.8688720221351 21.0836743622828 30.0000000000001
endloop
endfacet
facet normal -0.300705799504273 0.953716950748227 2.35712950428738e-15
outer loop
vertex 66.8688720221351 21.0836743622828 30.0000000000001
vertex 59.0932292733512 18.6320236208357 20.0
vertex 59.0932292733512 18.6320236208357 30.0000000000001
endloop
endfacet
facet normal -0.300705799504273 0.953716950748227 2.35712950428738e-15
outer loop
vertex 93.6626063056841 29.5317063314313 4.10022467529689e-14
vertex 88.894021551943 28.0281773339099 10.0
vertex 93.6626063056841 29.5317063314313 20.0
endloop
endfacet
facet normal -0.300705799504273 0.953716950748227 2.35712950428738e-15
outer loop
vertex 88.894021551943 28.0281773339099 10.0
vertex 93.6626063056841 29.5317063314313 4.10022467529689e-14
vertex 77.881446787039 24.5559258480964 10.0
endloop
endfacet
facet normal -0.300705799504273 0.953716950748227 2.35712950428738e-15
outer loop
vertex 93.6626063056841 29.5317063314313 20.0
vertex 88.894021551943 28.0281773339099 10.0
vertex 83.3877341694909 26.2920515910031 20.0
endloop
endfacet
facet normal 0.300705799504275 0.953716950748226 -1.00859062984882e-15
outer loop
vertex 3.00705799504274 9.53716950748226 20.0
vertex 16.6275476171151 5.24264562570402 9.33570392745856e-15
vertex 3.00705799504273 9.53716950748226 -2.5403591059943e-16
endloop
endfacet
facet normal 0.300705799504275 0.953716950748226 -1.00859062984882e-15
outer loop
vertex 16.6275476171151 5.24264562570402 9.33570392745856e-15
vertex 3.00705799504274 9.53716950748226 20.0
vertex 16.6275476171152 5.24264562570404 20.0
endloop
endfacet
facet normal -0.300705799504274 -0.953716950748227 -2.01981841553111e-16
outer loop
vertex 93.6626063056842 -29.5317063314313 20.0
vertex 88.894021551943 -28.0281773339099 9.99999999999998
vertex 93.6626063056842 -29.5317063314313 9.99999999999998
endloop
endfacet
facet normal -0.300705799504274 -0.953716950748227 -2.01981841553111e-16
outer loop
vertex 88.894021551943 -28.0281773339099 9.99999999999998
vertex 93.6626063056842 -29.5317063314313 20.0
vertex 83.3877341694911 -26.2920515910032 20.0
endloop
endfacet
facet normal -0.300705799504274 -0.953716950748227 -2.01981841553111e-16
outer loop
vertex 68.1707147769927 -21.4941438062005 27.6357159290187
vertex 59.354073426688 -18.714267466469 20.0
vertex 77.8814467870391 -24.5559258480965 9.99999999999999
endloop
endfacet
facet normal -0.300705799504274 -0.953716950748227 -2.01981841553111e-16
outer loop
vertex 59.354073426688 -18.714267466469 20.0
vertex 68.1707147769927 -21.4941438062005 27.6357159290187
vertex 59.354073426688 -18.714267466469 30.0000000000001
endloop
endfacet
facet normal -0.300705799504274 -0.953716950748227 -2.01981841553111e-16
outer loop
vertex 59.354073426688 -18.714267466469 30.0000000000001
vertex 68.1707147769927 -21.4941438062005 27.6357159290187
vertex 66.8688720221351 -21.083674362283 30.0000000000001
endloop
endfacet
facet normal -0.300705799504274 -0.953716950748227 -2.01981841553111e-16
outer loop
vertex 93.6626063056842 -29.5317063314313 9.99999999999998
vertex 16.6275476171152 -5.24264562570403 1.69944510359952e-14
vertex 93.6626063056842 -29.5317063314313 -2.73768725422725e-14
endloop
endfacet
facet normal -0.300705799504274 -0.953716950748227 -2.01981841553111e-16
outer loop
vertex 16.6275476171152 -5.24264562570403 1.69944510359952e-14
vertex 93.6626063056842 -29.5317063314313 9.99999999999998
vertex 88.894021551943 -28.0281773339099 9.99999999999998
endloop
endfacet
facet normal -0.300705799504274 -0.953716950748227 -2.01981841553111e-16
outer loop
vertex 16.6275476171152 -5.24264562570403 1.69944510359952e-14
vertex 88.894021551943 -28.0281773339099 9.99999999999998
vertex 77.8814467870391 -24.5559258480965 9.99999999999999
endloop
endfacet
facet normal -0.300705799504274 -0.953716950748227 -2.01981841553111e-16
outer loop
vertex 16.6275476171152 -5.24264562570403 1.69944510359952e-14
vertex 77.8814467870391 -24.5559258480965 9.99999999999999
vertex 16.6275476171152 -5.24264562570406 20.0
endloop
endfacet
facet normal -0.300705799504274 -0.953716950748227 -2.01981841553111e-16
outer loop
vertex 16.6275476171152 -5.24264562570406 20.0
vertex 77.8814467870391 -24.5559258480965 9.99999999999999
vertex 59.354073426688 -18.714267466469 20.0
endloop
endfacet
facet normal -0.953716950748227 0.300705799504273 2.78764262835322e-16
outer loop
vertex 62.3611314217307 -9.17709795898674 30.0000000000001
vertex 59.354073426688 -18.714267466469 20.0
vertex 59.354073426688 -18.714267466469 30.0000000000001
endloop
endfacet
facet normal -0.953716950748227 0.300705799504273 2.78764262835322e-16
outer loop
vertex 59.354073426688 -18.714267466469 20.0
vertex 62.3611314217307 -9.17709795898674 30.0000000000001
vertex 62.3611314217307 -9.17709795898674 20.0
endloop
endfacet
facet normal 2.7350120988884e-16 -5.95981951253716e-17 1.0
outer loop
vertex 66.8688720221351 -21.083674362283 30.0000000000001
vertex 62.3611314217307 -9.17709795898674 30.0000000000001
vertex 59.354073426688 -18.714267466469 30.0000000000001
endloop
endfacet
facet normal 2.7350120988884e-16 -5.95981951253716e-17 1.0
outer loop
vertex 62.3611314217307 -9.17709795898674 30.0000000000001
vertex 66.8688720221351 -21.083674362283 30.0000000000001
vertex 66.8688720221351 -10.5983831108749 30.0000000000001
endloop
endfacet
facet normal -0.847276463120827 -0.531152139260929 -5.70988547989613e-16
outer loop
vertex 3.00705799504268 -9.53716950748227 20.0
vertex 2.10827735010145 -8.10346411560174 0.0
vertex 3.00705799504272 -9.5371695074823 1.16513302966715e-14
endloop
endfacet
facet normal -0.847276463120827 -0.531152139260929 -5.70988547989613e-16
outer loop
vertex 2.10827735010145 -8.10346411560174 0.0
vertex 3.00705799504268 -9.53716950748227 20.0
vertex 2.10827735010145 -8.10346411560174 20.0
endloop
endfacet
facet normal -0.998704598040891 -0.0508834536168951 -1.32704179173714e-16
outer loop
vertex -9.51738687859915e-15 -1.40998324127395e-14 20.0
vertex 0.0861016267810972 -1.68994210205375 5.63993296509579e-15
vertex 0.0861016267811008 -1.68994210205376 20.0
endloop
endfacet
facet normal -0.998704598040891 -0.0508834536168951 -1.32704179173714e-16
outer loop
vertex 0.0861016267810972 -1.68994210205375 5.63993296509579e-15
vertex -9.51738687859915e-15 -1.40998324127395e-14 20.0
vertex -1.67061650487809e-15 -2.32255276601375e-15 -1.82596011786163e-19
endloop
endfacet
facet normal -0.988361510467761 -0.152123386189915 9.16031522684531e-17
outer loop
vertex 0.0861016267811008 -1.68994210205376 20.0
vertex 0.343514795333261 -3.36238231296838 0.0
vertex 0.343514795333265 -3.36238231296839 20.0
endloop
endfacet
facet normal -0.988361510467761 -0.152123386189915 9.16031522684531e-17
outer loop
vertex 0.343514795333261 -3.36238231296838 0.0
vertex 0.0861016267811008 -1.68994210205376 20.0
vertex 0.0861016267810972 -1.68994210205375 5.63993296509579e-15
endloop
endfacet
facet normal -0.967782453543202 -0.251787852395424 3.06401590600561e-17
outer loop
vertex 0.343514795333265 -3.36238231296839 20.0
vertex 0.769573605299112 -4.99999999999998 0.0
vertex 0.769573605299115 -4.99999999999999 20.0
endloop
endfacet
facet normal -0.967782453543202 -0.251787852395424 3.06401590600561e-17
outer loop
vertex 0.769573605299112 -4.99999999999998 0.0
vertex 0.343514795333265 -3.36238231296839 20.0
vertex 0.343514795333261 -3.36238231296838 0.0
endloop
endfacet
facet normal -0.937180554340384 -0.348844676849526 -3.06401590600674e-17
outer loop
vertex 0.769573605299115 -4.99999999999999 20.0
vertex 1.35986557716126 -6.58583516999192 0.0
vertex 1.35986557716127 -6.58583516999192 20.0
endloop
endfacet
facet normal -0.937180554340384 -0.348844676849526 -3.06401590600674e-17
outer loop
vertex 1.35986557716126 -6.58583516999192 0.0
vertex 0.769573605299115 -4.99999999999999 20.0
vertex 0.769573605299112 -4.99999999999998 0.0
endloop
endfacet
facet normal -0.89687274153269 -0.442288690218997 -9.16031522684658e-17
outer loop
vertex 1.35986557716127 -6.58583516999192 20.0
vertex 2.10827735010145 -8.10346411560174 0.0
vertex 2.10827735010145 -8.10346411560174 20.0
endloop
endfacet
facet normal -0.89687274153269 -0.442288690218997 -9.16031522684658e-17
outer loop
vertex 2.10827735010145 -8.10346411560174 0.0
vertex 1.35986557716127 -6.58583516999192 20.0
vertex 1.35986557716126 -6.58583516999192 0.0
endloop
endfacet
facet normal -0.998704598040891 0.0508834536168927 7.32954925189786e-16
outer loop
vertex 0.0861016267811149 1.68994210205377 20.0
vertex -1.67061650487809e-15 -2.32255276601375e-15 -1.82596011786163e-19
vertex -9.51738687859915e-15 -1.40998324127395e-14 20.0
endloop
endfacet
facet normal -0.998704598040891 0.0508834536168927 7.32954925189786e-16
outer loop
vertex -1.67061650487809e-15 -2.32255276601375e-15 -1.82596011786163e-19
vertex 0.0861016267811149 1.68994210205377 20.0
vertex 0.0861016267810792 1.68994210205379 -2.8199664825479e-15
endloop
endfacet
facet normal -0.847276463120822 0.531152139260938 1.06953331611989e-15
outer loop
vertex 3.00705799504274 9.53716950748226 20.0
vertex 2.10827735010146 8.10346411560176 0.0
vertex 2.1082773501015 8.10346411560174 20.0
endloop
endfacet
facet normal -0.847276463120822 0.531152139260938 1.06953331611989e-15
outer loop
vertex 2.10827735010146 8.10346411560176 0.0
vertex 3.00705799504274 9.53716950748226 20.0
vertex 3.00705799504273 9.53716950748226 -2.5403591059943e-16
endloop
endfacet
facet normal -0.896872741532688 0.442288690219002 1.98924726047944e-15
outer loop
vertex 2.1082773501015 8.10346411560174 20.0
vertex 1.35986557716127 6.58583516999194 0.0
vertex 1.35986557716131 6.58583516999192 20.0
endloop
endfacet
facet normal -0.896872741532688 0.442288690219002 1.98924726047944e-15
outer loop
vertex 1.35986557716127 6.58583516999194 0.0
vertex 2.1082773501015 8.10346411560174 20.0
vertex 2.10827735010146 8.10346411560176 0.0
endloop
endfacet
facet normal -0.937180554340381 0.348844676849533 1.97910369558739e-15
outer loop
vertex 1.35986557716131 6.58583516999192 20.0
vertex 0.769573605299108 5.00000000000001 0.0
vertex 0.769573605299144 5.0 20.0
endloop
endfacet
facet normal -0.937180554340381 0.348844676849533 1.97910369558739e-15
outer loop
vertex 0.769573605299108 5.00000000000001 0.0
vertex 1.35986557716131 6.58583516999192 20.0
vertex 1.35986557716127 6.58583516999194 0.0
endloop
endfacet
facet normal -0.9677824535432 0.25178785239543 1.94846353652733e-15
outer loop
vertex 0.769573605299144 5.0 20.0
vertex 0.343514795333246 3.36238231296841 0.0
vertex 0.343514795333281 3.3623823129684 20.0
endloop
endfacet
facet normal -0.9677824535432 0.25178785239543 1.94846353652733e-15
outer loop
vertex 0.343514795333246 3.36238231296841 0.0
vertex 0.769573605299144 5.0 20.0
vertex 0.769573605299108 5.00000000000001 0.0
endloop
endfacet
facet normal -0.988361510467761 0.152123386189916 1.89764410821098e-15
outer loop
vertex 0.343514795333281 3.3623823129684 20.0
vertex 0.0861016267810792 1.68994210205379 -2.8199664825479e-15
vertex 0.0861016267811149 1.68994210205377 20.0
endloop
endfacet
facet normal -0.988361510467761 0.152123386189916 1.89764410821098e-15
outer loop
vertex 0.0861016267810792 1.68994210205379 -2.8199664825479e-15
vertex 0.343514795333281 3.3623823129684 20.0
vertex 0.343514795333246 3.36238231296841 0.0
endloop
endfacet
facet normal 0.300705799504274 -0.953716950748227 3.12127776726566e-16
outer loop
vertex 16.6275476171152 -5.24264562570403 1.69944510359952e-14
vertex 3.00705799504268 -9.53716950748227 20.0
vertex 3.00705799504272 -9.5371695074823 1.16513302966715e-14
endloop
endfacet
facet normal 0.300705799504274 -0.953716950748227 3.12127776726566e-16
outer loop
vertex 3.00705799504268 -9.53716950748227 20.0
vertex 16.6275476171152 -5.24264562570403 1.69944510359952e-14
vertex 16.6275476171152 -5.24264562570406 20.0
endloop
endfacet
endsolid ipadstandSolid
