solid ipadstandSolid
facet normal -5.70902150943218e-16 -4.6200140501559e-16 1.0
outer loop
vertex 70.0457345236655 36.8388054452921 10.0
vertex 76.3514997004254 53.4618956438542 10.0000000000001
vertex 66.8927466348756 46.8388054452921 10.0
endloop
endfacet
facet normal -5.70902150943218e-16 -4.6200140501559e-16 1.0
outer loop
vertex 76.3514997004254 53.4618956438542 10.0000000000001
vertex 70.0457345236655 36.8388054452921 10.0
vertex 79.5044875892151 43.4618956438543 10.0
endloop
endfacet
facet normal 0.573576436351046 -0.819152044288992 1.59453200828408e-15
outer loop
vertex 86.1830242853808 48.1382573827195 7.79013914843739e-14
vertex 79.5044875892151 43.4618956438543 10.0
vertex 70.0457345236655 36.8388054452921 10.0
endloop
endfacet
facet normal 0.573576436351046 -0.819152044288992 1.59453200828408e-15
outer loop
vertex 79.5044875892151 43.4618956438543 10.0
vertex 86.1830242853808 48.1382573827195 7.79013914843739e-14
vertex 86.1830242853808 48.1382573827195 20.0
endloop
endfacet
facet normal 0.573576436351046 -0.819152044288992 1.59453200828408e-15
outer loop
vertex 79.5044875892151 43.4618956438543 10.0
vertex 86.1830242853808 48.1382573827195 20.0
vertex 74.7751110564403 40.1503505445732 20.0
endloop
endfacet
facet normal 0.573576436351046 -0.819152044288992 1.59453200828408e-15
outer loop
vertex 86.1830242853808 48.1382573827195 7.79013914843739e-14
vertex 31.7159480236321 10.0 20.0
vertex 31.7159480236322 10.0 3.26056798584483e-14
endloop
endfacet
facet normal 0.573576436351046 -0.819152044288992 1.59453200828408e-15
outer loop
vertex 31.7159480236321 10.0 20.0
vertex 86.1830242853808 48.1382573827195 7.79013914843739e-14
vertex 70.0457345236655 36.8388054452921 10.0
endloop
endfacet
facet normal 0.573576436351046 -0.819152044288992 1.59453200828408e-15
outer loop
vertex 31.7159480236321 10.0 20.0
vertex 70.0457345236655 36.8388054452921 10.0
vertex 56.4912212366709 27.3478330649749 20.0
endloop
endfacet
facet normal 0.573576436351046 -0.819152044288992 1.59453200828408e-15
outer loop
vertex 56.4912212366709 27.3478330649749 20.0
vertex 70.0457345236655 36.8388054452921 10.0
vertex 60.5869814581159 30.2157152467301 30.0000000000001
endloop
endfacet
facet normal 0.573576436351046 -0.819152044288992 1.59453200828408e-15
outer loop
vertex 56.4912212366709 27.3478330649749 20.0
vertex 60.5869814581159 30.2157152467301 30.0000000000001
vertex 56.4912212366709 27.3478330649749 30.0000000000001
endloop
endfacet
facet normal 0.573576436351048 -0.81915204428899 2.89715752163643e-16
outer loop
vertex 17.4344679562109 1.97397653778353e-14 2.18545576437344e-14
vertex 5.73576436351041 -8.19152044288993 20.0
vertex 5.73576436351047 -8.19152044288995 1.30421623857722e-14
endloop
endfacet
facet normal 0.573576436351048 -0.81915204428899 2.89715752163643e-16
outer loop
vertex 5.73576436351041 -8.19152044288993 20.0
vertex 17.4344679562109 1.97397653778353e-14 2.18545576437344e-14
vertex 17.434467956211 -2.69879604775092e-16 20.0
endloop
endfacet
facet normal -4.0872045391375e-16 -1.99709247321712e-16 1.0
outer loop
vertex 74.7751110564403 40.1503505445732 20.0
vertex 80.4472599218703 56.3297778256095 20.0
vertex 71.6221231676504 50.1503505445732 20.0
endloop
endfacet
facet normal -4.0872045391375e-16 -1.99709247321712e-16 1.0
outer loop
vertex 80.4472599218703 56.3297778256095 20.0
vertex 74.7751110564403 40.1503505445732 20.0
vertex 86.1830242853808 48.1382573827195 20.0
endloop
endfacet
facet normal -0.835440062922777 -0.263413240020532 -0.482341545220263
outer loop
vertex 87.434467956211 2.81343962109178e-15 20.0
vertex 90.0549827593174 10.0 10.0
vertex 93.2079706481072 8.5652539530346e-16 10.0
endloop
endfacet
facet normal -0.835440062922777 -0.263413240020532 -0.482341545220263
outer loop
vertex 90.0549827593174 10.0 10.0
vertex 87.434467956211 2.81343962109178e-15 20.0
vertex 84.2814800674211 10.0 20.0
endloop
endfacet
facet normal -1.13405337213267e-16 -1.0 -2.27385432613054e-16
outer loop
vertex 98.2079706481072 0.0 20.0
vertex 93.2079706481072 8.5652539530346e-16 10.0
vertex 98.2079706481072 8.5652539530346e-16 10.0
endloop
endfacet
facet normal -1.13405337213267e-16 -1.0 -2.27385432613054e-16
outer loop
vertex 93.2079706481072 8.5652539530346e-16 10.0
vertex 98.2079706481072 0.0 20.0
vertex 87.434467956211 2.81343962109178e-15 20.0
endloop
endfacet
facet normal -1.13405337213267e-16 -1.0 -2.27385432613054e-16
outer loop
vertex 71.478979925344 1.27408640951473e-15 27.6357159290187
vertex 62.2344746836286 2.06667563818263e-16 20.0
vertex 81.6609652643147 -4.39753851493619e-16 10.0
endloop
endfacet
facet normal -1.13405337213267e-16 -1.0 -2.27385432613054e-16
outer loop
vertex 62.2344746836286 2.06667563818263e-16 20.0
vertex 71.478979925344 1.27408640951473e-15 27.6357159290187
vertex 62.2344746836286 2.06667563818263e-16 30.0000000000001
endloop
endfacet
facet normal -1.13405337213267e-16 -1.0 -2.27385432613054e-16
outer loop
vertex 62.2344746836286 2.06667563818263e-16 30.0000000000001
vertex 71.478979925344 1.27408640951473e-15 27.6357159290187
vertex 70.1139598805222 8.5525764264943e-16 30.0000000000001
endloop
endfacet
facet normal -1.13405337213267e-16 -1.0 -2.27385432613054e-16
outer loop
vertex 98.2079706481072 8.5652539530346e-16 10.0
vertex 17.4344679562109 1.97397653778353e-14 2.18545576437344e-14
vertex 98.2079706481072 0.0 0.0
endloop
endfacet
facet normal -1.13405337213267e-16 -1.0 -2.27385432613054e-16
outer loop
vertex 17.4344679562109 1.97397653778353e-14 2.18545576437344e-14
vertex 98.2079706481072 8.5652539530346e-16 10.0
vertex 93.2079706481072 8.5652539530346e-16 10.0
endloop
endfacet
facet normal -1.13405337213267e-16 -1.0 -2.27385432613054e-16
outer loop
vertex 17.4344679562109 1.97397653778353e-14 2.18545576437344e-14
vertex 93.2079706481072 8.5652539530346e-16 10.0
vertex 81.6609652643147 -4.39753851493619e-16 10.0
endloop
endfacet
facet normal -1.13405337213267e-16 -1.0 -2.27385432613054e-16
outer loop
vertex 17.4344679562109 1.97397653778353e-14 2.18545576437344e-14
vertex 81.6609652643147 -4.39753851493619e-16 10.0
vertex 17.434467956211 -2.69879604775092e-16 20.0
endloop
endfacet
facet normal -1.13405337213267e-16 -1.0 -2.27385432613054e-16
outer loop
vertex 17.434467956211 -2.69879604775092e-16 20.0
vertex 81.6609652643147 -4.39753851493619e-16 10.0
vertex 62.2344746836286 2.06667563818263e-16 20.0
endloop
endfacet
facet normal 1.0 0.0 0.0
outer loop
vertex 98.2079706481072 10.0 0.0
vertex 98.2079706481072 8.5652539530346e-16 10.0
vertex 98.2079706481072 0.0 0.0
endloop
endfacet
facet normal 1.0 0.0 0.0
outer loop
vertex 98.2079706481072 8.5652539530346e-16 10.0
vertex 98.2079706481072 10.0 20.0
vertex 98.2079706481072 0.0 20.0
endloop
endfacet
facet normal 1.0 0.0 0.0
outer loop
vertex 98.2079706481072 10.0 20.0
vertex 98.2079706481072 8.5652539530346e-16 10.0
vertex 98.2079706481072 10.0 0.0
endloop
endfacet
facet normal 2.68549826019312e-17 1.0 -1.37919988083469e-16
outer loop
vertex 31.7159480236321 10.0 20.0
vertex 78.5079773755249 10.0 10.0
vertex 31.7159480236322 10.0 3.26056798584483e-14
endloop
endfacet
facet normal 2.68549826019312e-17 1.0 -1.37919988083469e-16
outer loop
vertex 78.5079773755249 10.0 10.0
vertex 31.7159480236321 10.0 20.0
vertex 62.2344746836286 10.0 20.0
endloop
endfacet
facet normal 2.68549826019312e-17 1.0 -1.37919988083469e-16
outer loop
vertex 78.5079773755249 10.0 10.0
vertex 62.2344746836286 10.0 20.0
vertex 68.7556295842887 10.0 26.8915618675032
endloop
endfacet
facet normal 2.68549826019312e-17 1.0 -1.37919988083469e-16
outer loop
vertex 68.7556295842887 10.0 26.8915618675032
vertex 62.2344746836286 10.0 20.0
vertex 62.2344746836286 10.0 30.0000000000001
endloop
endfacet
facet normal 2.68549826019312e-17 1.0 -1.37919988083469e-16
outer loop
vertex 68.7556295842887 10.0 26.8915618675032
vertex 62.2344746836286 10.0 30.0000000000001
vertex 66.9609719917323 10.0 30.0000000000001
endloop
endfacet
facet normal 2.68549826019312e-17 1.0 -1.37919988083469e-16
outer loop
vertex 98.2079706481072 10.0 0.0
vertex 90.0549827593174 10.0 10.0
vertex 98.2079706481072 10.0 20.0
endloop
endfacet
facet normal 2.68549826019312e-17 1.0 -1.37919988083469e-16
outer loop
vertex 90.0549827593174 10.0 10.0
vertex 98.2079706481072 10.0 0.0
vertex 31.7159480236322 10.0 3.26056798584483e-14
endloop
endfacet
facet normal 2.68549826019312e-17 1.0 -1.37919988083469e-16
outer loop
vertex 90.0549827593174 10.0 10.0
vertex 31.7159480236322 10.0 3.26056798584483e-14
vertex 78.5079773755249 10.0 10.0
endloop
endfacet
facet normal 2.68549826019312e-17 1.0 -1.37919988083469e-16
outer loop
vertex 98.2079706481072 10.0 20.0
vertex 90.0549827593174 10.0 10.0
vertex 84.2814800674211 10.0 20.0
endloop
endfacet
facet normal 0.0 0.0 1.0
outer loop
vertex 87.434467956211 2.81343962109178e-15 20.0
vertex 98.2079706481072 10.0 20.0
vertex 84.2814800674211 10.0 20.0
endloop
endfacet
facet normal 0.0 0.0 1.0
outer loop
vertex 98.2079706481072 10.0 20.0
vertex 87.434467956211 2.81343962109178e-15 20.0
vertex 98.2079706481072 0.0 20.0
endloop
endfacet
facet normal -7.33990152052616e-17 1.2231602901298e-15 -1.0
outer loop
vertex 14.2814800674211 9.99999999999996 1.357090610125e-14
vertex 0.0 0.0 -1.82596011786352e-19
vertex 0.0 10.0 0.0
endloop
endfacet
facet normal -7.33990152052616e-17 1.2231602901298e-15 -1.0
outer loop
vertex 0.0 0.0 -1.82596011786352e-19
vertex 14.2814800674211 9.99999999999996 1.357090610125e-14
vertex 5.73576436351047 -8.19152044288995 1.30421623857722e-14
endloop
endfacet
facet normal -7.33990152052616e-17 1.2231602901298e-15 -1.0
outer loop
vertex 5.73576436351047 -8.19152044288995 1.30421623857722e-14
vertex 14.2814800674211 9.99999999999996 1.357090610125e-14
vertex 17.4344679562109 1.97397653778353e-14 2.18545576437344e-14
endloop
endfacet
facet normal -7.33990152052616e-17 1.2231602901298e-15 -1.0
outer loop
vertex 17.4344679562109 1.97397653778353e-14 2.18545576437344e-14
vertex 14.2814800674211 9.99999999999996 1.357090610125e-14
vertex 80.4472599218703 56.3297778256095 6.48590465025899e-14
endloop
endfacet
facet normal -7.33990152052616e-17 1.2231602901298e-15 -1.0
outer loop
vertex 17.4344679562109 1.97397653778353e-14 2.18545576437344e-14
vertex 80.4472599218703 56.3297778256095 6.48590465025899e-14
vertex 31.7159480236322 10.0 3.26056798584483e-14
endloop
endfacet
facet normal -7.33990152052616e-17 1.2231602901298e-15 -1.0
outer loop
vertex 31.7159480236322 10.0 3.26056798584483e-14
vertex 80.4472599218703 56.3297778256095 6.48590465025899e-14
vertex 86.1830242853808 48.1382573827195 7.79013914843739e-14
endloop
endfacet
facet normal -7.33990152052616e-17 1.2231602901298e-15 -1.0
outer loop
vertex 31.7159480236322 10.0 3.26056798584483e-14
vertex 98.2079706481072 0.0 0.0
vertex 17.4344679562109 1.97397653778353e-14 2.18545576437344e-14
endloop
endfacet
facet normal -7.33990152052616e-17 1.2231602901298e-15 -1.0
outer loop
vertex 98.2079706481072 0.0 0.0
vertex 31.7159480236322 10.0 3.26056798584483e-14
vertex 98.2079706481072 10.0 0.0
endloop
endfacet
facet normal 0.819152044288991 0.573576436351047 1.57156344553963e-15
outer loop
vertex 86.1830242853808 48.1382573827195 7.79013914843739e-14
vertex 80.4472599218703 56.3297778256095 20.0
vertex 86.1830242853808 48.1382573827195 20.0
endloop
endfacet
facet normal 0.819152044288991 0.573576436351047 1.57156344553963e-15
outer loop
vertex 80.4472599218703 56.3297778256095 20.0
vertex 86.1830242853808 48.1382573827195 7.79013914843739e-14
vertex 80.4472599218703 56.3297778256095 6.48590465025899e-14
endloop
endfacet
facet normal -1.0 5.4049357582168e-16 -2.37934671964979e-16
outer loop
vertex 0.0 10.0 20.0
vertex 0.0 0.0 -1.82596011786352e-19
vertex -9.51738687859915e-15 -1.40998324127395e-14 20.0
endloop
endfacet
facet normal -1.0 5.4049357582168e-16 -2.37934671964979e-16
outer loop
vertex 0.0 0.0 -1.82596011786352e-19
vertex 0.0 10.0 20.0
vertex 0.0 10.0 0.0
endloop
endfacet
facet normal -0.819152044288993 -0.573576436351044 -1.25411615969587e-15
outer loop
vertex 5.73576436351041 -8.19152044288993 20.0
vertex 0.0 0.0 -1.82596011786352e-19
vertex 5.73576436351047 -8.19152044288995 1.30421623857722e-14
endloop
endfacet
facet normal -0.819152044288993 -0.573576436351044 -1.25411615969587e-15
outer loop
vertex 0.0 0.0 -1.82596011786352e-19
vertex 5.73576436351041 -8.19152044288993 20.0
vertex -9.51738687859915e-15 -1.40998324127395e-14 20.0
endloop
endfacet
facet normal -1.0 0.0 0.0
outer loop
vertex 62.2344746836286 10.0 30.0000000000001
vertex 62.2344746836286 2.06667563818263e-16 20.0
vertex 62.2344746836286 2.06667563818263e-16 30.0000000000001
endloop
endfacet
facet normal -1.0 0.0 0.0
outer loop
vertex 62.2344746836286 2.06667563818263e-16 20.0
vertex 62.2344746836286 10.0 30.0000000000001
vertex 62.2344746836286 10.0 20.0
endloop
endfacet
facet normal -0.835440062922776 -0.263413240020529 -0.482341545220267
outer loop
vertex 71.6221231676504 50.1503505445732 20.0
vertex 79.5044875892151 43.4618956438543 10.0
vertex 74.7751110564403 40.1503505445732 20.0
endloop
endfacet
facet normal -0.835440062922776 -0.263413240020529 -0.482341545220267
outer loop
vertex 79.5044875892151 43.4618956438543 10.0
vertex 71.6221231676504 50.1503505445732 20.0
vertex 76.3514997004254 53.4618956438542 10.0000000000001
endloop
endfacet
facet normal -5.72909673900947e-32 -8.12350892843522e-33 1.0
outer loop
vertex 81.6609652643147 -4.39753851493619e-16 10.0
vertex 90.0549827593174 10.0 10.0
vertex 78.5079773755249 10.0 10.0
endloop
endfacet
facet normal -5.72909673900947e-32 -8.12350892843522e-33 1.0
outer loop
vertex 90.0549827593174 10.0 10.0
vertex 81.6609652643147 -4.39753851493619e-16 10.0
vertex 93.2079706481072 8.5652539530346e-16 10.0
endloop
endfacet
facet normal 0.835440062922777 0.263413240020535 0.482341545220264
outer loop
vertex 70.0457345236655 36.8388054452921 10.0
vertex 57.433993569326 40.21571524673 30.0000000000001
vertex 60.5869814581159 30.2157152467301 30.0000000000001
endloop
endfacet
facet normal 0.835440062922777 0.263413240020535 0.482341545220264
outer loop
vertex 57.433993569326 40.21571524673 30.0000000000001
vertex 70.0457345236655 36.8388054452921 10.0
vertex 66.8927466348756 46.8388054452921 10.0
endloop
endfacet
facet normal 1.67837752029195e-15 1.0 -9.86988268891766e-16
outer loop
vertex 0.0 10.0 20.0
vertex 14.2814800674211 9.99999999999996 1.357090610125e-14
vertex 0.0 10.0 0.0
endloop
endfacet
facet normal 1.67837752029195e-15 1.0 -9.86988268891766e-16
outer loop
vertex 14.2814800674211 9.99999999999996 1.357090610125e-14
vertex 0.0 10.0 20.0
vertex 14.2814800674211 10.0 20.0
endloop
endfacet
facet normal -5.68572407346316e-17 -9.18282044500963e-16 1.0
outer loop
vertex 62.2344746836286 2.06667563818263e-16 20.0
vertex 31.7159480236321 10.0 20.0
vertex 17.434467956211 -2.69879604775092e-16 20.0
endloop
endfacet
facet normal -5.68572407346316e-17 -9.18282044500963e-16 1.0
outer loop
vertex 31.7159480236321 10.0 20.0
vertex 62.2344746836286 2.06667563818263e-16 20.0
vertex 62.2344746836286 10.0 20.0
endloop
endfacet
facet normal -5.68572407346316e-17 -9.18282044500963e-16 1.0
outer loop
vertex 5.73576436351041 -8.19152044288993 20.0
vertex 0.0 10.0 20.0
vertex -9.51738687859915e-15 -1.40998324127395e-14 20.0
endloop
endfacet
facet normal -5.68572407346316e-17 -9.18282044500963e-16 1.0
outer loop
vertex 0.0 10.0 20.0
vertex 5.73576436351041 -8.19152044288993 20.0
vertex 14.2814800674211 10.0 20.0
endloop
endfacet
facet normal -5.68572407346316e-17 -9.18282044500963e-16 1.0
outer loop
vertex 14.2814800674211 10.0 20.0
vertex 5.73576436351041 -8.19152044288993 20.0
vertex 17.434467956211 -2.69879604775092e-16 20.0
endloop
endfacet
facet normal -5.68572407346316e-17 -9.18282044500963e-16 1.0
outer loop
vertex 14.2814800674211 10.0 20.0
vertex 17.434467956211 -2.69879604775092e-16 20.0
vertex 50.7554568731605 35.5393535078648 20.0
endloop
endfacet
facet normal -5.68572407346316e-17 -9.18282044500963e-16 1.0
outer loop
vertex 50.7554568731605 35.5393535078648 20.0
vertex 17.434467956211 -2.69879604775092e-16 20.0
vertex 31.7159480236321 10.0 20.0
endloop
endfacet
facet normal -5.68572407346316e-17 -9.18282044500963e-16 1.0
outer loop
vertex 50.7554568731605 35.5393535078648 20.0
vertex 31.7159480236321 10.0 20.0
vertex 56.4912212366709 27.3478330649749 20.0
endloop
endfacet
facet normal -2.95494520380205e-16 -4.54415592947245e-16 1.0
outer loop
vertex 56.4912212366709 27.3478330649749 30.0000000000001
vertex 57.433993569326 40.21571524673 30.0000000000001
vertex 50.7554568731605 35.5393535078648 30.0000000000001
endloop
endfacet
facet normal -2.95494520380205e-16 -4.54415592947245e-16 1.0
outer loop
vertex 57.433993569326 40.21571524673 30.0000000000001
vertex 56.4912212366709 27.3478330649749 30.0000000000001
vertex 60.5869814581159 30.2157152467301 30.0000000000001
endloop
endfacet
facet normal 0.835440062922777 0.263413240020534 0.482341545220263
outer loop
vertex 78.5079773755249 10.0 10.0
vertex 71.478979925344 1.27408640951473e-15 27.6357159290187
vertex 81.6609652643147 -4.39753851493619e-16 10.0
endloop
endfacet
facet normal 0.835440062922777 0.263413240020534 0.482341545220263
outer loop
vertex 71.478979925344 1.27408640951473e-15 27.6357159290187
vertex 66.9609719917323 10.0 30.0000000000001
vertex 70.1139598805222 8.5525764264943e-16 30.0000000000001
endloop
endfacet
facet normal 0.835440062922777 0.263413240020534 0.482341545220263
outer loop
vertex 66.9609719917323 10.0 30.0000000000001
vertex 71.478979925344 1.27408640951473e-15 27.6357159290187
vertex 78.5079773755249 10.0 10.0
endloop
endfacet
facet normal 0.835440062922777 0.263413240020534 0.482341545220263
outer loop
vertex 66.9609719917323 10.0 30.0000000000001
vertex 78.5079773755249 10.0 10.0
vertex 68.7556295842887 10.0 26.8915618675032
endloop
endfacet
facet normal -0.573576436351046 0.819152044288991 2.2180462953773e-15
outer loop
vertex 14.2814800674211 10.0 20.0
vertex 80.4472599218703 56.3297778256095 6.48590465025899e-14
vertex 14.2814800674211 9.99999999999996 1.357090610125e-14
endloop
endfacet
facet normal -0.573576436351046 0.819152044288991 2.2180462953773e-15
outer loop
vertex 80.4472599218703 56.3297778256095 6.48590465025899e-14
vertex 14.2814800674211 10.0 20.0
vertex 66.8927466348756 46.8388054452921 10.0
endloop
endfacet
facet normal -0.573576436351046 0.819152044288991 2.2180462953773e-15
outer loop
vertex 66.8927466348756 46.8388054452921 10.0
vertex 14.2814800674211 10.0 20.0
vertex 50.7554568731605 35.5393535078648 20.0
endloop
endfacet
facet normal -0.573576436351046 0.819152044288991 2.2180462953773e-15
outer loop
vertex 66.8927466348756 46.8388054452921 10.0
vertex 50.7554568731605 35.5393535078648 20.0
vertex 57.433993569326 40.21571524673 30.0000000000001
endloop
endfacet
facet normal -0.573576436351046 0.819152044288991 2.2180462953773e-15
outer loop
vertex 57.433993569326 40.21571524673 30.0000000000001
vertex 50.7554568731605 35.5393535078648 20.0
vertex 50.7554568731605 35.5393535078648 30.0000000000001
endloop
endfacet
facet normal -0.573576436351046 0.819152044288991 2.2180462953773e-15
outer loop
vertex 80.4472599218703 56.3297778256095 6.48590465025899e-14
vertex 76.3514997004254 53.4618956438542 10.0000000000001
vertex 80.4472599218703 56.3297778256095 20.0
endloop
endfacet
facet normal -0.573576436351046 0.819152044288991 2.2180462953773e-15
outer loop
vertex 76.3514997004254 53.4618956438542 10.0000000000001
vertex 80.4472599218703 56.3297778256095 6.48590465025899e-14
vertex 66.8927466348756 46.8388054452921 10.0
endloop
endfacet
facet normal -0.573576436351046 0.819152044288991 2.2180462953773e-15
outer loop
vertex 80.4472599218703 56.3297778256095 20.0
vertex 76.3514997004254 53.4618956438542 10.0000000000001
vertex 71.6221231676504 50.1503505445732 20.0
endloop
endfacet
facet normal -0.819152044288994 -0.573576436351043 -2.6056279466831e-31
outer loop
vertex 50.7554568731605 35.5393535078648 30.0000000000001
vertex 56.4912212366709 27.3478330649749 20.0
vertex 56.4912212366709 27.3478330649749 30.0000000000001
endloop
endfacet
facet normal -0.819152044288994 -0.573576436351043 -2.6056279466831e-31
outer loop
vertex 56.4912212366709 27.3478330649749 20.0
vertex 50.7554568731605 35.5393535078648 30.0000000000001
vertex 50.7554568731605 35.5393535078648 20.0
endloop
endfacet
facet normal 0.0 0.0 -1.0
outer loop
vertex 66.9609719917323 10.0 30.0000000000001
vertex 62.2344746836286 2.06667563818263e-16 30.0000000000001
vertex 62.2344746836286 10.0 30.0000000000001
endloop
endfacet
facet normal 0.0 0.0 -1.0
outer loop
vertex 62.2344746836286 2.06667563818263e-16 30.0000000000001
vertex 66.9609719917323 10.0 30.0000000000001
vertex 70.1139598805222 8.5525764264943e-16 30.0000000000001
endloop
endfacet
endsolid ipadstandSolid
