solid ipadstand
facet normal -6.14411722260852e-16 -1.40998324127395e-16 1.0
outer loop
vertex 61.9609719917323 15.0 20.0
vertex -1.35891298214119e-14 25.0 20.0
vertex -3.38395977905748e-14 15.0 20.0
endloop
endfacet
facet normal -6.14411722260852e-16 -1.40998324127395e-16 1.0
outer loop
vertex -1.35891298214119e-14 25.0 20.0
vertex 61.9609719917323 15.0 20.0
vertex 61.9609719917323 25.0 20.0
endloop
endfacet
facet normal 0.835440062922777 -0.263413240020531 0.482341545220265
outer loop
vertex 81.6609652643146 25.0 10.0
vertex 66.9609719917323 15.0 30.0
vertex 78.5079773755248 15.0 10.0
endloop
endfacet
facet normal 0.835440062922777 -0.263413240020531 0.482341545220265
outer loop
vertex 66.9609719917323 15.0 30.0
vertex 81.6609652643146 25.0 10.0
vertex 70.113959880522 25.0 30.0
endloop
endfacet
facet normal -0.835440062922775 0.263413240020534 -0.482341545220268
outer loop
vertex 87.4344679562108 25.0 20.0
vertex 90.0549827593173 15.0 10.0
vertex 84.281480067421 15.0 20.0
endloop
endfacet
facet normal -0.835440062922775 0.263413240020534 -0.482341545220268
outer loop
vertex 90.0549827593173 15.0 10.0
vertex 87.4344679562108 25.0 20.0
vertex 93.2079706481072 25.0000000000001 10.0
endloop
endfacet
facet normal 6.46986530275688e-16 2.19000902965249e-16 -1.0
outer loop
vertex 17.4344679562109 25.0000000000001 10.5
vertex 14.2814800674212 15.0 10.5
vertex -5.45272363890606e-15 25.0 10.5
endloop
endfacet
facet normal 6.46986530275688e-16 2.19000902965249e-16 -1.0
outer loop
vertex 14.2814800674212 15.0 10.5
vertex 17.4344679562109 25.0000000000001 10.5
vertex 31.7159480236321 15.0 10.5
endloop
endfacet
facet normal -5.99107972376055e-16 -1.87547639205833e-16 1.0
outer loop
vertex 98.2079706481072 15.0 20.0
vertex 87.4344679562108 25.0 20.0
vertex 84.281480067421 15.0 20.0
endloop
endfacet
facet normal -5.99107972376055e-16 -1.87547639205833e-16 1.0
outer loop
vertex 87.4344679562108 25.0 20.0
vertex 98.2079706481072 15.0 20.0
vertex 98.2079706481072 25.0 20.0
endloop
endfacet
facet normal -2.93555700999027e-16 -1.0 5.8450874039563e-16
outer loop
vertex 98.2079706481072 15.0 6.79022347406018e-14
vertex 90.0549827593173 15.0 10.0
vertex 78.5079773755248 15.0 10.0
endloop
endfacet
facet normal -2.93555700999027e-16 -1.0 5.8450874039563e-16
outer loop
vertex 90.0549827593173 15.0 10.0
vertex 98.2079706481072 15.0 6.79022347406018e-14
vertex 98.2079706481072 15.0 20.0
endloop
endfacet
facet normal -2.93555700999027e-16 -1.0 5.8450874039563e-16
outer loop
vertex 90.0549827593173 15.0 10.0
vertex 98.2079706481072 15.0 20.0
vertex 84.281480067421 15.0 20.0
endloop
endfacet
facet normal -2.93555700999027e-16 -1.0 5.8450874039563e-16
outer loop
vertex 98.2079706481072 15.0 6.79022347406018e-14
vertex 31.7159480236321 15.0 10.5
vertex 31.7159480236322 15.0 2.05197911662137e-14
endloop
endfacet
facet normal -2.93555700999027e-16 -1.0 5.8450874039563e-16
outer loop
vertex 31.7159480236321 15.0 10.5
vertex 98.2079706481072 15.0 6.79022347406018e-14
vertex 78.5079773755248 15.0 10.0
endloop
endfacet
facet normal -2.93555700999027e-16 -1.0 5.8450874039563e-16
outer loop
vertex 31.7159480236321 15.0 10.5
vertex 78.5079773755248 15.0 10.0
vertex 61.9609719917323 15.0 20.0
endloop
endfacet
facet normal -2.93555700999027e-16 -1.0 5.8450874039563e-16
outer loop
vertex 61.9609719917323 15.0 20.0
vertex 78.5079773755248 15.0 10.0
vertex 66.9609719917323 15.0 30.0
endloop
endfacet
facet normal -2.93555700999027e-16 -1.0 5.8450874039563e-16
outer loop
vertex 31.7159480236321 15.0 10.5
vertex 61.9609719917323 15.0 20.0
vertex -3.38395977905748e-14 15.0 20.0
endloop
endfacet
facet normal -2.93555700999027e-16 -1.0 5.8450874039563e-16
outer loop
vertex 61.9609719917323 15.0 20.0
vertex 66.9609719917323 15.0 30.0
vertex 61.9609719917323 15.0 30.0
endloop
endfacet
facet normal -2.93555700999027e-16 -1.0 5.8450874039563e-16
outer loop
vertex 14.2814800674211 15.0 9.23992523602213e-15
vertex -3.38395977905748e-14 15.0 20.0
vertex 0.0 15.0 0.0
endloop
endfacet
facet normal -2.93555700999027e-16 -1.0 5.8450874039563e-16
outer loop
vertex -3.38395977905748e-14 15.0 20.0
vertex 14.2814800674211 15.0 9.23992523602213e-15
vertex 14.2814800674212 15.0 10.5
endloop
endfacet
facet normal -2.93555700999027e-16 -1.0 5.8450874039563e-16
outer loop
vertex -3.38395977905748e-14 15.0 20.0
vertex 14.2814800674212 15.0 10.5
vertex 31.7159480236321 15.0 10.5
endloop
endfacet
facet normal -1.0 1.09422621994214e-15 -1.19708156278492e-15
outer loop
vertex -3.38395977905748e-14 15.0 20.0
vertex 5.10702591327576e-16 25.0 -9.2399252360222e-15
vertex 0.0 15.0 0.0
endloop
endfacet
facet normal -1.0 1.09422621994214e-15 -1.19708156278492e-15
outer loop
vertex 5.10702591327576e-16 25.0 -9.2399252360222e-15
vertex -3.38395977905748e-14 15.0 20.0
vertex -1.35891298214119e-14 25.0 20.0
endloop
endfacet
facet normal -1.0 1.09422621994214e-15 -1.19708156278492e-15
outer loop
vertex 5.10702591327576e-16 25.0 -9.2399252360222e-15
vertex -1.35891298214119e-14 25.0 20.0
vertex -5.45272363890606e-15 25.0 10.5
endloop
endfacet
facet normal 6.78804957505923e-16 -7.60273487761552e-16 -1.0
outer loop
vertex 98.2079706481072 25.0000000000001 5.86623095045796e-14
vertex 31.7159480236322 15.0 2.05197911662137e-14
vertex 17.4344679562109 25.0000000000001 4.85990717671721e-15
endloop
endfacet
facet normal 6.78804957505923e-16 -7.60273487761552e-16 -1.0
outer loop
vertex 31.7159480236322 15.0 2.05197911662137e-14
vertex 98.2079706481072 25.0000000000001 5.86623095045796e-14
vertex 98.2079706481072 15.0 6.79022347406018e-14
endloop
endfacet
facet normal 6.46986530275685e-16 -9.23992523602218e-16 -1.0
outer loop
vertex 14.2814800674211 15.0 9.23992523602213e-15
vertex 0.0 15.0 0.0
vertex 5.10702591327576e-16 25.0 -9.2399252360222e-15
endloop
endfacet
facet normal -0.573576436351045 -0.819152044288992 -4.92161758337395e-16
outer loop
vertex 31.7159480236322 15.0 2.05197911662137e-14
vertex 17.4344679562109 25.0000000000001 10.5
vertex 17.4344679562109 25.0000000000001 4.85990717671721e-15
endloop
endfacet
facet normal -0.573576436351045 -0.819152044288992 -4.92161758337395e-16
outer loop
vertex 17.4344679562109 25.0000000000001 10.5
vertex 31.7159480236322 15.0 2.05197911662137e-14
vertex 31.7159480236321 15.0 10.5
endloop
endfacet
facet normal 0.573576436351046 0.819152044288992 -1.59711075499464e-15
outer loop
vertex -5.45272363890606e-15 25.0 10.5
vertex 14.2814800674211 15.0 9.23992523602213e-15
vertex 5.10702591327576e-16 25.0 -9.2399252360222e-15
endloop
endfacet
facet normal 0.573576436351046 0.819152044288992 -1.59711075499464e-15
outer loop
vertex 14.2814800674211 15.0 9.23992523602213e-15
vertex -5.45272363890606e-15 25.0 10.5
vertex 14.2814800674212 15.0 10.5
endloop
endfacet
facet normal -5.0269701687067e-16 -7.66740064468173e-16 1.0
outer loop
vertex 66.9609719917323 15.0 30.0
vertex 61.9609719917323 25.0 30.0
vertex 61.9609719917323 15.0 30.0
endloop
endfacet
facet normal -5.0269701687067e-16 -7.66740064468173e-16 1.0
outer loop
vertex 61.9609719917323 25.0 30.0
vertex 66.9609719917323 15.0 30.0
vertex 70.113959880522 25.0 30.0
endloop
endfacet
facet normal -8.54756914097493e-16 -4.35487800836095e-16 1.0
outer loop
vertex 90.0549827593173 15.0 10.0
vertex 81.6609652643146 25.0 10.0
vertex 78.5079773755248 15.0 10.0
endloop
endfacet
facet normal -8.54756914097493e-16 -4.35487800836095e-16 1.0
outer loop
vertex 81.6609652643146 25.0 10.0
vertex 90.0549827593173 15.0 10.0
vertex 93.2079706481072 25.0000000000001 10.0
endloop
endfacet
facet normal -1.07697372049014e-16 1.0 2.36417591591683e-15
outer loop
vertex -1.35891298214119e-14 25.0 20.0
vertex 17.4344679562109 25.0000000000001 10.5
vertex -5.45272363890606e-15 25.0 10.5
endloop
endfacet
facet normal -1.07697372049014e-16 1.0 2.36417591591683e-15
outer loop
vertex 17.4344679562109 25.0000000000001 10.5
vertex 98.2079706481072 25.0000000000001 5.86623095045796e-14
vertex 17.4344679562109 25.0000000000001 4.85990717671721e-15
endloop
endfacet
facet normal -1.07697372049014e-16 1.0 2.36417591591683e-15
outer loop
vertex 98.2079706481072 25.0000000000001 5.86623095045796e-14
vertex 17.4344679562109 25.0000000000001 10.5
vertex 81.6609652643146 25.0 10.0
endloop
endfacet
facet normal -1.07697372049014e-16 1.0 2.36417591591683e-15
outer loop
vertex 81.6609652643146 25.0 10.0
vertex 17.4344679562109 25.0000000000001 10.5
vertex 61.9609719917323 25.0 20.0
endloop
endfacet
facet normal -1.07697372049014e-16 1.0 2.36417591591683e-15
outer loop
vertex 81.6609652643146 25.0 10.0
vertex 61.9609719917323 25.0 20.0
vertex 70.113959880522 25.0 30.0
endloop
endfacet
facet normal -1.07697372049014e-16 1.0 2.36417591591683e-15
outer loop
vertex 61.9609719917323 25.0 20.0
vertex 17.4344679562109 25.0000000000001 10.5
vertex -1.35891298214119e-14 25.0 20.0
endloop
endfacet
facet normal -1.07697372049014e-16 1.0 2.36417591591683e-15
outer loop
vertex 70.113959880522 25.0 30.0
vertex 61.9609719917323 25.0 20.0
vertex 61.9609719917323 25.0 30.0
endloop
endfacet
facet normal -1.07697372049014e-16 1.0 2.36417591591683e-15
outer loop
vertex 98.2079706481072 25.0000000000001 5.86623095045796e-14
vertex 93.2079706481072 25.0000000000001 10.0
vertex 98.2079706481072 25.0 20.0
endloop
endfacet
facet normal -1.07697372049014e-16 1.0 2.36417591591683e-15
outer loop
vertex 93.2079706481072 25.0000000000001 10.0
vertex 98.2079706481072 25.0000000000001 5.86623095045796e-14
vertex 81.6609652643146 25.0 10.0
endloop
endfacet
facet normal -1.07697372049014e-16 1.0 2.36417591591683e-15
outer loop
vertex 98.2079706481072 25.0 20.0
vertex 93.2079706481072 25.0000000000001 10.0
vertex 87.4344679562108 25.0 20.0
endloop
endfacet
facet normal -1.0 0.0 0.0
outer loop
vertex 61.9609719917323 15.0 30.0
vertex 61.9609719917323 25.0 20.0
vertex 61.9609719917323 15.0 20.0
endloop
endfacet
facet normal -1.0 0.0 0.0
outer loop
vertex 61.9609719917323 25.0 20.0
vertex 61.9609719917323 15.0 30.0
vertex 61.9609719917323 25.0 30.0
endloop
endfacet
facet normal 1.0 2.42542434362153e-31 1.12798659301916e-15
outer loop
vertex 98.2079706481072 25.0000000000001 5.86623095045796e-14
vertex 98.2079706481072 15.0 20.0
vertex 98.2079706481072 15.0 6.79022347406018e-14
endloop
endfacet
facet normal 1.0 2.42542434362153e-31 1.12798659301916e-15
outer loop
vertex 98.2079706481072 15.0 20.0
vertex 98.2079706481072 25.0000000000001 5.86623095045796e-14
vertex 98.2079706481072 25.0 20.0
endloop
endfacet
endsolid ipadstand
