solid Center Post for Wall Thing
facet normal 0.0 0.0 -1.0
  outer loop
    vertex 124.3962131292457 93.21588459326621 0.0
    vertex 124.3605526804984 90.55242964726352 0.0
    vertex 124.20305765694566 91.88650451383619 0.0
  endloop
endfacet
facet normal 0.0 0.0 -1.0
  outer loop
    vertex 124.3605526804984 90.55242964726352 0.0
    vertex 124.3962131292457 93.21588459326621 0.0
    vertex 124.8579651743216 89.30457499104214 0.0
  endloop
endfacet
facet normal 0.0 0.0 -1.0
  outer loop
    vertex 124.8579651743216 89.30457499104214 0.0
    vertex 124.3962131292457 93.21588459326621 0.0
    vertex 124.92685587116571 94.44997483004487 0.0
  endloop
endfacet
facet normal 0.0 0.0 -1.0
  outer loop
    vertex 124.8579651743216 89.30457499104214 0.0
    vertex 124.92685587116571 94.44997483004487 0.0
    vertex 125.66139729897426 88.22797977781623 0.0
  endloop
endfacet
facet normal 0.0 0.0 -1.0
  outer loop
    vertex 125.66139729897426 88.22797977781623 0.0
    vertex 124.92685587116571 94.44997483004487 0.0
    vertex 125.75882345677255 95.50467401396622 0.0
  endloop
endfacet
facet normal 0.0 0.0 -1.0
  outer loop
    vertex 125.66139729897426 88.22797977781623 0.0
    vertex 125.75882345677255 95.50467401396622 0.0
    vertex 126.71609648289562 87.39601219220941 0.0
  endloop
endfacet
facet normal 0.0 0.0 -1.0
  outer loop
    vertex 126.71609648289562 87.39601219220941 0.0
    vertex 125.75882345677255 95.50467401396622 0.0
    vertex 126.83541866999843 96.30810613861887 0.0
  endloop
endfacet
facet normal 0.0 0.0 -1.0
  outer loop
    vertex 126.71609648289562 87.39601219220941 0.0
    vertex 126.83541866999843 96.30810613861887 0.0
    vertex 127.95018671967428 86.86536945028939 0.0
  endloop
endfacet
facet normal 0.0 0.0 -1.0
  outer loop
    vertex 127.95018671967428 86.86536945028939 0.0
    vertex 126.83541866999843 96.30810613861887 0.0
    vertex 128.08327332621982 96.80551863244207 0.0
  endloop
endfacet
facet normal 0.0 0.0 -1.0
  outer loop
    vertex 127.95018671967428 86.86536945028939 0.0
    vertex 128.08327332621982 96.80551863244207 0.0
    vertex 129.2795667991043 86.67221397798936 0.0
  endloop
endfacet
facet normal 0.0 0.0 -1.0
  outer loop
    vertex 129.2795667991043 86.67221397798936 0.0
    vertex 128.08327332621982 96.80551863244207 0.0
    vertex 129.4173481927925 96.96301365599481 0.0
  endloop
endfacet
facet normal 0.0 0.0 -1.0
  outer loop
    vertex 129.2795667991043 86.67221397798936 0.0
    vertex 129.4173481927925 96.96301365599481 0.0
    vertex 130.61364166567697 86.8297090015421 0.0
  endloop
endfacet
facet normal 0.0 0.0 -1.0
  outer loop
    vertex 130.61364166567697 86.8297090015421 0.0
    vertex 129.4173481927925 96.96301365599481 0.0
    vertex 130.7467282722225 96.7698581836948 0.0
  endloop
endfacet
facet normal 0.0 0.0 -1.0
  outer loop
    vertex 130.61364166567697 86.8297090015421 0.0
    vertex 130.7467282722225 96.7698581836948 0.0
    vertex 131.86149632189836 87.32712149536532 0.0
  endloop
endfacet
facet normal 0.0 0.0 -1.0
  outer loop
    vertex 131.86149632189836 87.32712149536532 0.0
    vertex 130.7467282722225 96.7698581836948 0.0
    vertex 131.98081850900115 96.23921544177476 0.0
  endloop
endfacet
facet normal 0.0 0.0 -1.0
  outer loop
    vertex 131.86149632189836 87.32712149536532 0.0
    vertex 131.98081850900115 96.23921544177476 0.0
    vertex 132.93809153512427 88.13055362001796 0.0
  endloop
endfacet
facet normal 0.0 0.0 -1.0
  outer loop
    vertex 132.93809153512427 88.13055362001796 0.0
    vertex 131.98081850900115 96.23921544177476 0.0
    vertex 133.03551769292253 95.40724785616796 0.0
  endloop
endfacet
facet normal 0.0 0.0 -1.0
  outer loop
    vertex 132.93809153512427 88.13055362001796 0.0
    vertex 133.03551769292253 95.40724785616796 0.0
    vertex 133.77005912073108 89.18525280393932 0.0
  endloop
endfacet
facet normal 0.0 0.0 -1.0
  outer loop
    vertex 133.77005912073108 89.18525280393932 0.0
    vertex 133.03551769292253 95.40724785616796 0.0
    vertex 133.83894981757518 94.33065264294206 0.0
  endloop
endfacet
facet normal 0.0 0.0 -1.0
  outer loop
    vertex 133.77005912073108 89.18525280393932 0.0
    vertex 133.83894981757518 94.33065264294206 0.0
    vertex 134.3007018626511 90.41934304071796 0.0
  endloop
endfacet
facet normal 0.0 0.0 -1.0
  outer loop
    vertex 134.3007018626511 90.41934304071796 0.0
    vertex 133.83894981757518 94.33065264294206 0.0
    vertex 134.33636231139837 93.08279798672066 0.0
  endloop
endfacet
facet normal 0.0 0.0 -1.0
  outer loop
    vertex 134.3007018626511 90.41934304071796 0.0
    vertex 134.33636231139837 93.08279798672066 0.0
    vertex 134.49385733495112 91.74872312014799 0.0
  endloop
endfacet
facet normal -0.8014320924065019 -0.5980857808550012 -2.2706289328618465e-31
  outer loop
    vertex 124.8579651743216 89.30457499104214 24.199818
    vertex 125.66139729897426 88.22797977781623 20.223768999999997
    vertex 125.66139729897426 88.22797977781623 24.199818
  endloop
endfacet
facet normal -0.8014320924065019 -0.5980857808550012 -2.2706289328618465e-31
  outer loop
    vertex 125.66139729897426 88.22797977781623 20.223768999999997
    vertex 124.8579651743216 89.30457499104214 24.199818
    vertex 125.66139729897426 88.22797977781623 0.0
  endloop
endfacet
facet normal -0.8014320924065019 -0.5980857808550012 -2.2706289328618465e-31
  outer loop
    vertex 125.66139729897426 88.22797977781623 0.0
    vertex 124.8579651743216 89.30457499104214 24.199818
    vertex 124.8579651743216 89.30457499104214 0.0
  endloop
endfacet
facet normal -0.8014320924065019 -0.5980857808550012 -2.2706289328618465e-31
  outer loop
    vertex 124.8579651743216 89.30457499104214 0.0
    vertex 124.8579651743216 89.30457499104214 24.199818
    vertex 124.8579651743216 89.30457499104214 20.223768999999997
  endloop
endfacet
facet normal -0.6193279653820452 -0.7851323909352718 8.405878083280535e-19
  outer loop
    vertex 126.71609648289562 87.39601219220941 20.223768999999997
    vertex 125.66139729897426 88.22797977781623 0.0
    vertex 126.71609648289562 87.39601219220941 0.0
  endloop
endfacet
facet normal -0.6193279653820452 -0.7851323909352718 8.405878083280535e-19
  outer loop
    vertex 125.66139729897426 88.22797977781623 0.0
    vertex 126.71609648289562 87.39601219220941 20.223768999999997
    vertex 125.66139729897426 88.22797977781623 20.223768999999997
  endloop
endfacet
facet normal -0.6193279653820452 -0.7851323909352718 8.405878083280535e-19
  outer loop
    vertex 125.66139729897426 88.22797977781623 20.223768999999997
    vertex 126.71609648289562 87.39601219220941 20.223768999999997
    vertex 126.71609648289562 87.39601219220941 24.199818
  endloop
endfacet
facet normal -0.6193279653820452 -0.7851323909352718 8.405878083280535e-19
  outer loop
    vertex 125.66139729897426 88.22797977781623 20.223768999999997
    vertex 126.71609648289562 87.39601219220941 24.199818
    vertex 125.66139729897426 88.22797977781623 24.199818
  endloop
endfacet
facet normal -0.3950176610046438 -0.9186735260659363 -9.844320960489683e-19
  outer loop
    vertex 127.95018671967428 86.86536945028939 20.223768999999997
    vertex 126.71609648289562 87.39601219220941 0.0
    vertex 127.95018671967428 86.86536945028939 0.0
  endloop
endfacet
facet normal -0.3950176610046438 -0.9186735260659363 -9.844320960489683e-19
  outer loop
    vertex 126.71609648289562 87.39601219220941 0.0
    vertex 127.95018671967428 86.86536945028939 20.223768999999997
    vertex 126.71609648289562 87.39601219220941 20.223768999999997
  endloop
endfacet
facet normal -0.3950176610046438 -0.9186735260659363 -9.844320960489683e-19
  outer loop
    vertex 126.71609648289562 87.39601219220941 20.223768999999997
    vertex 127.95018671967428 86.86536945028939 20.223768999999997
    vertex 127.95018671967428 86.86536945028939 24.199818
  endloop
endfacet
facet normal -0.3950176610046438 -0.9186735260659363 -9.844320960489683e-19
  outer loop
    vertex 126.71609648289562 87.39601219220941 20.223768999999997
    vertex 127.95018671967428 86.86536945028939 24.199818
    vertex 126.71609648289562 87.39601219220941 24.199818
  endloop
endfacet
facet normal -0.14378755582734987 -0.9896085785749824 1.3613135137466358e-19
  outer loop
    vertex 129.2795667991043 86.67221397798936 20.223768999999997
    vertex 127.95018671967428 86.86536945028939 0.0
    vertex 129.2795667991043 86.67221397798936 0.0
  endloop
endfacet
facet normal -0.14378755582734987 -0.9896085785749824 1.3613135137466358e-19
  outer loop
    vertex 127.95018671967428 86.86536945028939 0.0
    vertex 129.2795667991043 86.67221397798936 20.223768999999997
    vertex 127.95018671967428 86.86536945028939 20.223768999999997
  endloop
endfacet
facet normal -0.14378755582734987 -0.9896085785749824 1.3613135137466358e-19
  outer loop
    vertex 127.95018671967428 86.86536945028939 20.223768999999997
    vertex 129.2795667991043 86.67221397798936 20.223768999999997
    vertex 129.2795667991043 86.67221397798936 24.199818
  endloop
endfacet
facet normal -0.14378755582734987 -0.9896085785749824 1.3613135137466358e-19
  outer loop
    vertex 127.95018671967428 86.86536945028939 20.223768999999997
    vertex 129.2795667991043 86.67221397798936 24.199818
    vertex 127.95018671967428 86.86536945028939 24.199818
  endloop
endfacet
facet normal 0.11724143365943043 -0.9931034418596492 9.73933080930002e-20
  outer loop
    vertex 130.61364166567697 86.8297090015421 20.223768999999997
    vertex 129.2795667991043 86.67221397798936 0.0
    vertex 130.61364166567697 86.8297090015421 0.0
  endloop
endfacet
facet normal 0.11724143365943043 -0.9931034418596492 9.73933080930002e-20
  outer loop
    vertex 129.2795667991043 86.67221397798936 0.0
    vertex 130.61364166567697 86.8297090015421 20.223768999999997
    vertex 129.2795667991043 86.67221397798936 20.223768999999997
  endloop
endfacet
facet normal 0.11724143365943043 -0.9931034418596492 9.73933080930002e-20
  outer loop
    vertex 129.2795667991043 86.67221397798936 20.223768999999997
    vertex 130.61364166567697 86.8297090015421 20.223768999999997
    vertex 130.61364166567697 86.8297090015421 24.199818
  endloop
endfacet
facet normal 0.11724143365943043 -0.9931034418596492 9.73933080930002e-20
  outer loop
    vertex 129.2795667991043 86.67221397798936 20.223768999999997
    vertex 130.61364166567697 86.8297090015421 24.199818
    vertex 129.2795667991043 86.67221397798936 24.199818
  endloop
endfacet
facet normal 0.37028061319293953 -0.9289199467626157 3.075947872343163e-19
  outer loop
    vertex 131.86149632189836 87.32712149536532 20.223768999999997
    vertex 130.61364166567697 86.8297090015421 0.0
    vertex 131.86149632189836 87.32712149536532 0.0
  endloop
endfacet
facet normal 0.37028061319293953 -0.9289199467626157 3.075947872343163e-19
  outer loop
    vertex 130.61364166567697 86.8297090015421 0.0
    vertex 131.86149632189836 87.32712149536532 20.223768999999997
    vertex 130.61364166567697 86.8297090015421 20.223768999999997
  endloop
endfacet
facet normal 0.37028061319293953 -0.9289199467626157 3.075947872343163e-19
  outer loop
    vertex 130.61364166567697 86.8297090015421 20.223768999999997
    vertex 131.86149632189836 87.32712149536532 20.223768999999997
    vertex 131.86149632189836 87.32712149536532 24.199818
  endloop
endfacet
facet normal 0.37028061319293953 -0.9289199467626157 3.075947872343163e-19
  outer loop
    vertex 130.61364166567697 86.8297090015421 20.223768999999997
    vertex 131.86149632189836 87.32712149536532 24.199818
    vertex 130.61364166567697 86.8297090015421 24.199818
  endloop
endfacet
facet normal 0.5980857808549958 -0.8014320924065059 -3.3287772187305855e-19
  outer loop
    vertex 132.93809153512427 88.13055362001796 20.223768999999997
    vertex 131.86149632189836 87.32712149536532 0.0
    vertex 132.93809153512427 88.13055362001796 0.0
  endloop
endfacet
facet normal 0.5980857808549958 -0.8014320924065059 -3.3287772187305855e-19
  outer loop
    vertex 131.86149632189836 87.32712149536532 0.0
    vertex 132.93809153512427 88.13055362001796 20.223768999999997
    vertex 131.86149632189836 87.32712149536532 20.223768999999997
  endloop
endfacet
facet normal 0.5980857808549958 -0.8014320924065059 -3.3287772187305855e-19
  outer loop
    vertex 131.86149632189836 87.32712149536532 20.223768999999997
    vertex 132.93809153512427 88.13055362001796 20.223768999999997
    vertex 132.93809153512427 88.13055362001796 24.199818
  endloop
endfacet
facet normal 0.5980857808549958 -0.8014320924065059 -3.3287772187305855e-19
  outer loop
    vertex 131.86149632189836 87.32712149536532 20.223768999999997
    vertex 132.93809153512427 88.13055362001796 24.199818
    vertex 131.86149632189836 87.32712149536532 24.199818
  endloop
endfacet
facet normal 0.7851323909352759 -0.6193279653820399 -3.261075818390857e-19
  outer loop
    vertex 133.77005912073108 89.18525280393932 0.0
    vertex 132.93809153512427 88.13055362001796 20.223768999999997
    vertex 132.93809153512427 88.13055362001796 0.0
  endloop
endfacet
facet normal 0.7851323909352759 -0.6193279653820399 -3.261075818390857e-19
  outer loop
    vertex 132.93809153512427 88.13055362001796 20.223768999999997
    vertex 133.77005912073108 89.18525280393932 0.0
    vertex 132.93809153512427 88.13055362001796 24.199818
  endloop
endfacet
facet normal 0.7851323909352759 -0.6193279653820399 -3.261075818390857e-19
  outer loop
    vertex 132.93809153512427 88.13055362001796 24.199818
    vertex 133.77005912073108 89.18525280393932 0.0
    vertex 133.77005912073108 89.18525280393932 24.199818
  endloop
endfacet
facet normal 0.7851323909352759 -0.6193279653820399 -3.261075818390857e-19
  outer loop
    vertex 133.77005912073108 89.18525280393932 24.199818
    vertex 133.77005912073108 89.18525280393932 0.0
    vertex 133.77005912073108 89.18525280393932 20.223768999999997
  endloop
endfacet
facet normal 0.9186735260659349 -0.39501766100464686 1.6941505039842436e-18
  outer loop
    vertex 134.3007018626511 90.41934304071796 0.0
    vertex 133.77005912073108 89.18525280393932 20.223768999999997
    vertex 133.77005912073108 89.18525280393932 0.0
  endloop
endfacet
facet normal 0.9186735260659349 -0.39501766100464686 1.6941505039842436e-18
  outer loop
    vertex 133.77005912073108 89.18525280393932 20.223768999999997
    vertex 134.3007018626511 90.41934304071796 0.0
    vertex 133.77005912073108 89.18525280393932 24.199818
  endloop
endfacet
facet normal 0.9186735260659349 -0.39501766100464686 1.6941505039842436e-18
  outer loop
    vertex 133.77005912073108 89.18525280393932 24.199818
    vertex 134.3007018626511 90.41934304071796 0.0
    vertex 134.3007018626511 90.41934304071796 24.199818
  endloop
endfacet
facet normal 0.9186735260659349 -0.39501766100464686 1.6941505039842436e-18
  outer loop
    vertex 134.3007018626511 90.41934304071796 24.199818
    vertex 134.3007018626511 90.41934304071796 0.0
    vertex 134.3007018626511 90.41934304071796 20.223768999999997
  endloop
endfacet
facet normal 0.9896085785749827 -0.14378755582734745 -1.027593767154636e-19
  outer loop
    vertex 134.49385733495112 91.74872312014799 0.0
    vertex 134.3007018626511 90.41934304071796 20.223768999999997
    vertex 134.3007018626511 90.41934304071796 0.0
  endloop
endfacet
facet normal 0.9896085785749827 -0.14378755582734745 -1.027593767154636e-19
  outer loop
    vertex 134.3007018626511 90.41934304071796 20.223768999999997
    vertex 134.49385733495112 91.74872312014799 0.0
    vertex 134.3007018626511 90.41934304071796 24.199818
  endloop
endfacet
facet normal 0.9896085785749827 -0.14378755582734745 -1.027593767154636e-19
  outer loop
    vertex 134.3007018626511 90.41934304071796 24.199818
    vertex 134.49385733495112 91.74872312014799 0.0
    vertex 134.49385733495112 91.74872312014799 24.199818
  endloop
endfacet
facet normal 0.9896085785749827 -0.14378755582734745 -1.027593767154636e-19
  outer loop
    vertex 134.49385733495112 91.74872312014799 24.199818
    vertex 134.49385733495112 91.74872312014799 0.0
    vertex 134.49385733495112 91.74872312014799 20.223768999999997
  endloop
endfacet
facet normal 0.9289199467626186 0.3702806131929323 -3.8583026386186755e-19
  outer loop
    vertex 133.83894981757518 94.33065264294206 0.0
    vertex 134.33636231139837 93.08279798672066 20.223768999999997
    vertex 134.33636231139837 93.08279798672066 0.0
  endloop
endfacet
facet normal 0.9289199467626186 0.3702806131929323 -3.8583026386186755e-19
  outer loop
    vertex 134.33636231139837 93.08279798672066 20.223768999999997
    vertex 133.83894981757518 94.33065264294206 0.0
    vertex 134.33636231139837 93.08279798672066 24.199818
  endloop
endfacet
facet normal 0.9289199467626186 0.3702806131929323 -3.8583026386186755e-19
  outer loop
    vertex 134.33636231139837 93.08279798672066 24.199818
    vertex 133.83894981757518 94.33065264294206 0.0
    vertex 133.83894981757518 94.33065264294206 24.199818
  endloop
endfacet
facet normal 0.9289199467626186 0.3702806131929323 -3.8583026386186755e-19
  outer loop
    vertex 133.83894981757518 94.33065264294206 24.199818
    vertex 133.83894981757518 94.33065264294206 0.0
    vertex 133.83894981757518 94.33065264294206 20.223768999999997
  endloop
endfacet
facet normal 0.9931034418596489 0.11724143365943138 1.0312227774614189e-19
  outer loop
    vertex 134.33636231139837 93.08279798672066 0.0
    vertex 134.49385733495112 91.74872312014799 20.223768999999997
    vertex 134.49385733495112 91.74872312014799 0.0
  endloop
endfacet
facet normal 0.9931034418596489 0.11724143365943138 1.0312227774614189e-19
  outer loop
    vertex 134.49385733495112 91.74872312014799 20.223768999999997
    vertex 134.33636231139837 93.08279798672066 0.0
    vertex 134.49385733495112 91.74872312014799 24.199818
  endloop
endfacet
facet normal 0.9931034418596489 0.11724143365943138 1.0312227774614189e-19
  outer loop
    vertex 134.49385733495112 91.74872312014799 24.199818
    vertex 134.33636231139837 93.08279798672066 0.0
    vertex 134.33636231139837 93.08279798672066 24.199818
  endloop
endfacet
facet normal 0.9931034418596489 0.11724143365943138 1.0312227774614189e-19
  outer loop
    vertex 134.33636231139837 93.08279798672066 24.199818
    vertex 134.33636231139837 93.08279798672066 0.0
    vertex 134.33636231139837 93.08279798672066 20.223768999999997
  endloop
endfacet
facet normal 0.8014320924064987 0.5980857808550052 -1.3265461017736162e-18
  outer loop
    vertex 133.03551769292253 95.40724785616796 0.0
    vertex 133.83894981757518 94.33065264294206 20.223768999999997
    vertex 133.83894981757518 94.33065264294206 0.0
  endloop
endfacet
facet normal 0.8014320924064987 0.5980857808550052 -1.3265461017736162e-18
  outer loop
    vertex 133.83894981757518 94.33065264294206 20.223768999999997
    vertex 133.03551769292253 95.40724785616796 0.0
    vertex 133.83894981757518 94.33065264294206 24.199818
  endloop
endfacet
facet normal 0.8014320924064987 0.5980857808550052 -1.3265461017736162e-18
  outer loop
    vertex 133.83894981757518 94.33065264294206 24.199818
    vertex 133.03551769292253 95.40724785616796 0.0
    vertex 133.03551769292253 95.40724785616796 24.199818
  endloop
endfacet
facet normal 0.8014320924064987 0.5980857808550052 -1.3265461017736162e-18
  outer loop
    vertex 133.03551769292253 95.40724785616796 24.199818
    vertex 133.03551769292253 95.40724785616796 0.0
    vertex 133.03551769292253 95.40724785616796 20.223768999999997
  endloop
endfacet
facet normal 0.619327965382045 0.7851323909352718 -2.659498362174266e-18
  outer loop
    vertex 131.98081850900115 96.23921544177476 20.223768999999997
    vertex 133.03551769292253 95.40724785616796 0.0
    vertex 131.98081850900115 96.23921544177476 0.0
  endloop
endfacet
facet normal 0.619327965382045 0.7851323909352718 -2.659498362174266e-18
  outer loop
    vertex 133.03551769292253 95.40724785616796 0.0
    vertex 131.98081850900115 96.23921544177476 20.223768999999997
    vertex 133.03551769292253 95.40724785616796 20.223768999999997
  endloop
endfacet
facet normal 0.619327965382045 0.7851323909352718 -2.659498362174266e-18
  outer loop
    vertex 133.03551769292253 95.40724785616796 20.223768999999997
    vertex 131.98081850900115 96.23921544177476 20.223768999999997
    vertex 131.98081850900115 96.23921544177476 24.199818
  endloop
endfacet
facet normal 0.619327965382045 0.7851323909352718 -2.659498362174266e-18
  outer loop
    vertex 133.03551769292253 95.40724785616796 20.223768999999997
    vertex 131.98081850900115 96.23921544177476 24.199818
    vertex 133.03551769292253 95.40724785616796 24.199818
  endloop
endfacet
facet normal 0.3950176610046438 0.9186735260659363 -5.343034390263898e-20
  outer loop
    vertex 130.7467282722225 96.7698581836948 20.223768999999997
    vertex 131.98081850900115 96.23921544177476 0.0
    vertex 130.7467282722225 96.7698581836948 0.0
  endloop
endfacet
facet normal 0.3950176610046438 0.9186735260659363 -5.343034390263898e-20
  outer loop
    vertex 131.98081850900115 96.23921544177476 0.0
    vertex 130.7467282722225 96.7698581836948 20.223768999999997
    vertex 131.98081850900115 96.23921544177476 20.223768999999997
  endloop
endfacet
facet normal 0.3950176610046438 0.9186735260659363 -5.343034390263898e-20
  outer loop
    vertex 131.98081850900115 96.23921544177476 20.223768999999997
    vertex 130.7467282722225 96.7698581836948 20.223768999999997
    vertex 130.7467282722225 96.7698581836948 24.199818
  endloop
endfacet
facet normal 0.3950176610046438 0.9186735260659363 -5.343034390263898e-20
  outer loop
    vertex 131.98081850900115 96.23921544177476 20.223768999999997
    vertex 130.7467282722225 96.7698581836948 24.199818
    vertex 131.98081850900115 96.23921544177476 24.199818
  endloop
endfacet
facet normal 0.14378755582734984 0.9896085785749824 1.361313513748265e-19
  outer loop
    vertex 129.4173481927925 96.96301365599481 20.223768999999997
    vertex 130.7467282722225 96.7698581836948 0.0
    vertex 129.4173481927925 96.96301365599481 0.0
  endloop
endfacet
facet normal 0.14378755582734984 0.9896085785749824 1.361313513748265e-19
  outer loop
    vertex 130.7467282722225 96.7698581836948 0.0
    vertex 129.4173481927925 96.96301365599481 20.223768999999997
    vertex 130.7467282722225 96.7698581836948 20.223768999999997
  endloop
endfacet
facet normal 0.14378755582734984 0.9896085785749824 1.361313513748265e-19
  outer loop
    vertex 130.7467282722225 96.7698581836948 20.223768999999997
    vertex 129.4173481927925 96.96301365599481 20.223768999999997
    vertex 129.4173481927925 96.96301365599481 24.199818
  endloop
endfacet
facet normal 0.14378755582734984 0.9896085785749824 1.361313513748265e-19
  outer loop
    vertex 130.7467282722225 96.7698581836948 20.223768999999997
    vertex 129.4173481927925 96.96301365599481 24.199818
    vertex 130.7467282722225 96.7698581836948 24.199818
  endloop
endfacet
facet normal -0.11724143365943043 0.9931034418596492 -9.73933080930002e-20
  outer loop
    vertex 128.08327332621982 96.80551863244207 20.223768999999997
    vertex 129.4173481927925 96.96301365599481 0.0
    vertex 128.08327332621982 96.80551863244207 0.0
  endloop
endfacet
facet normal -0.11724143365943043 0.9931034418596492 -9.73933080930002e-20
  outer loop
    vertex 129.4173481927925 96.96301365599481 0.0
    vertex 128.08327332621982 96.80551863244207 20.223768999999997
    vertex 129.4173481927925 96.96301365599481 20.223768999999997
  endloop
endfacet
facet normal -0.11724143365943043 0.9931034418596492 -9.73933080930002e-20
  outer loop
    vertex 129.4173481927925 96.96301365599481 20.223768999999997
    vertex 128.08327332621982 96.80551863244207 20.223768999999997
    vertex 128.08327332621982 96.80551863244207 24.199818
  endloop
endfacet
facet normal -0.11724143365943043 0.9931034418596492 -9.73933080930002e-20
  outer loop
    vertex 129.4173481927925 96.96301365599481 20.223768999999997
    vertex 128.08327332621982 96.80551863244207 24.199818
    vertex 129.4173481927925 96.96301365599481 24.199818
  endloop
endfacet
facet normal -0.3702806131929395 0.9289199467626157 -7.716605277238109e-19
  outer loop
    vertex 126.83541866999843 96.30810613861887 20.223768999999997
    vertex 128.08327332621982 96.80551863244207 0.0
    vertex 126.83541866999843 96.30810613861887 0.0
  endloop
endfacet
facet normal -0.3702806131929395 0.9289199467626157 -7.716605277238109e-19
  outer loop
    vertex 128.08327332621982 96.80551863244207 0.0
    vertex 126.83541866999843 96.30810613861887 20.223768999999997
    vertex 128.08327332621982 96.80551863244207 20.223768999999997
  endloop
endfacet
facet normal -0.3702806131929395 0.9289199467626157 -7.716605277238109e-19
  outer loop
    vertex 128.08327332621982 96.80551863244207 20.223768999999997
    vertex 126.83541866999843 96.30810613861887 20.223768999999997
    vertex 126.83541866999843 96.30810613861887 24.199818
  endloop
endfacet
facet normal -0.3702806131929395 0.9289199467626157 -7.716605277238109e-19
  outer loop
    vertex 128.08327332621982 96.80551863244207 20.223768999999997
    vertex 126.83541866999843 96.30810613861887 24.199818
    vertex 128.08327332621982 96.80551863244207 24.199818
  endloop
endfacet
facet normal -0.5980857808550037 0.8014320924064999 -5.591907713925505e-32
  outer loop
    vertex 125.75882345677255 95.50467401396622 20.223768999999997
    vertex 126.83541866999843 96.30810613861887 0.0
    vertex 125.75882345677255 95.50467401396622 0.0
  endloop
endfacet
facet normal -0.5980857808550037 0.8014320924064999 -5.591907713925505e-32
  outer loop
    vertex 126.83541866999843 96.30810613861887 0.0
    vertex 125.75882345677255 95.50467401396622 20.223768999999997
    vertex 126.83541866999843 96.30810613861887 20.223768999999997
  endloop
endfacet
facet normal -0.5980857808550037 0.8014320924064999 -5.591907713925505e-32
  outer loop
    vertex 126.83541866999843 96.30810613861887 20.223768999999997
    vertex 125.75882345677255 95.50467401396622 20.223768999999997
    vertex 125.75882345677255 95.50467401396622 24.199818
  endloop
endfacet
facet normal -0.5980857808550037 0.8014320924064999 -5.591907713925505e-32
  outer loop
    vertex 126.83541866999843 96.30810613861887 20.223768999999997
    vertex 125.75882345677255 95.50467401396622 24.199818
    vertex 126.83541866999843 96.30810613861887 24.199818
  endloop
endfacet
facet normal -0.7851323909352678 0.6193279653820504 -4.448896768362439e-31
  outer loop
    vertex 125.75882345677255 95.50467401396622 24.199818
    vertex 124.92685587116571 94.44997483004487 20.223768999999997
    vertex 124.92685587116571 94.44997483004487 24.199818
  endloop
endfacet
facet normal -0.7851323909352678 0.6193279653820504 -4.448896768362439e-31
  outer loop
    vertex 124.92685587116571 94.44997483004487 20.223768999999997
    vertex 125.75882345677255 95.50467401396622 24.199818
    vertex 124.92685587116571 94.44997483004487 0.0
  endloop
endfacet
facet normal -0.7851323909352678 0.6193279653820504 -4.448896768362439e-31
  outer loop
    vertex 124.92685587116571 94.44997483004487 0.0
    vertex 125.75882345677255 95.50467401396622 24.199818
    vertex 125.75882345677255 95.50467401396622 0.0
  endloop
endfacet
facet normal -0.7851323909352678 0.6193279653820504 -4.448896768362439e-31
  outer loop
    vertex 125.75882345677255 95.50467401396622 0.0
    vertex 125.75882345677255 95.50467401396622 24.199818
    vertex 125.75882345677255 95.50467401396622 20.223768999999997
  endloop
endfacet
facet normal -0.9186735260659349 0.39501766100464686 -6.028577201298843e-19
  outer loop
    vertex 124.92685587116571 94.44997483004487 24.199818
    vertex 124.3962131292457 93.21588459326621 20.223768999999997
    vertex 124.3962131292457 93.21588459326621 24.199818
  endloop
endfacet
facet normal -0.9186735260659349 0.39501766100464686 -6.028577201298843e-19
  outer loop
    vertex 124.3962131292457 93.21588459326621 20.223768999999997
    vertex 124.92685587116571 94.44997483004487 24.199818
    vertex 124.3962131292457 93.21588459326621 0.0
  endloop
endfacet
facet normal -0.9186735260659349 0.39501766100464686 -6.028577201298843e-19
  outer loop
    vertex 124.3962131292457 93.21588459326621 0.0
    vertex 124.92685587116571 94.44997483004487 24.199818
    vertex 124.92685587116571 94.44997483004487 0.0
  endloop
endfacet
facet normal -0.9186735260659349 0.39501766100464686 -6.028577201298843e-19
  outer loop
    vertex 124.92685587116571 94.44997483004487 0.0
    vertex 124.92685587116571 94.44997483004487 24.199818
    vertex 124.92685587116571 94.44997483004487 20.223768999999997
  endloop
endfacet
facet normal -0.9896085785749827 0.14378755582734745 -1.027593767154636e-19
  outer loop
    vertex 124.3962131292457 93.21588459326621 24.199818
    vertex 124.20305765694566 91.88650451383619 20.223768999999997
    vertex 124.20305765694566 91.88650451383619 24.199818
  endloop
endfacet
facet normal -0.9896085785749827 0.14378755582734745 -1.027593767154636e-19
  outer loop
    vertex 124.20305765694566 91.88650451383619 20.223768999999997
    vertex 124.3962131292457 93.21588459326621 24.199818
    vertex 124.20305765694566 91.88650451383619 0.0
  endloop
endfacet
facet normal -0.9896085785749827 0.14378755582734745 -1.027593767154636e-19
  outer loop
    vertex 124.20305765694566 91.88650451383619 0.0
    vertex 124.3962131292457 93.21588459326621 24.199818
    vertex 124.3962131292457 93.21588459326621 0.0
  endloop
endfacet
facet normal -0.9896085785749827 0.14378755582734745 -1.027593767154636e-19
  outer loop
    vertex 124.3962131292457 93.21588459326621 0.0
    vertex 124.3962131292457 93.21588459326621 24.199818
    vertex 124.3962131292457 93.21588459326621 20.223768999999997
  endloop
endfacet
facet normal -0.9931034418596489 -0.11724143365943138 2.0051558583904326e-19
  outer loop
    vertex 124.20305765694566 91.88650451383619 24.199818
    vertex 124.3605526804984 90.55242964726352 20.223768999999997
    vertex 124.3605526804984 90.55242964726352 24.199818
  endloop
endfacet
facet normal -0.9931034418596489 -0.11724143365943138 2.0051558583904326e-19
  outer loop
    vertex 124.3605526804984 90.55242964726352 20.223768999999997
    vertex 124.20305765694566 91.88650451383619 24.199818
    vertex 124.3605526804984 90.55242964726352 0.0
  endloop
endfacet
facet normal -0.9931034418596489 -0.11724143365943138 2.0051558583904326e-19
  outer loop
    vertex 124.3605526804984 90.55242964726352 0.0
    vertex 124.20305765694566 91.88650451383619 24.199818
    vertex 124.20305765694566 91.88650451383619 0.0
  endloop
endfacet
facet normal -0.9931034418596489 -0.11724143365943138 2.0051558583904326e-19
  outer loop
    vertex 124.20305765694566 91.88650451383619 0.0
    vertex 124.20305765694566 91.88650451383619 24.199818
    vertex 124.20305765694566 91.88650451383619 20.223768999999997
  endloop
endfacet
facet normal -0.9289199467626175 -0.37028061319293515 -1.0010198383308098e-18
  outer loop
    vertex 124.3605526804984 90.55242964726352 24.199818
    vertex 124.8579651743216 89.30457499104214 20.223768999999997
    vertex 124.8579651743216 89.30457499104214 24.199818
  endloop
endfacet
facet normal -0.9289199467626175 -0.37028061319293515 -1.0010198383308098e-18
  outer loop
    vertex 124.8579651743216 89.30457499104214 20.223768999999997
    vertex 124.3605526804984 90.55242964726352 24.199818
    vertex 124.8579651743216 89.30457499104214 0.0
  endloop
endfacet
facet normal -0.9289199467626175 -0.37028061319293515 -1.0010198383308098e-18
  outer loop
    vertex 124.8579651743216 89.30457499104214 0.0
    vertex 124.3605526804984 90.55242964726352 24.199818
    vertex 124.3605526804984 90.55242964726352 0.0
  endloop
endfacet
facet normal -0.9289199467626175 -0.37028061319293515 -1.0010198383308098e-18
  outer loop
    vertex 124.3605526804984 90.55242964726352 0.0
    vertex 124.3605526804984 90.55242964726352 24.199818
    vertex 124.3605526804984 90.55242964726352 20.223768999999997
  endloop
endfacet
facet normal 0.0 0.0 -1.0
  outer loop
    vertex 95.30053602661889 97.2511859395694 20.223768999999994
    vertex 97.1492710215368 79.42618945328715 20.223768999999994
    vertex 95.05155087062504 88.21699240669919 20.223768999999994
  endloop
endfacet
facet normal 0.0 0.0 -1.0
  outer loop
    vertex 97.1492710215368 79.42618945328715 20.223768999999994
    vertex 95.30053602661889 97.2511859395694 20.223768999999994
    vertex 97.87925856260479 105.9131046923434 20.223768999999994
  endloop
endfacet
facet normal 0.0 0.0 -1.0
  outer loop
    vertex 97.1492710215368 79.42618945328715 20.223768999999994
    vertex 97.87925856260479 105.9131046923434 20.223768999999994
    vertex 101.45074031771601 71.47785577311954 20.223768999999994
  endloop
endfacet
facet normal 0.0 0.0 -1.0
  outer loop
    vertex 101.45074031771601 71.47785577311954 20.223768999999994
    vertex 97.87925856260479 105.9131046923434 20.223768999999994
    vertex 102.61198279929579 113.61245321651714 20.223768999999994
  endloop
endfacet
facet normal 0.0 0.0 -1.0
  outer loop
    vertex 101.45074031771601 71.47785577311954 20.223768999999994
    vertex 102.61198279929579 113.61245321651714 20.223768999999994
    vertex 107.66282073514215 64.91365717125733 20.223768999999994
  endloop
endfacet
facet normal 0.0 0.0 -1.0
  outer loop
    vertex 107.66282073514215 64.91365717125733 20.223768999999994
    vertex 102.61198279929579 113.61245321651714 20.223768999999994
    vertex 109.176181401158 119.82453363394328 20.223768999999994
  endloop
endfacet
facet normal 0.0 0.0 -1.0
  outer loop
    vertex 107.66282073514215 64.91365717125733 20.223768999999994
    vertex 109.176181401158 119.82453363394328 20.223768999999994
    vertex 115.36216925931589 60.18093293456633 20.223768999999994
  endloop
endfacet
facet normal 0.0 0.0 -1.0
  outer loop
    vertex 115.36216925931589 60.18093293456633 20.223768999999994
    vertex 109.176181401158 119.82453363394328 20.223768999999994
    vertex 117.12451508132563 124.12600293012247 20.223768999999994
  endloop
endfacet
facet normal 0.0 0.0 -1.0
  outer loop
    vertex 115.36216925931589 60.18093293456633 20.223768999999994
    vertex 117.12451508132563 124.12600293012247 20.223768999999994
    vertex 124.02408801208988 57.602210398580425 20.223768999999994
  endloop
endfacet
facet normal 0.0 0.0 -1.0
  outer loop
    vertex 124.02408801208988 57.602210398580425 20.223768999999994
    vertex 117.12451508132563 124.12600293012247 20.223768999999994
    vertex 124.20305765694566 91.88650451383619 20.223768999999997
  endloop
endfacet
facet normal 0.0 0.0 -1.0
  outer loop
    vertex 124.20305765694566 91.88650451383619 20.223768999999997
    vertex 117.12451508132563 124.12600293012247 20.223768999999994
    vertex 125.91531803473767 126.22372308103424 20.223768999999994
  endloop
endfacet
facet normal 0.0 0.0 -1.0
  outer loop
    vertex 124.20305765694566 91.88650451383619 20.223768999999997
    vertex 125.91531803473767 126.22372308103424 20.223768999999994
    vertex 124.3962131292457 93.21588459326621 20.223768999999997
  endloop
endfacet
facet normal 0.0 0.0 -1.0
  outer loop
    vertex 124.3962131292457 93.21588459326621 20.223768999999997
    vertex 125.91531803473767 126.22372308103424 20.223768999999994
    vertex 124.92685587116571 94.44997483004487 20.223768999999997
  endloop
endfacet
facet normal 0.0 0.0 -1.0
  outer loop
    vertex 124.92685587116571 94.44997483004487 20.223768999999997
    vertex 125.91531803473767 126.22372308103424 20.223768999999994
    vertex 125.75882345677255 95.50467401396622 20.223768999999997
  endloop
endfacet
facet normal 0.0 0.0 -1.0
  outer loop
    vertex 125.75882345677255 95.50467401396622 20.223768999999997
    vertex 125.91531803473767 126.22372308103424 20.223768999999994
    vertex 126.83541866999843 96.30810613861887 20.223768999999997
  endloop
endfacet
facet normal 0.0 0.0 -1.0
  outer loop
    vertex 126.83541866999843 96.30810613861887 20.223768999999997
    vertex 125.91531803473767 126.22372308103424 20.223768999999994
    vertex 134.94951156760786 125.97473792504039 20.223768999999994
  endloop
endfacet
facet normal 0.0 0.0 -1.0
  outer loop
    vertex 126.83541866999843 96.30810613861887 20.223768999999997
    vertex 134.94951156760786 125.97473792504039 20.223768999999994
    vertex 128.08327332621982 96.80551863244207 20.223768999999997
  endloop
endfacet
facet normal 0.0 0.0 -1.0
  outer loop
    vertex 128.08327332621982 96.80551863244207 20.223768999999997
    vertex 134.94951156760786 125.97473792504039 20.223768999999994
    vertex 129.4173481927925 96.96301365599481 20.223768999999997
  endloop
endfacet
facet normal 0.0 0.0 -1.0
  outer loop
    vertex 129.4173481927925 96.96301365599481 20.223768999999997
    vertex 134.94951156760786 125.97473792504039 20.223768999999994
    vertex 130.7467282722225 96.7698581836948 20.223768999999997
  endloop
endfacet
facet normal 0.0 0.0 -1.0
  outer loop
    vertex 130.7467282722225 96.7698581836948 20.223768999999997
    vertex 134.94951156760786 125.97473792504039 20.223768999999994
    vertex 131.98081850900115 96.23921544177476 20.223768999999997
  endloop
endfacet
facet normal 0.0 0.0 -1.0
  outer loop
    vertex 131.98081850900115 96.23921544177476 20.223768999999997
    vertex 134.94951156760786 125.97473792504039 20.223768999999994
    vertex 133.03551769292253 95.40724785616796 20.223768999999997
  endloop
endfacet
facet normal 0.0 0.0 -1.0
  outer loop
    vertex 133.03551769292253 95.40724785616796 20.223768999999997
    vertex 134.94951156760786 125.97473792504039 20.223768999999994
    vertex 133.83894981757518 94.33065264294206 20.223768999999997
  endloop
endfacet
facet normal 0.0 0.0 -1.0
  outer loop
    vertex 133.83894981757518 94.33065264294206 20.223768999999997
    vertex 134.94951156760786 125.97473792504039 20.223768999999994
    vertex 134.33636231139837 93.08279798672066 20.223768999999997
  endloop
endfacet
facet normal 0.0 0.0 -1.0
  outer loop
    vertex 134.33636231139837 93.08279798672066 20.223768999999997
    vertex 134.94951156760786 125.97473792504039 20.223768999999994
    vertex 134.49385733495112 91.74872312014799 20.223768999999997
  endloop
endfacet
facet normal 0.0 0.0 -1.0
  outer loop
    vertex 124.02408801208988 57.602210398580425 20.223768999999994
    vertex 124.3605526804984 90.55242964726352 20.223768999999997
    vertex 133.0582815449601 57.353225242586575 20.223768999999994
  endloop
endfacet
facet normal 0.0 0.0 -1.0
  outer loop
    vertex 124.3605526804984 90.55242964726352 20.223768999999997
    vertex 124.02408801208988 57.602210398580425 20.223768999999994
    vertex 124.20305765694566 91.88650451383619 20.223768999999997
  endloop
endfacet
facet normal 0.0 0.0 -1.0
  outer loop
    vertex 133.0582815449601 57.353225242586575 20.223768999999994
    vertex 124.3605526804984 90.55242964726352 20.223768999999997
    vertex 124.8579651743216 89.30457499104214 20.223768999999997
  endloop
endfacet
facet normal 0.0 0.0 -1.0
  outer loop
    vertex 133.0582815449601 57.353225242586575 20.223768999999994
    vertex 124.8579651743216 89.30457499104214 20.223768999999997
    vertex 125.66139729897426 88.22797977781623 20.223768999999997
  endloop
endfacet
facet normal 0.0 0.0 -1.0
  outer loop
    vertex 133.0582815449601 57.353225242586575 20.223768999999994
    vertex 125.66139729897426 88.22797977781623 20.223768999999997
    vertex 126.71609648289562 87.39601219220941 20.223768999999997
  endloop
endfacet
facet normal 0.0 0.0 -1.0
  outer loop
    vertex 133.0582815449601 57.353225242586575 20.223768999999994
    vertex 126.71609648289562 87.39601219220941 20.223768999999997
    vertex 127.95018671967428 86.86536945028939 20.223768999999997
  endloop
endfacet
facet normal 0.0 0.0 -1.0
  outer loop
    vertex 133.0582815449601 57.353225242586575 20.223768999999994
    vertex 127.95018671967428 86.86536945028939 20.223768999999997
    vertex 129.2795667991043 86.67221397798936 20.223768999999997
  endloop
endfacet
facet normal 0.0 0.0 -1.0
  outer loop
    vertex 133.0582815449601 57.353225242586575 20.223768999999994
    vertex 129.2795667991043 86.67221397798936 20.223768999999997
    vertex 130.61364166567697 86.8297090015421 20.223768999999997
  endloop
endfacet
facet normal 0.0 0.0 -1.0
  outer loop
    vertex 133.0582815449601 57.353225242586575 20.223768999999994
    vertex 130.61364166567697 86.8297090015421 20.223768999999997
    vertex 131.86149632189836 87.32712149536532 20.223768999999997
  endloop
endfacet
facet normal 0.0 0.0 -1.0
  outer loop
    vertex 133.0582815449601 57.353225242586575 20.223768999999994
    vertex 131.86149632189836 87.32712149536532 20.223768999999997
    vertex 132.93809153512427 88.13055362001796 20.223768999999997
  endloop
endfacet
facet normal 0.0 0.0 -1.0
  outer loop
    vertex 133.0582815449601 57.353225242586575 20.223768999999994
    vertex 132.93809153512427 88.13055362001796 20.223768999999997
    vertex 133.77005912073108 89.18525280393932 20.223768999999997
  endloop
endfacet
facet normal 0.0 0.0 -1.0
  outer loop
    vertex 133.0582815449601 57.353225242586575 20.223768999999994
    vertex 133.77005912073108 89.18525280393932 20.223768999999997
    vertex 141.84908449837212 59.45094539349832 20.223768999999994
  endloop
endfacet
facet normal 0.0 0.0 -1.0
  outer loop
    vertex 141.84908449837212 59.45094539349832 20.223768999999994
    vertex 133.77005912073108 89.18525280393932 20.223768999999997
    vertex 134.3007018626511 90.41934304071796 20.223768999999997
  endloop
endfacet
facet normal 0.0 0.0 -1.0
  outer loop
    vertex 141.84908449837212 59.45094539349832 20.223768999999994
    vertex 134.3007018626511 90.41934304071796 20.223768999999997
    vertex 134.49385733495112 91.74872312014799 20.223768999999997
  endloop
endfacet
facet normal 0.0 0.0 -1.0
  outer loop
    vertex 141.84908449837212 59.45094539349832 20.223768999999994
    vertex 134.49385733495112 91.74872312014799 20.223768999999997
    vertex 134.94951156760786 125.97473792504039 20.223768999999994
  endloop
endfacet
facet normal 0.0 0.0 -1.0
  outer loop
    vertex 141.84908449837212 59.45094539349832 20.223768999999994
    vertex 134.94951156760786 125.97473792504039 20.223768999999994
    vertex 143.61143032038183 123.39601538905448 20.223768999999994
  endloop
endfacet
facet normal 0.0 0.0 -1.0
  outer loop
    vertex 141.84908449837212 59.45094539349832 20.223768999999994
    vertex 143.61143032038183 123.39601538905448 20.223768999999994
    vertex 149.79741817853974 63.752414689677536 20.223768999999994
  endloop
endfacet
facet normal 0.0 0.0 -1.0
  outer loop
    vertex 149.79741817853974 63.752414689677536 20.223768999999994
    vertex 143.61143032038183 123.39601538905448 20.223768999999994
    vertex 151.3107788445556 118.66329115236348 20.223768999999994
  endloop
endfacet
facet normal 0.0 0.0 -1.0
  outer loop
    vertex 149.79741817853974 63.752414689677536 20.223768999999994
    vertex 151.3107788445556 118.66329115236348 20.223768999999994
    vertex 156.36161678040193 69.96449510710366 20.223768999999994
  endloop
endfacet
facet normal 0.0 0.0 -1.0
  outer loop
    vertex 156.36161678040193 69.96449510710366 20.223768999999994
    vertex 151.3107788445556 118.66329115236348 20.223768999999994
    vertex 157.52285926198175 112.09909255050127 20.223768999999994
  endloop
endfacet
facet normal 0.0 0.0 -1.0
  outer loop
    vertex 156.36161678040193 69.96449510710366 20.223768999999994
    vertex 157.52285926198175 112.09909255050127 20.223768999999994
    vertex 161.09434101709292 77.66384363127742 20.223768999999994
  endloop
endfacet
facet normal 0.0 0.0 -1.0
  outer loop
    vertex 161.09434101709292 77.66384363127742 20.223768999999994
    vertex 157.52285926198175 112.09909255050127 20.223768999999994
    vertex 161.82432855816094 104.15075887033365 20.223768999999994
  endloop
endfacet
facet normal 0.0 0.0 -1.0
  outer loop
    vertex 161.09434101709292 77.66384363127742 20.223768999999994
    vertex 161.82432855816094 104.15075887033365 20.223768999999994
    vertex 163.67306355307886 86.32576238405142 20.223768999999994
  endloop
endfacet
facet normal 0.0 0.0 -1.0
  outer loop
    vertex 163.67306355307886 86.32576238405142 20.223768999999994
    vertex 161.82432855816094 104.15075887033365 20.223768999999994
    vertex 163.92204870907273 95.3599559169216 20.223768999999994
  endloop
endfacet
facet normal -0.0 -0.0 1.0
  outer loop
    vertex 124.3605526804984 90.55242964726352 24.199818
    vertex 124.3962131292457 93.21588459326621 24.199818
    vertex 124.20305765694566 91.88650451383619 24.199818
  endloop
endfacet
facet normal -0.0 -0.0 1.0
  outer loop
    vertex 124.3962131292457 93.21588459326621 24.199818
    vertex 124.3605526804984 90.55242964726352 24.199818
    vertex 124.8579651743216 89.30457499104214 24.199818
  endloop
endfacet
facet normal -0.0 -0.0 1.0
  outer loop
    vertex 124.3962131292457 93.21588459326621 24.199818
    vertex 124.8579651743216 89.30457499104214 24.199818
    vertex 124.92685587116571 94.44997483004487 24.199818
  endloop
endfacet
facet normal -0.0 -0.0 1.0
  outer loop
    vertex 124.92685587116571 94.44997483004487 24.199818
    vertex 124.8579651743216 89.30457499104214 24.199818
    vertex 125.66139729897426 88.22797977781623 24.199818
  endloop
endfacet
facet normal -0.0 -0.0 1.0
  outer loop
    vertex 124.92685587116571 94.44997483004487 24.199818
    vertex 125.66139729897426 88.22797977781623 24.199818
    vertex 125.75882345677255 95.50467401396622 24.199818
  endloop
endfacet
facet normal -0.0 -0.0 1.0
  outer loop
    vertex 125.75882345677255 95.50467401396622 24.199818
    vertex 125.66139729897426 88.22797977781623 24.199818
    vertex 126.71609648289562 87.39601219220941 24.199818
  endloop
endfacet
facet normal -0.0 -0.0 1.0
  outer loop
    vertex 125.75882345677255 95.50467401396622 24.199818
    vertex 126.71609648289562 87.39601219220941 24.199818
    vertex 126.83541866999843 96.30810613861887 24.199818
  endloop
endfacet
facet normal -0.0 -0.0 1.0
  outer loop
    vertex 126.83541866999843 96.30810613861887 24.199818
    vertex 126.71609648289562 87.39601219220941 24.199818
    vertex 127.95018671967428 86.86536945028939 24.199818
  endloop
endfacet
facet normal -0.0 -0.0 1.0
  outer loop
    vertex 126.83541866999843 96.30810613861887 24.199818
    vertex 127.95018671967428 86.86536945028939 24.199818
    vertex 128.08327332621982 96.80551863244207 24.199818
  endloop
endfacet
facet normal -0.0 -0.0 1.0
  outer loop
    vertex 128.08327332621982 96.80551863244207 24.199818
    vertex 127.95018671967428 86.86536945028939 24.199818
    vertex 129.2795667991043 86.67221397798936 24.199818
  endloop
endfacet
facet normal -0.0 -0.0 1.0
  outer loop
    vertex 128.08327332621982 96.80551863244207 24.199818
    vertex 129.2795667991043 86.67221397798936 24.199818
    vertex 129.4173481927925 96.96301365599481 24.199818
  endloop
endfacet
facet normal -0.0 -0.0 1.0
  outer loop
    vertex 129.4173481927925 96.96301365599481 24.199818
    vertex 129.2795667991043 86.67221397798936 24.199818
    vertex 130.61364166567697 86.8297090015421 24.199818
  endloop
endfacet
facet normal -0.0 -0.0 1.0
  outer loop
    vertex 129.4173481927925 96.96301365599481 24.199818
    vertex 130.61364166567697 86.8297090015421 24.199818
    vertex 130.7467282722225 96.7698581836948 24.199818
  endloop
endfacet
facet normal -0.0 -0.0 1.0
  outer loop
    vertex 130.7467282722225 96.7698581836948 24.199818
    vertex 130.61364166567697 86.8297090015421 24.199818
    vertex 131.86149632189836 87.32712149536532 24.199818
  endloop
endfacet
facet normal -0.0 -0.0 1.0
  outer loop
    vertex 130.7467282722225 96.7698581836948 24.199818
    vertex 131.86149632189836 87.32712149536532 24.199818
    vertex 131.98081850900115 96.23921544177476 24.199818
  endloop
endfacet
facet normal -0.0 -0.0 1.0
  outer loop
    vertex 131.98081850900115 96.23921544177476 24.199818
    vertex 131.86149632189836 87.32712149536532 24.199818
    vertex 132.93809153512427 88.13055362001796 24.199818
  endloop
endfacet
facet normal -0.0 -0.0 1.0
  outer loop
    vertex 131.98081850900115 96.23921544177476 24.199818
    vertex 132.93809153512427 88.13055362001796 24.199818
    vertex 133.03551769292253 95.40724785616796 24.199818
  endloop
endfacet
facet normal -0.0 -0.0 1.0
  outer loop
    vertex 133.03551769292253 95.40724785616796 24.199818
    vertex 132.93809153512427 88.13055362001796 24.199818
    vertex 133.77005912073108 89.18525280393932 24.199818
  endloop
endfacet
facet normal -0.0 -0.0 1.0
  outer loop
    vertex 133.03551769292253 95.40724785616796 24.199818
    vertex 133.77005912073108 89.18525280393932 24.199818
    vertex 133.83894981757518 94.33065264294206 24.199818
  endloop
endfacet
facet normal -0.0 -0.0 1.0
  outer loop
    vertex 133.83894981757518 94.33065264294206 24.199818
    vertex 133.77005912073108 89.18525280393932 24.199818
    vertex 134.3007018626511 90.41934304071796 24.199818
  endloop
endfacet
facet normal -0.0 -0.0 1.0
  outer loop
    vertex 133.83894981757518 94.33065264294206 24.199818
    vertex 134.3007018626511 90.41934304071796 24.199818
    vertex 134.33636231139837 93.08279798672066 24.199818
  endloop
endfacet
facet normal -0.0 -0.0 1.0
  outer loop
    vertex 134.33636231139837 93.08279798672066 24.199818
    vertex 134.3007018626511 90.41934304071796 24.199818
    vertex 134.49385733495112 91.74872312014799 24.199818
  endloop
endfacet
facet normal -0.0 -0.0 1.0
  outer loop
    vertex 124.02408801208988 57.602210398580425 24.199818
    vertex 124.3605526804984 90.55242964726352 24.199818
    vertex 124.20305765694566 91.88650451383619 24.199818
  endloop
endfacet
facet normal -0.0 -0.0 1.0
  outer loop
    vertex 124.3605526804984 90.55242964726352 24.199818
    vertex 124.02408801208988 57.602210398580425 24.199818
    vertex 133.0582815449601 57.353225242586575 24.199818
  endloop
endfacet
facet normal -0.0 -0.0 1.0
  outer loop
    vertex 124.3605526804984 90.55242964726352 24.199818
    vertex 133.0582815449601 57.353225242586575 24.199818
    vertex 124.8579651743216 89.30457499104214 24.199818
  endloop
endfacet
facet normal -0.0 -0.0 1.0
  outer loop
    vertex 124.8579651743216 89.30457499104214 24.199818
    vertex 133.0582815449601 57.353225242586575 24.199818
    vertex 125.66139729897426 88.22797977781623 24.199818
  endloop
endfacet
facet normal -0.0 -0.0 1.0
  outer loop
    vertex 125.66139729897426 88.22797977781623 24.199818
    vertex 133.0582815449601 57.353225242586575 24.199818
    vertex 126.71609648289562 87.39601219220941 24.199818
  endloop
endfacet
facet normal -0.0 -0.0 1.0
  outer loop
    vertex 126.71609648289562 87.39601219220941 24.199818
    vertex 133.0582815449601 57.353225242586575 24.199818
    vertex 127.95018671967428 86.86536945028939 24.199818
  endloop
endfacet
facet normal -0.0 -0.0 1.0
  outer loop
    vertex 127.95018671967428 86.86536945028939 24.199818
    vertex 133.0582815449601 57.353225242586575 24.199818
    vertex 129.2795667991043 86.67221397798936 24.199818
  endloop
endfacet
facet normal -0.0 -0.0 1.0
  outer loop
    vertex 129.2795667991043 86.67221397798936 24.199818
    vertex 133.0582815449601 57.353225242586575 24.199818
    vertex 130.61364166567697 86.8297090015421 24.199818
  endloop
endfacet
facet normal -0.0 -0.0 1.0
  outer loop
    vertex 130.61364166567697 86.8297090015421 24.199818
    vertex 133.0582815449601 57.353225242586575 24.199818
    vertex 131.86149632189836 87.32712149536532 24.199818
  endloop
endfacet
facet normal -0.0 -0.0 1.0
  outer loop
    vertex 131.86149632189836 87.32712149536532 24.199818
    vertex 133.0582815449601 57.353225242586575 24.199818
    vertex 132.93809153512427 88.13055362001796 24.199818
  endloop
endfacet
facet normal -0.0 -0.0 1.0
  outer loop
    vertex 132.93809153512427 88.13055362001796 24.199818
    vertex 133.0582815449601 57.353225242586575 24.199818
    vertex 133.77005912073108 89.18525280393932 24.199818
  endloop
endfacet
facet normal -0.0 -0.0 1.0
  outer loop
    vertex 133.77005912073108 89.18525280393932 24.199818
    vertex 133.0582815449601 57.353225242586575 24.199818
    vertex 141.84908449837212 59.45094539349832 24.199818
  endloop
endfacet
facet normal -0.0 -0.0 1.0
  outer loop
    vertex 133.77005912073108 89.18525280393932 24.199818
    vertex 141.84908449837212 59.45094539349832 24.199818
    vertex 134.3007018626511 90.41934304071796 24.199818
  endloop
endfacet
facet normal -0.0 -0.0 1.0
  outer loop
    vertex 134.3007018626511 90.41934304071796 24.199818
    vertex 141.84908449837212 59.45094539349832 24.199818
    vertex 134.49385733495112 91.74872312014799 24.199818
  endloop
endfacet
facet normal -0.0 -0.0 1.0
  outer loop
    vertex 134.49385733495112 91.74872312014799 24.199818
    vertex 141.84908449837212 59.45094539349832 24.199818
    vertex 134.94951156760786 125.97473792504039 24.199818
  endloop
endfacet
facet normal -0.0 -0.0 1.0
  outer loop
    vertex 134.94951156760786 125.97473792504039 24.199818
    vertex 141.84908449837212 59.45094539349832 24.199818
    vertex 143.61143032038183 123.39601538905448 24.199818
  endloop
endfacet
facet normal -0.0 -0.0 1.0
  outer loop
    vertex 143.61143032038183 123.39601538905448 24.199818
    vertex 141.84908449837212 59.45094539349832 24.199818
    vertex 149.79741817853974 63.752414689677536 24.199818
  endloop
endfacet
facet normal -0.0 -0.0 1.0
  outer loop
    vertex 143.61143032038183 123.39601538905448 24.199818
    vertex 149.79741817853974 63.752414689677536 24.199818
    vertex 151.3107788445556 118.66329115236348 24.199818
  endloop
endfacet
facet normal -0.0 -0.0 1.0
  outer loop
    vertex 151.3107788445556 118.66329115236348 24.199818
    vertex 149.79741817853974 63.752414689677536 24.199818
    vertex 156.36161678040193 69.96449510710366 24.199818
  endloop
endfacet
facet normal -0.0 -0.0 1.0
  outer loop
    vertex 151.3107788445556 118.66329115236348 24.199818
    vertex 156.36161678040193 69.96449510710366 24.199818
    vertex 157.52285926198175 112.09909255050127 24.199818
  endloop
endfacet
facet normal -0.0 -0.0 1.0
  outer loop
    vertex 157.52285926198175 112.09909255050127 24.199818
    vertex 156.36161678040193 69.96449510710366 24.199818
    vertex 161.09434101709292 77.66384363127742 24.199818
  endloop
endfacet
facet normal -0.0 -0.0 1.0
  outer loop
    vertex 157.52285926198175 112.09909255050127 24.199818
    vertex 161.09434101709292 77.66384363127742 24.199818
    vertex 161.82432855816094 104.15075887033365 24.199818
  endloop
endfacet
facet normal -0.0 -0.0 1.0
  outer loop
    vertex 161.82432855816094 104.15075887033365 24.199818
    vertex 161.09434101709292 77.66384363127742 24.199818
    vertex 163.67306355307886 86.32576238405142 24.199818
  endloop
endfacet
facet normal -0.0 -0.0 1.0
  outer loop
    vertex 161.82432855816094 104.15075887033365 24.199818
    vertex 163.67306355307886 86.32576238405142 24.199818
    vertex 163.92204870907273 95.3599559169216 24.199818
  endloop
endfacet
facet normal -0.0 -0.0 1.0
  outer loop
    vertex 97.1492710215368 79.42618945328715 24.199818
    vertex 95.30053602661889 97.2511859395694 24.199818
    vertex 95.05155087062504 88.21699240669919 24.199818
  endloop
endfacet
facet normal -0.0 -0.0 1.0
  outer loop
    vertex 95.30053602661889 97.2511859395694 24.199818
    vertex 97.1492710215368 79.42618945328715 24.199818
    vertex 97.87925856260479 105.9131046923434 24.199818
  endloop
endfacet
facet normal -0.0 -0.0 1.0
  outer loop
    vertex 97.87925856260479 105.9131046923434 24.199818
    vertex 97.1492710215368 79.42618945328715 24.199818
    vertex 101.45074031771601 71.47785577311954 24.199818
  endloop
endfacet
facet normal -0.0 -0.0 1.0
  outer loop
    vertex 97.87925856260479 105.9131046923434 24.199818
    vertex 101.45074031771601 71.47785577311954 24.199818
    vertex 102.61198279929579 113.61245321651714 24.199818
  endloop
endfacet
facet normal -0.0 -0.0 1.0
  outer loop
    vertex 102.61198279929579 113.61245321651714 24.199818
    vertex 101.45074031771601 71.47785577311954 24.199818
    vertex 107.66282073514215 64.91365717125733 24.199818
  endloop
endfacet
facet normal -0.0 -0.0 1.0
  outer loop
    vertex 102.61198279929579 113.61245321651714 24.199818
    vertex 107.66282073514215 64.91365717125733 24.199818
    vertex 109.176181401158 119.82453363394328 24.199818
  endloop
endfacet
facet normal -0.0 -0.0 1.0
  outer loop
    vertex 109.176181401158 119.82453363394328 24.199818
    vertex 107.66282073514215 64.91365717125733 24.199818
    vertex 115.36216925931589 60.18093293456633 24.199818
  endloop
endfacet
facet normal -0.0 -0.0 1.0
  outer loop
    vertex 109.176181401158 119.82453363394328 24.199818
    vertex 115.36216925931589 60.18093293456633 24.199818
    vertex 117.12451508132563 124.12600293012247 24.199818
  endloop
endfacet
facet normal -0.0 -0.0 1.0
  outer loop
    vertex 117.12451508132563 124.12600293012247 24.199818
    vertex 115.36216925931589 60.18093293456633 24.199818
    vertex 124.02408801208988 57.602210398580425 24.199818
  endloop
endfacet
facet normal -0.0 -0.0 1.0
  outer loop
    vertex 117.12451508132563 124.12600293012247 24.199818
    vertex 124.02408801208988 57.602210398580425 24.199818
    vertex 124.20305765694566 91.88650451383619 24.199818
  endloop
endfacet
facet normal -0.0 -0.0 1.0
  outer loop
    vertex 117.12451508132563 124.12600293012247 24.199818
    vertex 124.20305765694566 91.88650451383619 24.199818
    vertex 125.91531803473767 126.22372308103424 24.199818
  endloop
endfacet
facet normal -0.0 -0.0 1.0
  outer loop
    vertex 125.91531803473767 126.22372308103424 24.199818
    vertex 124.20305765694566 91.88650451383619 24.199818
    vertex 124.3962131292457 93.21588459326621 24.199818
  endloop
endfacet
facet normal -0.0 -0.0 1.0
  outer loop
    vertex 125.91531803473767 126.22372308103424 24.199818
    vertex 124.3962131292457 93.21588459326621 24.199818
    vertex 124.92685587116571 94.44997483004487 24.199818
  endloop
endfacet
facet normal -0.0 -0.0 1.0
  outer loop
    vertex 125.91531803473767 126.22372308103424 24.199818
    vertex 124.92685587116571 94.44997483004487 24.199818
    vertex 125.75882345677255 95.50467401396622 24.199818
  endloop
endfacet
facet normal -0.0 -0.0 1.0
  outer loop
    vertex 125.91531803473767 126.22372308103424 24.199818
    vertex 125.75882345677255 95.50467401396622 24.199818
    vertex 126.83541866999843 96.30810613861887 24.199818
  endloop
endfacet
facet normal -0.0 -0.0 1.0
  outer loop
    vertex 125.91531803473767 126.22372308103424 24.199818
    vertex 126.83541866999843 96.30810613861887 24.199818
    vertex 134.94951156760786 125.97473792504039 24.199818
  endloop
endfacet
facet normal -0.0 -0.0 1.0
  outer loop
    vertex 134.94951156760786 125.97473792504039 24.199818
    vertex 126.83541866999843 96.30810613861887 24.199818
    vertex 128.08327332621982 96.80551863244207 24.199818
  endloop
endfacet
facet normal -0.0 -0.0 1.0
  outer loop
    vertex 134.94951156760786 125.97473792504039 24.199818
    vertex 128.08327332621982 96.80551863244207 24.199818
    vertex 129.4173481927925 96.96301365599481 24.199818
  endloop
endfacet
facet normal -0.0 -0.0 1.0
  outer loop
    vertex 134.94951156760786 125.97473792504039 24.199818
    vertex 129.4173481927925 96.96301365599481 24.199818
    vertex 130.7467282722225 96.7698581836948 24.199818
  endloop
endfacet
facet normal -0.0 -0.0 1.0
  outer loop
    vertex 134.94951156760786 125.97473792504039 24.199818
    vertex 130.7467282722225 96.7698581836948 24.199818
    vertex 131.98081850900115 96.23921544177476 24.199818
  endloop
endfacet
facet normal -0.0 -0.0 1.0
  outer loop
    vertex 134.94951156760786 125.97473792504039 24.199818
    vertex 131.98081850900115 96.23921544177476 24.199818
    vertex 133.03551769292253 95.40724785616796 24.199818
  endloop
endfacet
facet normal -0.0 -0.0 1.0
  outer loop
    vertex 134.94951156760786 125.97473792504039 24.199818
    vertex 133.03551769292253 95.40724785616796 24.199818
    vertex 133.83894981757518 94.33065264294206 24.199818
  endloop
endfacet
facet normal -0.0 -0.0 1.0
  outer loop
    vertex 134.94951156760786 125.97473792504039 24.199818
    vertex 133.83894981757518 94.33065264294206 24.199818
    vertex 134.33636231139837 93.08279798672066 24.199818
  endloop
endfacet
facet normal -0.0 -0.0 1.0
  outer loop
    vertex 134.94951156760786 125.97473792504039 24.199818
    vertex 134.33636231139837 93.08279798672066 24.199818
    vertex 134.49385733495112 91.74872312014799 24.199818
  endloop
endfacet
facet normal 0.7263190689058036 0.6873577017418271 0.0
  outer loop
    vertex 151.3107788445556 118.66329115236348 20.223768999999994
    vertex 157.52285926198175 112.09909255050127 24.199818
    vertex 157.52285926198175 112.09909255050127 20.223768999999994
  endloop
endfacet
facet normal 0.7263190689058036 0.6873577017418271 0.0
  outer loop
    vertex 157.52285926198175 112.09909255050127 24.199818
    vertex 151.3107788445556 118.66329115236348 20.223768999999994
    vertex 151.3107788445556 118.66329115236348 24.199818
  endloop
endfacet
facet normal 0.5236690827736611 0.8519217638650821 0.0
  outer loop
    vertex 143.61143032038183 123.39601538905448 24.199818
    vertex 151.3107788445556 118.66329115236348 20.223768999999994
    vertex 143.61143032038183 123.39601538905448 20.223768999999994
  endloop
endfacet
facet normal 0.5236690827736611 0.8519217638650821 0.0
  outer loop
    vertex 151.3107788445556 118.66329115236348 20.223768999999994
    vertex 143.61143032038183 123.39601538905448 24.199818
    vertex 151.3107788445556 118.66329115236348 24.199818
  endloop
endfacet
facet normal 0.2853319140545717 0.9584287656482118 0.0
  outer loop
    vertex 134.94951156760786 125.97473792504039 24.199818
    vertex 143.61143032038183 123.39601538905448 20.223768999999994
    vertex 134.94951156760786 125.97473792504039 20.223768999999994
  endloop
endfacet
facet normal 0.2853319140545717 0.9584287656482118 0.0
  outer loop
    vertex 143.61143032038183 123.39601538905448 20.223768999999994
    vertex 134.94951156760786 125.97473792504039 24.199818
    vertex 143.61143032038183 123.39601538905448 24.199818
  endloop
endfacet
facet normal 0.027549846925947065 0.9996204309308395 0.0
  outer loop
    vertex 125.91531803473767 126.22372308103424 24.199818
    vertex 134.94951156760786 125.97473792504039 20.223768999999994
    vertex 125.91531803473767 126.22372308103424 20.223768999999994
  endloop
endfacet
facet normal 0.027549846925947065 0.9996204309308395 0.0
  outer loop
    vertex 134.94951156760786 125.97473792504039 20.223768999999994
    vertex 125.91531803473767 126.22372308103424 24.199818
    vertex 134.94951156760786 125.97473792504039 24.199818
  endloop
endfacet
facet normal -0.23210969674240783 0.9726896157963998 0.0
  outer loop
    vertex 117.12451508132563 124.12600293012247 24.199818
    vertex 125.91531803473767 126.22372308103424 20.223768999999994
    vertex 117.12451508132563 124.12600293012247 20.223768999999994
  endloop
endfacet
facet normal -0.23210969674240783 0.9726896157963998 0.0
  outer loop
    vertex 125.91531803473767 126.22372308103424 20.223768999999994
    vertex 117.12451508132563 124.12600293012247 24.199818
    vertex 125.91531803473767 126.22372308103424 24.199818
  endloop
endfacet
facet normal -0.4759513481571758 0.8794716107910288 0.0
  outer loop
    vertex 109.176181401158 119.82453363394328 24.199818
    vertex 117.12451508132563 124.12600293012247 20.223768999999994
    vertex 109.176181401158 119.82453363394328 20.223768999999994
  endloop
endfacet
facet normal -0.4759513481571758 0.8794716107910288 0.0
  outer loop
    vertex 117.12451508132563 124.12600293012247 20.223768999999994
    vertex 109.176181401158 119.82453363394328 24.199818
    vertex 117.12451508132563 124.12600293012247 24.199818
  endloop
endfacet
facet normal -0.6873577017418271 0.7263190689058036 0.0
  outer loop
    vertex 102.61198279929579 113.61245321651714 24.199818
    vertex 109.176181401158 119.82453363394328 20.223768999999994
    vertex 102.61198279929579 113.61245321651714 20.223768999999994
  endloop
endfacet
facet normal -0.6873577017418271 0.7263190689058036 0.0
  outer loop
    vertex 109.176181401158 119.82453363394328 20.223768999999994
    vertex 102.61198279929579 113.61245321651714 24.199818
    vertex 109.176181401158 119.82453363394328 24.199818
  endloop
endfacet
facet normal -0.8519217638650813 0.5236690827736622 0.0
  outer loop
    vertex 102.61198279929579 113.61245321651714 24.199818
    vertex 97.87925856260479 105.9131046923434 20.223768999999994
    vertex 97.87925856260479 105.9131046923434 24.199818
  endloop
endfacet
facet normal -0.8519217638650813 0.5236690827736622 0.0
  outer loop
    vertex 97.87925856260479 105.9131046923434 20.223768999999994
    vertex 102.61198279929579 113.61245321651714 24.199818
    vertex 102.61198279929579 113.61245321651714 20.223768999999994
  endloop
endfacet
facet normal -0.9584287656482116 0.2853319140545725 0.0
  outer loop
    vertex 97.87925856260479 105.9131046923434 24.199818
    vertex 95.30053602661889 97.2511859395694 20.223768999999994
    vertex 95.30053602661889 97.2511859395694 24.199818
  endloop
endfacet
facet normal -0.9584287656482116 0.2853319140545725 0.0
  outer loop
    vertex 95.30053602661889 97.2511859395694 20.223768999999994
    vertex 97.87925856260479 105.9131046923434 24.199818
    vertex 97.87925856260479 105.9131046923434 20.223768999999994
  endloop
endfacet
facet normal -0.9996204309308395 0.02754984692594703 0.0
  outer loop
    vertex 95.30053602661889 97.2511859395694 24.199818
    vertex 95.05155087062504 88.21699240669919 20.223768999999994
    vertex 95.05155087062504 88.21699240669919 24.199818
  endloop
endfacet
facet normal -0.9996204309308395 0.02754984692594703 0.0
  outer loop
    vertex 95.05155087062504 88.21699240669919 20.223768999999994
    vertex 95.30053602661889 97.2511859395694 24.199818
    vertex 95.30053602661889 97.2511859395694 20.223768999999994
  endloop
endfacet
facet normal -0.9726896157963997 -0.23210969674240753 -0.0
  outer loop
    vertex 95.05155087062504 88.21699240669919 24.199818
    vertex 97.1492710215368 79.42618945328715 20.223768999999994
    vertex 97.1492710215368 79.42618945328715 24.199818
  endloop
endfacet
facet normal -0.9726896157963997 -0.23210969674240753 -0.0
  outer loop
    vertex 97.1492710215368 79.42618945328715 20.223768999999994
    vertex 95.05155087062504 88.21699240669919 24.199818
    vertex 95.05155087062504 88.21699240669919 20.223768999999994
  endloop
endfacet
facet normal -0.879471610791028 -0.47595134815717727 -0.0
  outer loop
    vertex 97.1492710215368 79.42618945328715 24.199818
    vertex 101.45074031771601 71.47785577311954 20.223768999999994
    vertex 101.45074031771601 71.47785577311954 24.199818
  endloop
endfacet
facet normal -0.879471610791028 -0.47595134815717727 -0.0
  outer loop
    vertex 101.45074031771601 71.47785577311954 20.223768999999994
    vertex 97.1492710215368 79.42618945328715 24.199818
    vertex 97.1492710215368 79.42618945328715 20.223768999999994
  endloop
endfacet
facet normal -0.7263190689058036 -0.6873577017418271 -0.0
  outer loop
    vertex 101.45074031771601 71.47785577311954 24.199818
    vertex 107.66282073514215 64.91365717125733 20.223768999999994
    vertex 107.66282073514215 64.91365717125733 24.199818
  endloop
endfacet
facet normal -0.7263190689058036 -0.6873577017418271 -0.0
  outer loop
    vertex 107.66282073514215 64.91365717125733 20.223768999999994
    vertex 101.45074031771601 71.47785577311954 24.199818
    vertex 101.45074031771601 71.47785577311954 20.223768999999994
  endloop
endfacet
facet normal -0.5236690827736622 -0.8519217638650813 -0.0
  outer loop
    vertex 115.36216925931589 60.18093293456633 24.199818
    vertex 107.66282073514215 64.91365717125733 20.223768999999994
    vertex 115.36216925931589 60.18093293456633 20.223768999999994
  endloop
endfacet
facet normal -0.5236690827736622 -0.8519217638650813 -0.0
  outer loop
    vertex 107.66282073514215 64.91365717125733 20.223768999999994
    vertex 115.36216925931589 60.18093293456633 24.199818
    vertex 107.66282073514215 64.91365717125733 24.199818
  endloop
endfacet
facet normal -0.2853319140545728 -0.9584287656482113 -0.0
  outer loop
    vertex 124.02408801208988 57.602210398580425 24.199818
    vertex 115.36216925931589 60.18093293456633 20.223768999999994
    vertex 124.02408801208988 57.602210398580425 20.223768999999994
  endloop
endfacet
facet normal -0.2853319140545728 -0.9584287656482113 -0.0
  outer loop
    vertex 115.36216925931589 60.18093293456633 20.223768999999994
    vertex 124.02408801208988 57.602210398580425 24.199818
    vertex 115.36216925931589 60.18093293456633 24.199818
  endloop
endfacet
facet normal -0.027549846925946996 -0.9996204309308395 -0.0
  outer loop
    vertex 133.0582815449601 57.353225242586575 24.199818
    vertex 124.02408801208988 57.602210398580425 20.223768999999994
    vertex 133.0582815449601 57.353225242586575 20.223768999999994
  endloop
endfacet
facet normal -0.027549846925946996 -0.9996204309308395 -0.0
  outer loop
    vertex 124.02408801208988 57.602210398580425 20.223768999999994
    vertex 133.0582815449601 57.353225242586575 24.199818
    vertex 124.02408801208988 57.602210398580425 24.199818
  endloop
endfacet
facet normal 0.2321096967424066 -0.9726896157963999 0.0
  outer loop
    vertex 141.84908449837212 59.45094539349832 24.199818
    vertex 133.0582815449601 57.353225242586575 20.223768999999994
    vertex 141.84908449837212 59.45094539349832 20.223768999999994
  endloop
endfacet
facet normal 0.2321096967424066 -0.9726896157963999 0.0
  outer loop
    vertex 133.0582815449601 57.353225242586575 20.223768999999994
    vertex 141.84908449837212 59.45094539349832 24.199818
    vertex 133.0582815449601 57.353225242586575 24.199818
  endloop
endfacet
facet normal 0.47595134815717777 -0.8794716107910278 0.0
  outer loop
    vertex 149.79741817853974 63.752414689677536 24.199818
    vertex 141.84908449837212 59.45094539349832 20.223768999999994
    vertex 149.79741817853974 63.752414689677536 20.223768999999994
  endloop
endfacet
facet normal 0.47595134815717777 -0.8794716107910278 0.0
  outer loop
    vertex 141.84908449837212 59.45094539349832 20.223768999999994
    vertex 149.79741817853974 63.752414689677536 24.199818
    vertex 141.84908449837212 59.45094539349832 24.199818
  endloop
endfacet
facet normal 0.6873577017418278 -0.726319068905803 0.0
  outer loop
    vertex 156.36161678040193 69.96449510710366 24.199818
    vertex 149.79741817853974 63.752414689677536 20.223768999999994
    vertex 156.36161678040193 69.96449510710366 20.223768999999994
  endloop
endfacet
facet normal 0.6873577017418278 -0.726319068905803 0.0
  outer loop
    vertex 149.79741817853974 63.752414689677536 20.223768999999994
    vertex 156.36161678040193 69.96449510710366 24.199818
    vertex 149.79741817853974 63.752414689677536 24.199818
  endloop
endfacet
facet normal 0.8519217638650813 -0.5236690827736622 0.0
  outer loop
    vertex 161.09434101709292 77.66384363127742 20.223768999999994
    vertex 156.36161678040193 69.96449510710366 24.199818
    vertex 156.36161678040193 69.96449510710366 20.223768999999994
  endloop
endfacet
facet normal 0.8519217638650813 -0.5236690827736622 0.0
  outer loop
    vertex 156.36161678040193 69.96449510710366 24.199818
    vertex 161.09434101709292 77.66384363127742 20.223768999999994
    vertex 161.09434101709292 77.66384363127742 24.199818
  endloop
endfacet
facet normal 0.9584287656482104 -0.28533191405457553 0.0
  outer loop
    vertex 163.67306355307886 86.32576238405142 20.223768999999994
    vertex 161.09434101709292 77.66384363127742 24.199818
    vertex 161.09434101709292 77.66384363127742 20.223768999999994
  endloop
endfacet
facet normal 0.9584287656482104 -0.28533191405457553 0.0
  outer loop
    vertex 161.09434101709292 77.66384363127742 24.199818
    vertex 163.67306355307886 86.32576238405142 20.223768999999994
    vertex 163.67306355307886 86.32576238405142 24.199818
  endloop
endfacet
facet normal 0.9996204309308395 -0.027549846925947065 0.0
  outer loop
    vertex 163.92204870907273 95.3599559169216 20.223768999999994
    vertex 163.67306355307886 86.32576238405142 24.199818
    vertex 163.67306355307886 86.32576238405142 20.223768999999994
  endloop
endfacet
facet normal 0.9996204309308395 -0.027549846925947065 0.0
  outer loop
    vertex 163.67306355307886 86.32576238405142 24.199818
    vertex 163.92204870907273 95.3599559169216 20.223768999999994
    vertex 163.92204870907273 95.3599559169216 24.199818
  endloop
endfacet
facet normal 0.9726896157963997 0.23210969674240753 0.0
  outer loop
    vertex 161.82432855816094 104.15075887033365 20.223768999999994
    vertex 163.92204870907273 95.3599559169216 24.199818
    vertex 163.92204870907273 95.3599559169216 20.223768999999994
  endloop
endfacet
facet normal 0.9726896157963997 0.23210969674240753 0.0
  outer loop
    vertex 163.92204870907273 95.3599559169216 24.199818
    vertex 161.82432855816094 104.15075887033365 20.223768999999994
    vertex 161.82432855816094 104.15075887033365 24.199818
  endloop
endfacet
facet normal 0.8794716107910278 0.47595134815717777 0.0
  outer loop
    vertex 157.52285926198175 112.09909255050127 20.223768999999994
    vertex 161.82432855816094 104.15075887033365 24.199818
    vertex 161.82432855816094 104.15075887033365 20.223768999999994
  endloop
endfacet
facet normal 0.8794716107910278 0.47595134815717777 0.0
  outer loop
    vertex 161.82432855816094 104.15075887033365 24.199818
    vertex 157.52285926198175 112.09909255050127 20.223768999999994
    vertex 157.52285926198175 112.09909255050127 24.199818
  endloop
endfacet
endsolid Center Post for Wall Thing
