solid Center Post for Wall Thing V2
facet normal -0.0 -0.0 1.0
  outer loop
    vertex 140.30866532710456 166.8848748747205 0.0
    vertex 140.30866532710456 185.00220803189697 0.0
    vertex 139.11606924722196 175.94354145330874 0.0
  endloop
endfacet
facet normal -0.0 -0.0 1.0
  outer loop
    vertex 140.30866532710456 185.00220803189697 0.0
    vertex 140.30866532710456 166.8848748747205 0.0
    vertex 143.80518011476659 158.44354145330874 0.0
  endloop
endfacet
facet normal -0.0 -0.0 1.0
  outer loop
    vertex 140.30866532710456 185.00220803189697 0.0
    vertex 143.80518011476659 158.44354145330874 0.0
    vertex 143.80518011476659 193.44354145330874 0.0
  endloop
endfacet
facet normal -0.0 -0.0 1.0
  outer loop
    vertex 143.80518011476659 193.44354145330874 0.0
    vertex 143.80518011476659 158.44354145330874 0.0
    vertex 149.36733190569277 151.1948041117796 0.0
  endloop
endfacet
facet normal -0.0 -0.0 1.0
  outer loop
    vertex 143.80518011476659 193.44354145330874 0.0
    vertex 149.36733190569277 151.1948041117796 0.0
    vertex 149.36733190569277 200.6922787948379 0.0
  endloop
endfacet
facet normal -0.0 -0.0 1.0
  outer loop
    vertex 149.36733190569277 200.6922787948379 0.0
    vertex 149.36733190569277 151.1948041117796 0.0
    vertex 156.6160692472219 145.6326523208534 0.0
  endloop
endfacet
facet normal -0.0 -0.0 1.0
  outer loop
    vertex 149.36733190569277 200.6922787948379 0.0
    vertex 156.6160692472219 145.6326523208534 0.0
    vertex 156.61606924722193 206.25443058576408 0.0
  endloop
endfacet
facet normal -0.0 -0.0 1.0
  outer loop
    vertex 156.61606924722193 206.25443058576408 0.0
    vertex 156.6160692472219 145.6326523208534 0.0
    vertex 165.0574026686337 142.13613753319137 0.0
  endloop
endfacet
facet normal -0.0 -0.0 1.0
  outer loop
    vertex 156.61606924722193 206.25443058576408 0.0
    vertex 165.0574026686337 142.13613753319137 0.0
    vertex 165.0574026686337 209.7509453734261 0.0
  endloop
endfacet
facet normal -0.0 -0.0 1.0
  outer loop
    vertex 165.0574026686337 209.7509453734261 0.0
    vertex 165.0574026686337 142.13613753319137 0.0
    vertex 168.08594249444374 175.94354145330874 0.0
  endloop
endfacet
facet normal -0.0 -0.0 1.0
  outer loop
    vertex 168.08594249444374 175.94354145330874 0.0
    vertex 165.0574026686337 142.13613753319137 0.0
    vertex 168.29141408091687 174.38282980530752 0.0
  endloop
endfacet
facet normal -0.0 -0.0 1.0
  outer loop
    vertex 168.29141408091687 174.38282980530752 0.0
    vertex 165.0574026686337 142.13613753319137 0.0
    vertex 174.11606924722193 140.94354145330877 0.0
  endloop
endfacet
facet normal -0.0 -0.0 1.0
  outer loop
    vertex 168.29141408091687 174.38282980530752 0.0
    vertex 174.11606924722193 140.94354145330877 0.0
    vertex 168.89382629127587 172.92847807691965 0.0
  endloop
endfacet
facet normal -0.0 -0.0 1.0
  outer loop
    vertex 168.89382629127587 172.92847807691965 0.0
    vertex 174.11606924722193 140.94354145330877 0.0
    vertex 169.85212572891805 171.67959793500486 0.0
  endloop
endfacet
facet normal -0.0 -0.0 1.0
  outer loop
    vertex 169.85212572891805 171.67959793500486 0.0
    vertex 174.11606924722193 140.94354145330877 0.0
    vertex 171.10100587083284 170.72129849736268 0.0
  endloop
endfacet
facet normal -0.0 -0.0 1.0
  outer loop
    vertex 171.10100587083284 170.72129849736268 0.0
    vertex 174.11606924722193 140.94354145330877 0.0
    vertex 172.5553575992207 170.11888628700368 0.0
  endloop
endfacet
facet normal -0.0 -0.0 1.0
  outer loop
    vertex 172.5553575992207 170.11888628700368 0.0
    vertex 174.11606924722193 140.94354145330877 0.0
    vertex 174.11606924722193 169.91341470053058 0.0
  endloop
endfacet
facet normal -0.0 -0.0 1.0
  outer loop
    vertex 174.11606924722193 169.91341470053058 0.0
    vertex 174.11606924722193 140.94354145330877 0.0
    vertex 183.17473582581013 142.13613753319137 0.0
  endloop
endfacet
facet normal -0.0 -0.0 1.0
  outer loop
    vertex 174.11606924722193 169.91341470053058 0.0
    vertex 183.17473582581013 142.13613753319137 0.0
    vertex 175.67678089522312 170.11888628700368 0.0
  endloop
endfacet
facet normal -0.0 -0.0 1.0
  outer loop
    vertex 175.67678089522312 170.11888628700368 0.0
    vertex 183.17473582581013 142.13613753319137 0.0
    vertex 177.13113262361102 170.72129849736268 0.0
  endloop
endfacet
facet normal -0.0 -0.0 1.0
  outer loop
    vertex 177.13113262361102 170.72129849736268 0.0
    vertex 183.17473582581013 142.13613753319137 0.0
    vertex 178.3800127655258 171.67959793500486 0.0
  endloop
endfacet
facet normal -0.0 -0.0 1.0
  outer loop
    vertex 178.3800127655258 171.67959793500486 0.0
    vertex 183.17473582581013 142.13613753319137 0.0
    vertex 179.338312203168 172.92847807691965 0.0
  endloop
endfacet
facet normal -0.0 -0.0 1.0
  outer loop
    vertex 179.338312203168 172.92847807691965 0.0
    vertex 183.17473582581013 142.13613753319137 0.0
    vertex 179.940724413527 174.38282980530752 0.0
  endloop
endfacet
facet normal -0.0 -0.0 1.0
  outer loop
    vertex 179.940724413527 174.38282980530752 0.0
    vertex 183.17473582581013 142.13613753319137 0.0
    vertex 180.1461960000001 175.94354145330874 0.0
  endloop
endfacet
facet normal -0.0 -0.0 1.0
  outer loop
    vertex 165.0574026686337 209.7509453734261 0.0
    vertex 168.29141408091687 177.50425310130996 0.0
    vertex 174.11606924722193 210.9435414533087 0.0
  endloop
endfacet
facet normal -0.0 -0.0 1.0
  outer loop
    vertex 168.29141408091687 177.50425310130996 0.0
    vertex 165.0574026686337 209.7509453734261 0.0
    vertex 168.08594249444374 175.94354145330874 0.0
  endloop
endfacet
facet normal -0.0 -0.0 1.0
  outer loop
    vertex 174.11606924722193 210.9435414533087 0.0
    vertex 168.29141408091687 177.50425310130996 0.0
    vertex 168.89382629127587 178.95860482969783 0.0
  endloop
endfacet
facet normal -0.0 -0.0 1.0
  outer loop
    vertex 174.11606924722193 210.9435414533087 0.0
    vertex 168.89382629127587 178.95860482969783 0.0
    vertex 169.85212572891805 180.20748497161262 0.0
  endloop
endfacet
facet normal -0.0 -0.0 1.0
  outer loop
    vertex 174.11606924722193 210.9435414533087 0.0
    vertex 169.85212572891805 180.20748497161262 0.0
    vertex 171.10100587083284 181.1657844092548 0.0
  endloop
endfacet
facet normal -0.0 -0.0 1.0
  outer loop
    vertex 174.11606924722193 210.9435414533087 0.0
    vertex 171.10100587083284 181.1657844092548 0.0
    vertex 172.5553575992207 181.7681966196138 0.0
  endloop
endfacet
facet normal -0.0 -0.0 1.0
  outer loop
    vertex 174.11606924722193 210.9435414533087 0.0
    vertex 172.5553575992207 181.7681966196138 0.0
    vertex 174.11606924722193 181.9736682060869 0.0
  endloop
endfacet
facet normal -0.0 -0.0 1.0
  outer loop
    vertex 174.11606924722193 210.9435414533087 0.0
    vertex 174.11606924722193 181.9736682060869 0.0
    vertex 175.67678089522312 181.7681966196138 0.0
  endloop
endfacet
facet normal -0.0 -0.0 1.0
  outer loop
    vertex 174.11606924722193 210.9435414533087 0.0
    vertex 175.67678089522312 181.7681966196138 0.0
    vertex 183.17473582581016 209.7509453734261 0.0
  endloop
endfacet
facet normal -0.0 -0.0 1.0
  outer loop
    vertex 183.17473582581016 209.7509453734261 0.0
    vertex 175.67678089522312 181.7681966196138 0.0
    vertex 177.13113262361102 181.1657844092548 0.0
  endloop
endfacet
facet normal -0.0 -0.0 1.0
  outer loop
    vertex 183.17473582581016 209.7509453734261 0.0
    vertex 177.13113262361102 181.1657844092548 0.0
    vertex 178.3800127655258 180.20748497161262 0.0
  endloop
endfacet
facet normal -0.0 -0.0 1.0
  outer loop
    vertex 183.17473582581016 209.7509453734261 0.0
    vertex 178.3800127655258 180.20748497161262 0.0
    vertex 179.338312203168 178.95860482969783 0.0
  endloop
endfacet
facet normal -0.0 -0.0 1.0
  outer loop
    vertex 183.17473582581016 209.7509453734261 0.0
    vertex 179.338312203168 178.95860482969783 0.0
    vertex 179.940724413527 177.50425310130996 0.0
  endloop
endfacet
facet normal -0.0 -0.0 1.0
  outer loop
    vertex 183.17473582581016 209.7509453734261 0.0
    vertex 179.940724413527 177.50425310130996 0.0
    vertex 180.1461960000001 175.94354145330874 0.0
  endloop
endfacet
facet normal -0.0 -0.0 1.0
  outer loop
    vertex 183.17473582581016 209.7509453734261 0.0
    vertex 180.1461960000001 175.94354145330874 0.0
    vertex 183.17473582581013 142.13613753319137 0.0
  endloop
endfacet
facet normal -0.0 -0.0 1.0
  outer loop
    vertex 183.17473582581016 209.7509453734261 0.0
    vertex 183.17473582581013 142.13613753319137 0.0
    vertex 191.6160692472219 145.6326523208534 0.0
  endloop
endfacet
facet normal -0.0 -0.0 1.0
  outer loop
    vertex 183.17473582581016 209.7509453734261 0.0
    vertex 191.6160692472219 145.6326523208534 0.0
    vertex 191.61606924722193 206.25443058576408 0.0
  endloop
endfacet
facet normal -0.0 -0.0 1.0
  outer loop
    vertex 191.61606924722193 206.25443058576408 0.0
    vertex 191.6160692472219 145.6326523208534 0.0
    vertex 198.8648065887511 151.19480411177958 0.0
  endloop
endfacet
facet normal -0.0 -0.0 1.0
  outer loop
    vertex 191.61606924722193 206.25443058576408 0.0
    vertex 198.8648065887511 151.19480411177958 0.0
    vertex 198.8648065887511 200.6922787948379 0.0
  endloop
endfacet
facet normal -0.0 -0.0 1.0
  outer loop
    vertex 198.8648065887511 200.6922787948379 0.0
    vertex 198.8648065887511 151.19480411177958 0.0
    vertex 204.42695837967725 158.44354145330874 0.0
  endloop
endfacet
facet normal -0.0 -0.0 1.0
  outer loop
    vertex 198.8648065887511 200.6922787948379 0.0
    vertex 204.42695837967725 158.44354145330874 0.0
    vertex 204.42695837967727 193.44354145330874 0.0
  endloop
endfacet
facet normal -0.0 -0.0 1.0
  outer loop
    vertex 204.42695837967727 193.44354145330874 0.0
    vertex 204.42695837967725 158.44354145330874 0.0
    vertex 207.9234731673393 166.8848748747205 0.0
  endloop
endfacet
facet normal -0.0 -0.0 1.0
  outer loop
    vertex 204.42695837967727 193.44354145330874 0.0
    vertex 207.9234731673393 166.8848748747205 0.0
    vertex 207.9234731673393 185.00220803189697 0.0
  endloop
endfacet
facet normal -0.0 -0.0 1.0
  outer loop
    vertex 207.9234731673393 185.00220803189697 0.0
    vertex 207.9234731673393 166.8848748747205 0.0
    vertex 209.1160692472219 175.94354145330874 0.0
  endloop
endfacet
facet normal 0.0 0.0 -1.0
  outer loop
    vertex 168.29141408091687 177.50425310130996 -50.0
    vertex 168.29141408091687 174.38282980530752 -50.0
    vertex 168.08594249444374 175.94354145330874 -50.0
  endloop
endfacet
facet normal 0.0 0.0 -1.0
  outer loop
    vertex 168.29141408091687 174.38282980530752 -50.0
    vertex 168.29141408091687 177.50425310130996 -50.0
    vertex 168.89382629127587 178.95860482969783 -50.0
  endloop
endfacet
facet normal 0.0 0.0 -1.0
  outer loop
    vertex 168.29141408091687 174.38282980530752 -50.0
    vertex 168.89382629127587 178.95860482969783 -50.0
    vertex 168.89382629127587 172.92847807691965 -50.0
  endloop
endfacet
facet normal 0.0 0.0 -1.0
  outer loop
    vertex 168.89382629127587 172.92847807691965 -50.0
    vertex 168.89382629127587 178.95860482969783 -50.0
    vertex 169.85212572891805 180.20748497161262 -50.0
  endloop
endfacet
facet normal 0.0 0.0 -1.0
  outer loop
    vertex 168.89382629127587 172.92847807691965 -50.0
    vertex 169.85212572891805 180.20748497161262 -50.0
    vertex 169.85212572891805 171.67959793500486 -50.0
  endloop
endfacet
facet normal 0.0 0.0 -1.0
  outer loop
    vertex 169.85212572891805 171.67959793500486 -50.0
    vertex 169.85212572891805 180.20748497161262 -50.0
    vertex 171.10100587083284 181.1657844092548 -50.0
  endloop
endfacet
facet normal 0.0 0.0 -1.0
  outer loop
    vertex 169.85212572891805 171.67959793500486 -50.0
    vertex 171.10100587083284 181.1657844092548 -50.0
    vertex 171.10100587083284 170.72129849736268 -50.0
  endloop
endfacet
facet normal 0.0 0.0 -1.0
  outer loop
    vertex 171.10100587083284 170.72129849736268 -50.0
    vertex 171.10100587083284 181.1657844092548 -50.0
    vertex 172.5553575992207 181.7681966196138 -50.0
  endloop
endfacet
facet normal 0.0 0.0 -1.0
  outer loop
    vertex 171.10100587083284 170.72129849736268 -50.0
    vertex 172.5553575992207 181.7681966196138 -50.0
    vertex 172.5553575992207 170.11888628700368 -50.0
  endloop
endfacet
facet normal 0.0 0.0 -1.0
  outer loop
    vertex 172.5553575992207 170.11888628700368 -50.0
    vertex 172.5553575992207 181.7681966196138 -50.0
    vertex 174.11606924722193 181.9736682060869 -50.0
  endloop
endfacet
facet normal 0.0 0.0 -1.0
  outer loop
    vertex 172.5553575992207 170.11888628700368 -50.0
    vertex 174.11606924722193 181.9736682060869 -50.0
    vertex 174.11606924722193 169.91341470053058 -50.0
  endloop
endfacet
facet normal 0.0 0.0 -1.0
  outer loop
    vertex 174.11606924722193 169.91341470053058 -50.0
    vertex 174.11606924722193 181.9736682060869 -50.0
    vertex 175.67678089522312 181.7681966196138 -50.0
  endloop
endfacet
facet normal 0.0 0.0 -1.0
  outer loop
    vertex 174.11606924722193 169.91341470053058 -50.0
    vertex 175.67678089522312 181.7681966196138 -50.0
    vertex 175.67678089522312 170.11888628700368 -50.0
  endloop
endfacet
facet normal 0.0 0.0 -1.0
  outer loop
    vertex 175.67678089522312 170.11888628700368 -50.0
    vertex 175.67678089522312 181.7681966196138 -50.0
    vertex 177.13113262361102 181.1657844092548 -50.0
  endloop
endfacet
facet normal 0.0 0.0 -1.0
  outer loop
    vertex 175.67678089522312 170.11888628700368 -50.0
    vertex 177.13113262361102 181.1657844092548 -50.0
    vertex 177.13113262361102 170.72129849736268 -50.0
  endloop
endfacet
facet normal 0.0 0.0 -1.0
  outer loop
    vertex 177.13113262361102 170.72129849736268 -50.0
    vertex 177.13113262361102 181.1657844092548 -50.0
    vertex 178.3800127655258 180.20748497161262 -50.0
  endloop
endfacet
facet normal 0.0 0.0 -1.0
  outer loop
    vertex 177.13113262361102 170.72129849736268 -50.0
    vertex 178.3800127655258 180.20748497161262 -50.0
    vertex 178.3800127655258 171.67959793500486 -50.0
  endloop
endfacet
facet normal 0.0 0.0 -1.0
  outer loop
    vertex 178.3800127655258 171.67959793500486 -50.0
    vertex 178.3800127655258 180.20748497161262 -50.0
    vertex 179.338312203168 178.95860482969783 -50.0
  endloop
endfacet
facet normal 0.0 0.0 -1.0
  outer loop
    vertex 178.3800127655258 171.67959793500486 -50.0
    vertex 179.338312203168 178.95860482969783 -50.0
    vertex 179.338312203168 172.92847807691965 -50.0
  endloop
endfacet
facet normal 0.0 0.0 -1.0
  outer loop
    vertex 179.338312203168 172.92847807691965 -50.0
    vertex 179.338312203168 178.95860482969783 -50.0
    vertex 179.940724413527 177.50425310130996 -50.0
  endloop
endfacet
facet normal 0.0 0.0 -1.0
  outer loop
    vertex 179.338312203168 172.92847807691965 -50.0
    vertex 179.940724413527 177.50425310130996 -50.0
    vertex 179.940724413527 174.38282980530752 -50.0
  endloop
endfacet
facet normal 0.0 0.0 -1.0
  outer loop
    vertex 179.940724413527 174.38282980530752 -50.0
    vertex 179.940724413527 177.50425310130996 -50.0
    vertex 180.1461960000001 175.94354145330874 -50.0
  endloop
endfacet
facet normal 0.6087614290087172 -0.7933533402912377 -1.3621351926767206e-19
  outer loop
    vertex 178.3800127655258 171.67959793500486 -5.0
    vertex 177.13113262361102 170.72129849736268 -50.0
    vertex 178.3800127655258 171.67959793500486 -50.0
  endloop
endfacet
facet normal 0.6087614290087172 -0.7933533402912377 -1.3621351926767206e-19
  outer loop
    vertex 177.13113262361102 170.72129849736268 -50.0
    vertex 178.3800127655258 171.67959793500486 -5.0
    vertex 177.13113262361102 170.72129849736268 -5.0
  endloop
endfacet
facet normal 0.3826834323650869 -0.9238795325112881 2.924230018645728e-20
  outer loop
    vertex 177.13113262361102 170.72129849736268 -5.0
    vertex 175.67678089522312 170.11888628700368 -50.0
    vertex 177.13113262361102 170.72129849736268 -50.0
  endloop
endfacet
facet normal 0.3826834323650869 -0.9238795325112881 2.924230018645728e-20
  outer loop
    vertex 175.67678089522312 170.11888628700368 -50.0
    vertex 177.13113262361102 170.72129849736268 -5.0
    vertex 175.67678089522312 170.11888628700368 -5.0
  endloop
endfacet
facet normal 0.13052619222005102 -0.9914448613738105 -9.145050884752518e-20
  outer loop
    vertex 175.67678089522312 170.11888628700368 -5.0
    vertex 174.11606924722193 169.91341470053058 -50.0
    vertex 175.67678089522312 170.11888628700368 -50.0
  endloop
endfacet
facet normal 0.13052619222005102 -0.9914448613738105 -9.145050884752518e-20
  outer loop
    vertex 174.11606924722193 169.91341470053058 -50.0
    vertex 175.67678089522312 170.11888628700368 -5.0
    vertex 174.11606924722193 169.91341470053058 -5.0
  endloop
endfacet
facet normal -0.13052619222005102 -0.9914448613738105 -9.145050884752518e-20
  outer loop
    vertex 174.11606924722193 169.91341470053058 -5.0
    vertex 172.5553575992207 170.11888628700368 -50.0
    vertex 174.11606924722193 169.91341470053058 -50.0
  endloop
endfacet
facet normal -0.13052619222005102 -0.9914448613738105 -9.145050884752518e-20
  outer loop
    vertex 172.5553575992207 170.11888628700368 -50.0
    vertex 174.11606924722193 169.91341470053058 -5.0
    vertex 172.5553575992207 170.11888628700368 -5.0
  endloop
endfacet
facet normal -0.3826834323650869 -0.9238795325112881 -1.7043661559745277e-19
  outer loop
    vertex 172.5553575992207 170.11888628700368 -5.0
    vertex 171.10100587083284 170.72129849736268 -50.0
    vertex 172.5553575992207 170.11888628700368 -50.0
  endloop
endfacet
facet normal -0.3826834323650869 -0.9238795325112881 -1.7043661559745277e-19
  outer loop
    vertex 171.10100587083284 170.72129849736268 -50.0
    vertex 172.5553575992207 170.11888628700368 -5.0
    vertex 171.10100587083284 170.72129849736268 -5.0
  endloop
endfacet
facet normal -0.6087614290087173 -0.7933533402912377 -7.41929919573316e-19
  outer loop
    vertex 171.10100587083284 170.72129849736268 -5.0
    vertex 169.85212572891805 171.67959793500486 -50.0
    vertex 171.10100587083284 170.72129849736268 -50.0
  endloop
endfacet
facet normal -0.6087614290087173 -0.7933533402912377 -7.41929919573316e-19
  outer loop
    vertex 169.85212572891805 171.67959793500486 -50.0
    vertex 171.10100587083284 170.72129849736268 -5.0
    vertex 169.85212572891805 171.67959793500486 -5.0
  endloop
endfacet
facet normal -0.7933533402912377 -0.6087614290087173 -6.810675963398014e-20
  outer loop
    vertex 168.89382629127587 172.92847807691965 -5.0
    vertex 169.85212572891805 171.67959793500486 -50.0
    vertex 169.85212572891805 171.67959793500486 -5.0
  endloop
endfacet
facet normal -0.7933533402912377 -0.6087614290087173 -6.810675963398014e-20
  outer loop
    vertex 169.85212572891805 171.67959793500486 -50.0
    vertex 168.89382629127587 172.92847807691965 -5.0
    vertex 168.89382629127587 172.92847807691965 -50.0
  endloop
endfacet
facet normal -0.9238795325112881 -0.3826834323650869 -4.820675466065792e-19
  outer loop
    vertex 168.29141408091687 174.38282980530752 -5.0
    vertex 168.89382629127587 172.92847807691965 -50.0
    vertex 168.89382629127587 172.92847807691965 -5.0
  endloop
endfacet
facet normal -0.9238795325112881 -0.3826834323650869 -4.820675466065792e-19
  outer loop
    vertex 168.89382629127587 172.92847807691965 -50.0
    vertex 168.29141408091687 174.38282980530752 -5.0
    vertex 168.29141408091687 174.38282980530752 -50.0
  endloop
endfacet
facet normal -0.9914448613738105 -0.13052619222005102 0.0
  outer loop
    vertex 168.08594249444374 175.94354145330874 -5.0
    vertex 168.29141408091687 174.38282980530752 -50.0
    vertex 168.29141408091687 174.38282980530752 -5.0
  endloop
endfacet
facet normal -0.9914448613738105 -0.13052619222005102 0.0
  outer loop
    vertex 168.29141408091687 174.38282980530752 -50.0
    vertex 168.08594249444374 175.94354145330874 -5.0
    vertex 168.08594249444374 175.94354145330874 -50.0
  endloop
endfacet
facet normal -0.9914448613738105 0.13052619222005102 -9.145050884752518e-20
  outer loop
    vertex 168.29141408091687 177.50425310130996 -5.0
    vertex 168.08594249444374 175.94354145330874 -50.0
    vertex 168.08594249444374 175.94354145330874 -5.0
  endloop
endfacet
facet normal -0.9914448613738105 0.13052619222005102 -9.145050884752518e-20
  outer loop
    vertex 168.08594249444374 175.94354145330874 -50.0
    vertex 168.29141408091687 177.50425310130996 -5.0
    vertex 168.29141408091687 177.50425310130996 -50.0
  endloop
endfacet
facet normal -0.9238795325112881 0.38268343236508706 3.4087323119539005e-19
  outer loop
    vertex 168.89382629127587 178.95860482969783 -5.0
    vertex 168.29141408091687 177.50425310130996 -50.0
    vertex 168.29141408091687 177.50425310130996 -5.0
  endloop
endfacet
facet normal -0.9238795325112881 0.38268343236508706 3.4087323119539005e-19
  outer loop
    vertex 168.29141408091687 177.50425310130996 -50.0
    vertex 168.89382629127587 178.95860482969783 -5.0
    vertex 168.89382629127587 178.95860482969783 -50.0
  endloop
endfacet
facet normal -0.7933533402912377 0.6087614290087173 6.810675963398014e-20
  outer loop
    vertex 169.85212572891805 180.20748497161262 -5.0
    vertex 168.89382629127587 178.95860482969783 -50.0
    vertex 168.89382629127587 178.95860482969783 -5.0
  endloop
endfacet
facet normal -0.7933533402912377 0.6087614290087173 6.810675963398014e-20
  outer loop
    vertex 168.89382629127587 178.95860482969783 -50.0
    vertex 169.85212572891805 180.20748497161262 -5.0
    vertex 169.85212572891805 180.20748497161262 -50.0
  endloop
endfacet
facet normal -0.6087614290087173 0.7933533402912377 5.173221995936226e-19
  outer loop
    vertex 169.85212572891805 180.20748497161262 -5.0
    vertex 171.10100587083284 181.1657844092548 -50.0
    vertex 169.85212572891805 180.20748497161262 -50.0
  endloop
endfacet
facet normal -0.6087614290087173 0.7933533402912377 5.173221995936226e-19
  outer loop
    vertex 171.10100587083284 181.1657844092548 -50.0
    vertex 169.85212572891805 180.20748497161262 -5.0
    vertex 171.10100587083284 181.1657844092548 -5.0
  endloop
endfacet
facet normal -0.3826834323650868 0.9238795325112881 3.1163093100883576e-19
  outer loop
    vertex 171.10100587083284 181.1657844092548 -5.0
    vertex 172.5553575992207 181.7681966196138 -50.0
    vertex 171.10100587083284 181.1657844092548 -50.0
  endloop
endfacet
facet normal -0.3826834323650868 0.9238795325112881 3.1163093100883576e-19
  outer loop
    vertex 172.5553575992207 181.7681966196138 -50.0
    vertex 171.10100587083284 181.1657844092548 -5.0
    vertex 172.5553575992207 181.7681966196138 -5.0
  endloop
endfacet
facet normal -0.13052619222005102 0.9914448613738105 -0.0
  outer loop
    vertex 172.5553575992207 181.7681966196138 -5.0
    vertex 174.11606924722193 181.9736682060869 -50.0
    vertex 172.5553575992207 181.7681966196138 -50.0
  endloop
endfacet
facet normal -0.13052619222005102 0.9914448613738105 -0.0
  outer loop
    vertex 174.11606924722193 181.9736682060869 -50.0
    vertex 172.5553575992207 181.7681966196138 -5.0
    vertex 174.11606924722193 181.9736682060869 -5.0
  endloop
endfacet
facet normal 0.13052619222005102 0.9914448613738105 -0.0
  outer loop
    vertex 174.11606924722193 181.9736682060869 -5.0
    vertex 175.67678089522312 181.7681966196138 -50.0
    vertex 174.11606924722193 181.9736682060869 -50.0
  endloop
endfacet
facet normal 0.13052619222005102 0.9914448613738105 -0.0
  outer loop
    vertex 175.67678089522312 181.7681966196138 -50.0
    vertex 174.11606924722193 181.9736682060869 -5.0
    vertex 175.67678089522312 181.7681966196138 -5.0
  endloop
endfacet
facet normal 0.3826834323650869 0.9238795325112881 -2.924230018645728e-20
  outer loop
    vertex 175.67678089522312 181.7681966196138 -5.0
    vertex 177.13113262361102 181.1657844092548 -50.0
    vertex 175.67678089522312 181.7681966196138 -50.0
  endloop
endfacet
facet normal 0.3826834323650869 0.9238795325112881 -2.924230018645728e-20
  outer loop
    vertex 177.13113262361102 181.1657844092548 -50.0
    vertex 175.67678089522312 181.7681966196138 -5.0
    vertex 177.13113262361102 181.1657844092548 -5.0
  endloop
endfacet
facet normal 0.6087614290087173 0.7933533402912377 -5.173221995936226e-19
  outer loop
    vertex 177.13113262361102 181.1657844092548 -5.0
    vertex 178.3800127655258 180.20748497161262 -50.0
    vertex 177.13113262361102 181.1657844092548 -50.0
  endloop
endfacet
facet normal 0.6087614290087173 0.7933533402912377 -5.173221995936226e-19
  outer loop
    vertex 178.3800127655258 180.20748497161262 -50.0
    vertex 177.13113262361102 181.1657844092548 -5.0
    vertex 178.3800127655258 180.20748497161262 -5.0
  endloop
endfacet
facet normal 0.7933533402912377 0.6087614290087173 8.10036679207008e-19
  outer loop
    vertex 178.3800127655258 180.20748497161262 -50.0
    vertex 179.338312203168 178.95860482969783 -5.0
    vertex 179.338312203168 178.95860482969783 -50.0
  endloop
endfacet
facet normal 0.7933533402912377 0.6087614290087173 8.10036679207008e-19
  outer loop
    vertex 179.338312203168 178.95860482969783 -5.0
    vertex 178.3800127655258 180.20748497161262 -50.0
    vertex 178.3800127655258 180.20748497161262 -5.0
  endloop
endfacet
facet normal 0.9238795325112881 0.3826834323650869 2.924230018645728e-20
  outer loop
    vertex 179.338312203168 178.95860482969783 -50.0
    vertex 179.940724413527 177.50425310130996 -5.0
    vertex 179.940724413527 177.50425310130996 -50.0
  endloop
endfacet
facet normal 0.9238795325112881 0.3826834323650869 2.924230018645728e-20
  outer loop
    vertex 179.940724413527 177.50425310130996 -5.0
    vertex 179.338312203168 178.95860482969783 -50.0
    vertex 179.338312203168 178.95860482969783 -5.0
  endloop
endfacet
facet normal 0.9914448613738105 0.13052619222005102 9.145050884752518e-20
  outer loop
    vertex 179.940724413527 177.50425310130996 -50.0
    vertex 180.1461960000001 175.94354145330874 -5.0
    vertex 180.1461960000001 175.94354145330874 -50.0
  endloop
endfacet
facet normal 0.9914448613738105 0.13052619222005102 9.145050884752518e-20
  outer loop
    vertex 180.1461960000001 175.94354145330874 -5.0
    vertex 179.940724413527 177.50425310130996 -50.0
    vertex 179.940724413527 177.50425310130996 -5.0
  endloop
endfacet
facet normal 0.9914448613738105 -0.13052619222005102 9.145050884752518e-20
  outer loop
    vertex 180.1461960000001 175.94354145330874 -50.0
    vertex 179.940724413527 174.38282980530752 -5.0
    vertex 179.940724413527 174.38282980530752 -50.0
  endloop
endfacet
facet normal 0.9914448613738105 -0.13052619222005102 9.145050884752518e-20
  outer loop
    vertex 179.940724413527 174.38282980530752 -5.0
    vertex 180.1461960000001 175.94354145330874 -50.0
    vertex 180.1461960000001 175.94354145330874 -5.0
  endloop
endfacet
facet normal 0.9238795325112881 -0.3826834323650869 1.411943154108986e-19
  outer loop
    vertex 179.940724413527 174.38282980530752 -50.0
    vertex 179.338312203168 172.92847807691965 -5.0
    vertex 179.338312203168 172.92847807691965 -50.0
  endloop
endfacet
facet normal 0.9238795325112881 -0.3826834323650869 1.411943154108986e-19
  outer loop
    vertex 179.338312203168 172.92847807691965 -5.0
    vertex 179.940724413527 174.38282980530752 -50.0
    vertex 179.940724413527 174.38282980530752 -5.0
  endloop
endfacet
facet normal 0.7933533402912377 -0.6087614290087173 -5.173221995936226e-19
  outer loop
    vertex 179.338312203168 172.92847807691965 -50.0
    vertex 178.3800127655258 171.67959793500486 -5.0
    vertex 178.3800127655258 171.67959793500486 -50.0
  endloop
endfacet
facet normal 0.7933533402912377 -0.6087614290087173 -5.173221995936226e-19
  outer loop
    vertex 178.3800127655258 171.67959793500486 -5.0
    vertex 179.338312203168 172.92847807691965 -50.0
    vertex 179.338312203168 172.92847807691965 -5.0
  endloop
endfacet
facet normal 0.0 0.0 -1.0
  outer loop
    vertex 168.29141408091687 177.50425310130996 0.0
    vertex 168.29141408091687 174.38282980530752 0.0
    vertex 168.08594249444374 175.94354145330874 0.0
  endloop
endfacet
facet normal 0.0 0.0 -1.0
  outer loop
    vertex 168.29141408091687 174.38282980530752 0.0
    vertex 168.29141408091687 177.50425310130996 0.0
    vertex 168.89382629127587 178.95860482969783 0.0
  endloop
endfacet
facet normal 0.0 0.0 -1.0
  outer loop
    vertex 168.29141408091687 174.38282980530752 0.0
    vertex 168.89382629127587 178.95860482969783 0.0
    vertex 168.89382629127587 172.92847807691965 0.0
  endloop
endfacet
facet normal 0.0 0.0 -1.0
  outer loop
    vertex 168.89382629127587 172.92847807691965 0.0
    vertex 168.89382629127587 178.95860482969783 0.0
    vertex 169.85212572891805 180.20748497161262 0.0
  endloop
endfacet
facet normal 0.0 0.0 -1.0
  outer loop
    vertex 168.89382629127587 172.92847807691965 0.0
    vertex 169.85212572891805 180.20748497161262 0.0
    vertex 169.85212572891805 171.67959793500486 0.0
  endloop
endfacet
facet normal 0.0 0.0 -1.0
  outer loop
    vertex 169.85212572891805 171.67959793500486 0.0
    vertex 169.85212572891805 180.20748497161262 0.0
    vertex 171.10100587083284 181.1657844092548 0.0
  endloop
endfacet
facet normal 0.0 0.0 -1.0
  outer loop
    vertex 169.85212572891805 171.67959793500486 0.0
    vertex 171.10100587083284 181.1657844092548 0.0
    vertex 171.10100587083284 170.72129849736268 0.0
  endloop
endfacet
facet normal 0.0 0.0 -1.0
  outer loop
    vertex 171.10100587083284 170.72129849736268 0.0
    vertex 171.10100587083284 181.1657844092548 0.0
    vertex 172.5553575992207 181.7681966196138 0.0
  endloop
endfacet
facet normal 0.0 0.0 -1.0
  outer loop
    vertex 171.10100587083284 170.72129849736268 0.0
    vertex 172.5553575992207 181.7681966196138 0.0
    vertex 172.5553575992207 170.11888628700368 0.0
  endloop
endfacet
facet normal 0.0 0.0 -1.0
  outer loop
    vertex 172.5553575992207 170.11888628700368 0.0
    vertex 172.5553575992207 181.7681966196138 0.0
    vertex 174.11606924722193 181.9736682060869 0.0
  endloop
endfacet
facet normal 0.0 0.0 -1.0
  outer loop
    vertex 172.5553575992207 170.11888628700368 0.0
    vertex 174.11606924722193 181.9736682060869 0.0
    vertex 174.11606924722193 169.91341470053058 0.0
  endloop
endfacet
facet normal 0.0 0.0 -1.0
  outer loop
    vertex 174.11606924722193 169.91341470053058 0.0
    vertex 174.11606924722193 181.9736682060869 0.0
    vertex 175.67678089522312 181.7681966196138 0.0
  endloop
endfacet
facet normal 0.0 0.0 -1.0
  outer loop
    vertex 174.11606924722193 169.91341470053058 0.0
    vertex 175.67678089522312 181.7681966196138 0.0
    vertex 175.67678089522312 170.11888628700368 0.0
  endloop
endfacet
facet normal 0.0 0.0 -1.0
  outer loop
    vertex 175.67678089522312 170.11888628700368 0.0
    vertex 175.67678089522312 181.7681966196138 0.0
    vertex 177.13113262361102 181.1657844092548 0.0
  endloop
endfacet
facet normal 0.0 0.0 -1.0
  outer loop
    vertex 175.67678089522312 170.11888628700368 0.0
    vertex 177.13113262361102 181.1657844092548 0.0
    vertex 177.13113262361102 170.72129849736268 0.0
  endloop
endfacet
facet normal 0.0 0.0 -1.0
  outer loop
    vertex 177.13113262361102 170.72129849736268 0.0
    vertex 177.13113262361102 181.1657844092548 0.0
    vertex 178.3800127655258 180.20748497161262 0.0
  endloop
endfacet
facet normal 0.0 0.0 -1.0
  outer loop
    vertex 177.13113262361102 170.72129849736268 0.0
    vertex 178.3800127655258 180.20748497161262 0.0
    vertex 178.3800127655258 171.67959793500486 0.0
  endloop
endfacet
facet normal 0.0 0.0 -1.0
  outer loop
    vertex 178.3800127655258 171.67959793500486 0.0
    vertex 178.3800127655258 180.20748497161262 0.0
    vertex 179.338312203168 178.95860482969783 0.0
  endloop
endfacet
facet normal 0.0 0.0 -1.0
  outer loop
    vertex 178.3800127655258 171.67959793500486 0.0
    vertex 179.338312203168 178.95860482969783 0.0
    vertex 179.338312203168 172.92847807691965 0.0
  endloop
endfacet
facet normal 0.0 0.0 -1.0
  outer loop
    vertex 179.338312203168 172.92847807691965 0.0
    vertex 179.338312203168 178.95860482969783 0.0
    vertex 179.940724413527 177.50425310130996 0.0
  endloop
endfacet
facet normal 0.0 0.0 -1.0
  outer loop
    vertex 179.338312203168 172.92847807691965 0.0
    vertex 179.940724413527 177.50425310130996 0.0
    vertex 179.940724413527 174.38282980530752 0.0
  endloop
endfacet
facet normal 0.0 0.0 -1.0
  outer loop
    vertex 179.940724413527 174.38282980530752 0.0
    vertex 179.940724413527 177.50425310130996 0.0
    vertex 180.1461960000001 175.94354145330874 0.0
  endloop
endfacet
facet normal 0.0 0.0 -1.0
  outer loop
    vertex 165.0574026686337 209.7509453734261 -5.0
    vertex 168.29141408091687 177.50425310130996 -5.0
    vertex 168.08594249444374 175.94354145330874 -5.0
  endloop
endfacet
facet normal 0.0 0.0 -1.0
  outer loop
    vertex 168.29141408091687 177.50425310130996 -5.0
    vertex 165.0574026686337 209.7509453734261 -5.0
    vertex 174.11606924722193 210.9435414533087 -5.0
  endloop
endfacet
facet normal 0.0 0.0 -1.0
  outer loop
    vertex 168.29141408091687 177.50425310130996 -5.0
    vertex 174.11606924722193 210.9435414533087 -5.0
    vertex 168.89382629127587 178.95860482969783 -5.0
  endloop
endfacet
facet normal 0.0 0.0 -1.0
  outer loop
    vertex 168.89382629127587 178.95860482969783 -5.0
    vertex 174.11606924722193 210.9435414533087 -5.0
    vertex 169.85212572891805 180.20748497161262 -5.0
  endloop
endfacet
facet normal 0.0 0.0 -1.0
  outer loop
    vertex 169.85212572891805 180.20748497161262 -5.0
    vertex 174.11606924722193 210.9435414533087 -5.0
    vertex 171.10100587083284 181.1657844092548 -5.0
  endloop
endfacet
facet normal 0.0 0.0 -1.0
  outer loop
    vertex 171.10100587083284 181.1657844092548 -5.0
    vertex 174.11606924722193 210.9435414533087 -5.0
    vertex 172.5553575992207 181.7681966196138 -5.0
  endloop
endfacet
facet normal 0.0 0.0 -1.0
  outer loop
    vertex 172.5553575992207 181.7681966196138 -5.0
    vertex 174.11606924722193 210.9435414533087 -5.0
    vertex 174.11606924722193 181.9736682060869 -5.0
  endloop
endfacet
facet normal 0.0 0.0 -1.0
  outer loop
    vertex 174.11606924722193 181.9736682060869 -5.0
    vertex 174.11606924722193 210.9435414533087 -5.0
    vertex 183.17473582581016 209.7509453734261 -5.0
  endloop
endfacet
facet normal 0.0 0.0 -1.0
  outer loop
    vertex 174.11606924722193 181.9736682060869 -5.0
    vertex 183.17473582581016 209.7509453734261 -5.0
    vertex 175.67678089522312 181.7681966196138 -5.0
  endloop
endfacet
facet normal 0.0 0.0 -1.0
  outer loop
    vertex 175.67678089522312 181.7681966196138 -5.0
    vertex 183.17473582581016 209.7509453734261 -5.0
    vertex 177.13113262361102 181.1657844092548 -5.0
  endloop
endfacet
facet normal 0.0 0.0 -1.0
  outer loop
    vertex 177.13113262361102 181.1657844092548 -5.0
    vertex 183.17473582581016 209.7509453734261 -5.0
    vertex 178.3800127655258 180.20748497161262 -5.0
  endloop
endfacet
facet normal 0.0 0.0 -1.0
  outer loop
    vertex 178.3800127655258 180.20748497161262 -5.0
    vertex 183.17473582581016 209.7509453734261 -5.0
    vertex 179.338312203168 178.95860482969783 -5.0
  endloop
endfacet
facet normal 0.0 0.0 -1.0
  outer loop
    vertex 179.338312203168 178.95860482969783 -5.0
    vertex 183.17473582581016 209.7509453734261 -5.0
    vertex 179.940724413527 177.50425310130996 -5.0
  endloop
endfacet
facet normal 0.0 0.0 -1.0
  outer loop
    vertex 179.940724413527 177.50425310130996 -5.0
    vertex 183.17473582581016 209.7509453734261 -5.0
    vertex 180.1461960000001 175.94354145330874 -5.0
  endloop
endfacet
facet normal 0.0 0.0 -1.0
  outer loop
    vertex 180.1461960000001 175.94354145330874 -5.0
    vertex 183.17473582581016 209.7509453734261 -5.0
    vertex 183.17473582581013 142.13613753319137 -5.0
  endloop
endfacet
facet normal 0.0 0.0 -1.0
  outer loop
    vertex 183.17473582581013 142.13613753319137 -5.0
    vertex 183.17473582581016 209.7509453734261 -5.0
    vertex 191.6160692472219 145.6326523208534 -5.0
  endloop
endfacet
facet normal 0.0 0.0 -1.0
  outer loop
    vertex 191.6160692472219 145.6326523208534 -5.0
    vertex 183.17473582581016 209.7509453734261 -5.0
    vertex 191.61606924722193 206.25443058576408 -5.0
  endloop
endfacet
facet normal 0.0 0.0 -1.0
  outer loop
    vertex 191.6160692472219 145.6326523208534 -5.0
    vertex 191.61606924722193 206.25443058576408 -5.0
    vertex 198.8648065887511 151.19480411177958 -5.0
  endloop
endfacet
facet normal 0.0 0.0 -1.0
  outer loop
    vertex 198.8648065887511 151.19480411177958 -5.0
    vertex 191.61606924722193 206.25443058576408 -5.0
    vertex 198.8648065887511 200.6922787948379 -5.0
  endloop
endfacet
facet normal 0.0 0.0 -1.0
  outer loop
    vertex 198.8648065887511 151.19480411177958 -5.0
    vertex 198.8648065887511 200.6922787948379 -5.0
    vertex 204.42695837967727 193.44354145330874 -5.0
  endloop
endfacet
facet normal 0.0 0.0 -1.0
  outer loop
    vertex 198.8648065887511 151.19480411177958 -5.0
    vertex 204.42695837967727 193.44354145330874 -5.0
    vertex 204.42695837967725 158.44354145330874 -5.0
  endloop
endfacet
facet normal 0.0 0.0 -1.0
  outer loop
    vertex 204.42695837967725 158.44354145330874 -5.0
    vertex 204.42695837967727 193.44354145330874 -5.0
    vertex 207.9234731673393 166.8848748747205 -5.0
  endloop
endfacet
facet normal 0.0 0.0 -1.0
  outer loop
    vertex 207.9234731673393 166.8848748747205 -5.0
    vertex 204.42695837967727 193.44354145330874 -5.0
    vertex 207.9234731673393 185.00220803189697 -5.0
  endloop
endfacet
facet normal 0.0 0.0 -1.0
  outer loop
    vertex 207.9234731673393 166.8848748747205 -5.0
    vertex 207.9234731673393 185.00220803189697 -5.0
    vertex 209.1160692472219 175.94354145330874 -5.0
  endloop
endfacet
facet normal 0.0 0.0 -1.0
  outer loop
    vertex 140.30866532710456 185.00220803189697 -5.0
    vertex 140.30866532710456 166.8848748747205 -5.0
    vertex 139.11606924722196 175.94354145330874 -5.0
  endloop
endfacet
facet normal 0.0 0.0 -1.0
  outer loop
    vertex 140.30866532710456 166.8848748747205 -5.0
    vertex 140.30866532710456 185.00220803189697 -5.0
    vertex 143.80518011476659 193.44354145330874 -5.0
  endloop
endfacet
facet normal 0.0 0.0 -1.0
  outer loop
    vertex 140.30866532710456 166.8848748747205 -5.0
    vertex 143.80518011476659 193.44354145330874 -5.0
    vertex 143.80518011476659 158.44354145330874 -5.0
  endloop
endfacet
facet normal 0.0 0.0 -1.0
  outer loop
    vertex 143.80518011476659 158.44354145330874 -5.0
    vertex 143.80518011476659 193.44354145330874 -5.0
    vertex 149.36733190569277 151.1948041117796 -5.0
  endloop
endfacet
facet normal 0.0 0.0 -1.0
  outer loop
    vertex 149.36733190569277 151.1948041117796 -5.0
    vertex 143.80518011476659 193.44354145330874 -5.0
    vertex 149.36733190569277 200.6922787948379 -5.0
  endloop
endfacet
facet normal 0.0 0.0 -1.0
  outer loop
    vertex 149.36733190569277 151.1948041117796 -5.0
    vertex 149.36733190569277 200.6922787948379 -5.0
    vertex 156.61606924722193 206.25443058576408 -5.0
  endloop
endfacet
facet normal 0.0 0.0 -1.0
  outer loop
    vertex 149.36733190569277 151.1948041117796 -5.0
    vertex 156.61606924722193 206.25443058576408 -5.0
    vertex 156.6160692472219 145.6326523208534 -5.0
  endloop
endfacet
facet normal 0.0 0.0 -1.0
  outer loop
    vertex 156.6160692472219 145.6326523208534 -5.0
    vertex 156.61606924722193 206.25443058576408 -5.0
    vertex 165.0574026686337 142.13613753319137 -5.0
  endloop
endfacet
facet normal 0.0 0.0 -1.0
  outer loop
    vertex 165.0574026686337 142.13613753319137 -5.0
    vertex 156.61606924722193 206.25443058576408 -5.0
    vertex 165.0574026686337 209.7509453734261 -5.0
  endloop
endfacet
facet normal 0.0 0.0 -1.0
  outer loop
    vertex 165.0574026686337 142.13613753319137 -5.0
    vertex 165.0574026686337 209.7509453734261 -5.0
    vertex 168.08594249444374 175.94354145330874 -5.0
  endloop
endfacet
facet normal 0.0 0.0 -1.0
  outer loop
    vertex 165.0574026686337 142.13613753319137 -5.0
    vertex 168.08594249444374 175.94354145330874 -5.0
    vertex 168.29141408091687 174.38282980530752 -5.0
  endloop
endfacet
facet normal 0.0 0.0 -1.0
  outer loop
    vertex 165.0574026686337 142.13613753319137 -5.0
    vertex 168.29141408091687 174.38282980530752 -5.0
    vertex 174.11606924722193 140.94354145330877 -5.0
  endloop
endfacet
facet normal 0.0 0.0 -1.0
  outer loop
    vertex 174.11606924722193 140.94354145330877 -5.0
    vertex 168.29141408091687 174.38282980530752 -5.0
    vertex 168.89382629127587 172.92847807691965 -5.0
  endloop
endfacet
facet normal 0.0 0.0 -1.0
  outer loop
    vertex 174.11606924722193 140.94354145330877 -5.0
    vertex 168.89382629127587 172.92847807691965 -5.0
    vertex 169.85212572891805 171.67959793500486 -5.0
  endloop
endfacet
facet normal 0.0 0.0 -1.0
  outer loop
    vertex 174.11606924722193 140.94354145330877 -5.0
    vertex 169.85212572891805 171.67959793500486 -5.0
    vertex 171.10100587083284 170.72129849736268 -5.0
  endloop
endfacet
facet normal 0.0 0.0 -1.0
  outer loop
    vertex 174.11606924722193 140.94354145330877 -5.0
    vertex 171.10100587083284 170.72129849736268 -5.0
    vertex 172.5553575992207 170.11888628700368 -5.0
  endloop
endfacet
facet normal 0.0 0.0 -1.0
  outer loop
    vertex 174.11606924722193 140.94354145330877 -5.0
    vertex 172.5553575992207 170.11888628700368 -5.0
    vertex 174.11606924722193 169.91341470053058 -5.0
  endloop
endfacet
facet normal 0.0 0.0 -1.0
  outer loop
    vertex 174.11606924722193 140.94354145330877 -5.0
    vertex 174.11606924722193 169.91341470053058 -5.0
    vertex 175.67678089522312 170.11888628700368 -5.0
  endloop
endfacet
facet normal 0.0 0.0 -1.0
  outer loop
    vertex 174.11606924722193 140.94354145330877 -5.0
    vertex 175.67678089522312 170.11888628700368 -5.0
    vertex 183.17473582581013 142.13613753319137 -5.0
  endloop
endfacet
facet normal 0.0 0.0 -1.0
  outer loop
    vertex 183.17473582581013 142.13613753319137 -5.0
    vertex 175.67678089522312 170.11888628700368 -5.0
    vertex 177.13113262361102 170.72129849736268 -5.0
  endloop
endfacet
facet normal 0.0 0.0 -1.0
  outer loop
    vertex 183.17473582581013 142.13613753319137 -5.0
    vertex 177.13113262361102 170.72129849736268 -5.0
    vertex 178.3800127655258 171.67959793500486 -5.0
  endloop
endfacet
facet normal 0.0 0.0 -1.0
  outer loop
    vertex 183.17473582581013 142.13613753319137 -5.0
    vertex 178.3800127655258 171.67959793500486 -5.0
    vertex 179.338312203168 172.92847807691965 -5.0
  endloop
endfacet
facet normal 0.0 0.0 -1.0
  outer loop
    vertex 183.17473582581013 142.13613753319137 -5.0
    vertex 179.338312203168 172.92847807691965 -5.0
    vertex 179.940724413527 174.38282980530752 -5.0
  endloop
endfacet
facet normal 0.0 0.0 -1.0
  outer loop
    vertex 183.17473582581013 142.13613753319137 -5.0
    vertex 179.940724413527 174.38282980530752 -5.0
    vertex 180.1461960000001 175.94354145330874 -5.0
  endloop
endfacet
facet normal 0.7933533402912349 0.608761429008721 0.0
  outer loop
    vertex 198.8648065887511 200.6922787948379 -5.0
    vertex 204.42695837967727 193.44354145330874 0.0
    vertex 204.42695837967727 193.44354145330874 -5.0
  endloop
endfacet
facet normal 0.7933533402912349 0.608761429008721 0.0
  outer loop
    vertex 204.42695837967727 193.44354145330874 0.0
    vertex 198.8648065887511 200.6922787948379 -5.0
    vertex 198.8648065887511 200.6922787948379 0.0
  endloop
endfacet
facet normal 0.9238795325112874 0.3826834323650883 0.0
  outer loop
    vertex 204.42695837967727 193.44354145330874 -5.0
    vertex 207.9234731673393 185.00220803189697 0.0
    vertex 207.9234731673393 185.00220803189697 -5.0
  endloop
endfacet
facet normal 0.9238795325112874 0.3826834323650883 0.0
  outer loop
    vertex 207.9234731673393 185.00220803189697 0.0
    vertex 204.42695837967727 193.44354145330874 -5.0
    vertex 204.42695837967727 193.44354145330874 0.0
  endloop
endfacet
facet normal 0.9914448613738106 0.13052619222005127 0.0
  outer loop
    vertex 207.9234731673393 185.00220803189697 -5.0
    vertex 209.1160692472219 175.94354145330874 0.0
    vertex 209.1160692472219 175.94354145330874 -5.0
  endloop
endfacet
facet normal 0.9914448613738106 0.13052619222005127 0.0
  outer loop
    vertex 209.1160692472219 175.94354145330874 0.0
    vertex 207.9234731673393 185.00220803189697 -5.0
    vertex 207.9234731673393 185.00220803189697 0.0
  endloop
endfacet
facet normal 0.9914448613738105 -0.13052619222005094 0.0
  outer loop
    vertex 209.1160692472219 175.94354145330874 -5.0
    vertex 207.9234731673393 166.8848748747205 0.0
    vertex 207.9234731673393 166.8848748747205 -5.0
  endloop
endfacet
facet normal 0.9914448613738105 -0.13052619222005094 0.0
  outer loop
    vertex 207.9234731673393 166.8848748747205 0.0
    vertex 209.1160692472219 175.94354145330874 -5.0
    vertex 209.1160692472219 175.94354145330874 0.0
  endloop
endfacet
facet normal 0.9238795325112856 -0.3826834323650925 0.0
  outer loop
    vertex 207.9234731673393 166.8848748747205 -5.0
    vertex 204.42695837967725 158.44354145330874 0.0
    vertex 204.42695837967725 158.44354145330874 -5.0
  endloop
endfacet
facet normal 0.9238795325112856 -0.3826834323650925 0.0
  outer loop
    vertex 204.42695837967725 158.44354145330874 0.0
    vertex 207.9234731673393 166.8848748747205 -5.0
    vertex 207.9234731673393 166.8848748747205 0.0
  endloop
endfacet
facet normal 0.7933533402912364 -0.608761429008719 0.0
  outer loop
    vertex 204.42695837967725 158.44354145330874 -5.0
    vertex 198.8648065887511 151.19480411177958 0.0
    vertex 198.8648065887511 151.19480411177958 -5.0
  endloop
endfacet
facet normal 0.7933533402912364 -0.608761429008719 0.0
  outer loop
    vertex 198.8648065887511 151.19480411177958 0.0
    vertex 204.42695837967725 158.44354145330874 -5.0
    vertex 204.42695837967725 158.44354145330874 0.0
  endloop
endfacet
facet normal 0.6087614290087198 -0.7933533402912358 0.0
  outer loop
    vertex 198.8648065887511 151.19480411177958 0.0
    vertex 191.6160692472219 145.6326523208534 -5.0
    vertex 198.8648065887511 151.19480411177958 -5.0
  endloop
endfacet
facet normal 0.6087614290087198 -0.7933533402912358 0.0
  outer loop
    vertex 191.6160692472219 145.6326523208534 -5.0
    vertex 198.8648065887511 151.19480411177958 0.0
    vertex 191.6160692472219 145.6326523208534 0.0
  endloop
endfacet
facet normal 0.3826834323650883 -0.9238795325112874 0.0
  outer loop
    vertex 191.6160692472219 145.6326523208534 0.0
    vertex 183.17473582581013 142.13613753319137 -5.0
    vertex 191.6160692472219 145.6326523208534 -5.0
  endloop
endfacet
facet normal 0.3826834323650883 -0.9238795325112874 0.0
  outer loop
    vertex 183.17473582581013 142.13613753319137 -5.0
    vertex 191.6160692472219 145.6326523208534 0.0
    vertex 183.17473582581013 142.13613753319137 0.0
  endloop
endfacet
facet normal 0.1305261922200516 -0.9914448613738105 0.0
  outer loop
    vertex 183.17473582581013 142.13613753319137 0.0
    vertex 174.11606924722193 140.94354145330877 -5.0
    vertex 183.17473582581013 142.13613753319137 -5.0
  endloop
endfacet
facet normal 0.1305261922200516 -0.9914448613738105 0.0
  outer loop
    vertex 174.11606924722193 140.94354145330877 -5.0
    vertex 183.17473582581013 142.13613753319137 0.0
    vertex 174.11606924722193 140.94354145330877 0.0
  endloop
endfacet
facet normal -0.13052619222005094 -0.9914448613738105 -0.0
  outer loop
    vertex 174.11606924722193 140.94354145330877 0.0
    vertex 165.0574026686337 142.13613753319137 -5.0
    vertex 174.11606924722193 140.94354145330877 -5.0
  endloop
endfacet
facet normal -0.13052619222005094 -0.9914448613738105 -0.0
  outer loop
    vertex 165.0574026686337 142.13613753319137 -5.0
    vertex 174.11606924722193 140.94354145330877 0.0
    vertex 165.0574026686337 142.13613753319137 0.0
  endloop
endfacet
facet normal -0.3826834323650904 -0.9238795325112865 -0.0
  outer loop
    vertex 165.0574026686337 142.13613753319137 0.0
    vertex 156.6160692472219 145.6326523208534 -5.0
    vertex 165.0574026686337 142.13613753319137 -5.0
  endloop
endfacet
facet normal -0.3826834323650904 -0.9238795325112865 -0.0
  outer loop
    vertex 156.6160692472219 145.6326523208534 -5.0
    vertex 165.0574026686337 142.13613753319137 0.0
    vertex 156.6160692472219 145.6326523208534 0.0
  endloop
endfacet
facet normal -0.6087614290087222 -0.7933533402912342 -0.0
  outer loop
    vertex 156.6160692472219 145.6326523208534 0.0
    vertex 149.36733190569277 151.1948041117796 -5.0
    vertex 156.6160692472219 145.6326523208534 -5.0
  endloop
endfacet
facet normal -0.6087614290087222 -0.7933533402912342 -0.0
  outer loop
    vertex 149.36733190569277 151.1948041117796 -5.0
    vertex 156.6160692472219 145.6326523208534 0.0
    vertex 149.36733190569277 151.1948041117796 0.0
  endloop
endfacet
facet normal -0.7933533402912342 -0.6087614290087222 -0.0
  outer loop
    vertex 143.80518011476659 158.44354145330874 0.0
    vertex 149.36733190569277 151.1948041117796 -5.0
    vertex 149.36733190569277 151.1948041117796 0.0
  endloop
endfacet
facet normal -0.7933533402912342 -0.6087614290087222 -0.0
  outer loop
    vertex 149.36733190569277 151.1948041117796 -5.0
    vertex 143.80518011476659 158.44354145330874 0.0
    vertex 143.80518011476659 158.44354145330874 -5.0
  endloop
endfacet
facet normal -0.9238795325112874 -0.3826834323650883 -0.0
  outer loop
    vertex 140.30866532710456 166.8848748747205 0.0
    vertex 143.80518011476659 158.44354145330874 -5.0
    vertex 143.80518011476659 158.44354145330874 0.0
  endloop
endfacet
facet normal -0.9238795325112874 -0.3826834323650883 -0.0
  outer loop
    vertex 143.80518011476659 158.44354145330874 -5.0
    vertex 140.30866532710456 166.8848748747205 0.0
    vertex 140.30866532710456 166.8848748747205 -5.0
  endloop
endfacet
facet normal -0.9914448613738106 -0.13052619222005127 -0.0
  outer loop
    vertex 139.11606924722196 175.94354145330874 0.0
    vertex 140.30866532710456 166.8848748747205 -5.0
    vertex 140.30866532710456 166.8848748747205 0.0
  endloop
endfacet
facet normal -0.9914448613738106 -0.13052619222005127 -0.0
  outer loop
    vertex 140.30866532710456 166.8848748747205 -5.0
    vertex 139.11606924722196 175.94354145330874 0.0
    vertex 139.11606924722196 175.94354145330874 -5.0
  endloop
endfacet
facet normal -0.9914448613738105 0.13052619222005094 0.0
  outer loop
    vertex 140.30866532710456 185.00220803189697 0.0
    vertex 139.11606924722196 175.94354145330874 -5.0
    vertex 139.11606924722196 175.94354145330874 0.0
  endloop
endfacet
facet normal -0.9914448613738105 0.13052619222005094 0.0
  outer loop
    vertex 139.11606924722196 175.94354145330874 -5.0
    vertex 140.30866532710456 185.00220803189697 0.0
    vertex 140.30866532710456 185.00220803189697 -5.0
  endloop
endfacet
facet normal -0.9238795325112863 0.3826834323650914 0.0
  outer loop
    vertex 143.80518011476659 193.44354145330874 0.0
    vertex 140.30866532710456 185.00220803189697 -5.0
    vertex 140.30866532710456 185.00220803189697 0.0
  endloop
endfacet
facet normal -0.9238795325112863 0.3826834323650914 0.0
  outer loop
    vertex 140.30866532710456 185.00220803189697 -5.0
    vertex 143.80518011476659 193.44354145330874 0.0
    vertex 143.80518011476659 193.44354145330874 -5.0
  endloop
endfacet
facet normal -0.7933533402912362 0.6087614290087194 0.0
  outer loop
    vertex 149.36733190569277 200.6922787948379 0.0
    vertex 143.80518011476659 193.44354145330874 -5.0
    vertex 143.80518011476659 193.44354145330874 0.0
  endloop
endfacet
facet normal -0.7933533402912362 0.6087614290087194 0.0
  outer loop
    vertex 143.80518011476659 193.44354145330874 -5.0
    vertex 149.36733190569277 200.6922787948379 0.0
    vertex 149.36733190569277 200.6922787948379 -5.0
  endloop
endfacet
facet normal -0.608761429008721 0.7933533402912349 0.0
  outer loop
    vertex 149.36733190569277 200.6922787948379 0.0
    vertex 156.61606924722193 206.25443058576408 -5.0
    vertex 149.36733190569277 200.6922787948379 -5.0
  endloop
endfacet
facet normal -0.608761429008721 0.7933533402912349 0.0
  outer loop
    vertex 156.61606924722193 206.25443058576408 -5.0
    vertex 149.36733190569277 200.6922787948379 0.0
    vertex 156.61606924722193 206.25443058576408 0.0
  endloop
endfacet
facet normal -0.3826834323650883 0.9238795325112874 0.0
  outer loop
    vertex 156.61606924722193 206.25443058576408 0.0
    vertex 165.0574026686337 209.7509453734261 -5.0
    vertex 156.61606924722193 206.25443058576408 -5.0
  endloop
endfacet
facet normal -0.3826834323650883 0.9238795325112874 0.0
  outer loop
    vertex 165.0574026686337 209.7509453734261 -5.0
    vertex 156.61606924722193 206.25443058576408 0.0
    vertex 165.0574026686337 209.7509453734261 0.0
  endloop
endfacet
facet normal -0.13052619222005127 0.9914448613738106 0.0
  outer loop
    vertex 165.0574026686337 209.7509453734261 0.0
    vertex 174.11606924722193 210.9435414533087 -5.0
    vertex 165.0574026686337 209.7509453734261 -5.0
  endloop
endfacet
facet normal -0.13052619222005127 0.9914448613738106 0.0
  outer loop
    vertex 174.11606924722193 210.9435414533087 -5.0
    vertex 165.0574026686337 209.7509453734261 0.0
    vertex 174.11606924722193 210.9435414533087 0.0
  endloop
endfacet
facet normal 0.13052619222005094 0.9914448613738105 0.0
  outer loop
    vertex 174.11606924722193 210.9435414533087 0.0
    vertex 183.17473582581016 209.7509453734261 -5.0
    vertex 174.11606924722193 210.9435414533087 -5.0
  endloop
endfacet
facet normal 0.13052619222005094 0.9914448613738105 0.0
  outer loop
    vertex 183.17473582581016 209.7509453734261 -5.0
    vertex 174.11606924722193 210.9435414533087 0.0
    vertex 183.17473582581016 209.7509453734261 0.0
  endloop
endfacet
facet normal 0.38268343236508917 0.923879532511287 0.0
  outer loop
    vertex 183.17473582581016 209.7509453734261 0.0
    vertex 191.61606924722193 206.25443058576408 -5.0
    vertex 183.17473582581016 209.7509453734261 -5.0
  endloop
endfacet
facet normal 0.38268343236508917 0.923879532511287 0.0
  outer loop
    vertex 191.61606924722193 206.25443058576408 -5.0
    vertex 183.17473582581016 209.7509453734261 0.0
    vertex 191.61606924722193 206.25443058576408 0.0
  endloop
endfacet
facet normal 0.608761429008721 0.7933533402912349 0.0
  outer loop
    vertex 191.61606924722193 206.25443058576408 0.0
    vertex 198.8648065887511 200.6922787948379 -5.0
    vertex 191.61606924722193 206.25443058576408 -5.0
  endloop
endfacet
facet normal 0.608761429008721 0.7933533402912349 0.0
  outer loop
    vertex 198.8648065887511 200.6922787948379 -5.0
    vertex 191.61606924722193 206.25443058576408 0.0
    vertex 198.8648065887511 200.6922787948379 0.0
  endloop
endfacet
facet normal 0.6087614290087173 -0.7933533402912377 0.0
  outer loop
    vertex 178.3800127655258 171.67959793500486 0.0
    vertex 177.13113262361102 170.72129849736268 -5.0
    vertex 178.3800127655258 171.67959793500486 -5.0
  endloop
endfacet
facet normal 0.6087614290087173 -0.7933533402912377 0.0
  outer loop
    vertex 177.13113262361102 170.72129849736268 -5.0
    vertex 178.3800127655258 171.67959793500486 0.0
    vertex 177.13113262361102 170.72129849736268 0.0
  endloop
endfacet
facet normal 0.7933533402912377 -0.6087614290087173 -0.0
  outer loop
    vertex 179.338312203168 172.92847807691965 -5.0
    vertex 178.3800127655258 171.67959793500486 0.0
    vertex 178.3800127655258 171.67959793500486 -5.0
  endloop
endfacet
facet normal 0.7933533402912377 -0.6087614290087173 -0.0
  outer loop
    vertex 178.3800127655258 171.67959793500486 0.0
    vertex 179.338312203168 172.92847807691965 -5.0
    vertex 179.338312203168 172.92847807691965 0.0
  endloop
endfacet
facet normal 0.9238795325112881 -0.38268343236508695 -0.0
  outer loop
    vertex 179.940724413527 174.38282980530752 -5.0
    vertex 179.338312203168 172.92847807691965 0.0
    vertex 179.338312203168 172.92847807691965 -5.0
  endloop
endfacet
facet normal 0.9238795325112881 -0.38268343236508695 -0.0
  outer loop
    vertex 179.338312203168 172.92847807691965 0.0
    vertex 179.940724413527 174.38282980530752 -5.0
    vertex 179.940724413527 174.38282980530752 0.0
  endloop
endfacet
facet normal 0.9914448613738105 -0.13052619222005105 -0.0
  outer loop
    vertex 180.1461960000001 175.94354145330874 -5.0
    vertex 179.940724413527 174.38282980530752 0.0
    vertex 179.940724413527 174.38282980530752 -5.0
  endloop
endfacet
facet normal 0.9914448613738105 -0.13052619222005105 -0.0
  outer loop
    vertex 179.940724413527 174.38282980530752 0.0
    vertex 180.1461960000001 175.94354145330874 -5.0
    vertex 180.1461960000001 175.94354145330874 0.0
  endloop
endfacet
facet normal 0.9914448613738105 0.130526192220051 -0.0
  outer loop
    vertex 179.940724413527 177.50425310130996 -5.0
    vertex 180.1461960000001 175.94354145330874 0.0
    vertex 180.1461960000001 175.94354145330874 -5.0
  endloop
endfacet
facet normal 0.9914448613738105 0.130526192220051 -0.0
  outer loop
    vertex 180.1461960000001 175.94354145330874 0.0
    vertex 179.940724413527 177.50425310130996 -5.0
    vertex 179.940724413527 177.50425310130996 0.0
  endloop
endfacet
facet normal 0.9238795325112881 0.38268343236508706 -0.0
  outer loop
    vertex 179.338312203168 178.95860482969783 -5.0
    vertex 179.940724413527 177.50425310130996 0.0
    vertex 179.940724413527 177.50425310130996 -5.0
  endloop
endfacet
facet normal 0.9238795325112881 0.38268343236508706 -0.0
  outer loop
    vertex 179.940724413527 177.50425310130996 0.0
    vertex 179.338312203168 178.95860482969783 -5.0
    vertex 179.338312203168 178.95860482969783 0.0
  endloop
endfacet
facet normal 0.7933533402912377 0.6087614290087173 -0.0
  outer loop
    vertex 178.3800127655258 180.20748497161262 -5.0
    vertex 179.338312203168 178.95860482969783 0.0
    vertex 179.338312203168 178.95860482969783 -5.0
  endloop
endfacet
facet normal 0.7933533402912377 0.6087614290087173 -0.0
  outer loop
    vertex 179.338312203168 178.95860482969783 0.0
    vertex 178.3800127655258 180.20748497161262 -5.0
    vertex 178.3800127655258 180.20748497161262 0.0
  endloop
endfacet
facet normal 0.6087614290087173 0.7933533402912377 -0.0
  outer loop
    vertex 177.13113262361102 181.1657844092548 0.0
    vertex 178.3800127655258 180.20748497161262 -5.0
    vertex 177.13113262361102 181.1657844092548 -5.0
  endloop
endfacet
facet normal 0.6087614290087173 0.7933533402912377 -0.0
  outer loop
    vertex 178.3800127655258 180.20748497161262 -5.0
    vertex 177.13113262361102 181.1657844092548 0.0
    vertex 178.3800127655258 180.20748497161262 0.0
  endloop
endfacet
facet normal 0.38268343236508706 0.9238795325112881 -0.0
  outer loop
    vertex 175.67678089522312 181.7681966196138 0.0
    vertex 177.13113262361102 181.1657844092548 -5.0
    vertex 175.67678089522312 181.7681966196138 -5.0
  endloop
endfacet
facet normal 0.38268343236508706 0.9238795325112881 -0.0
  outer loop
    vertex 177.13113262361102 181.1657844092548 -5.0
    vertex 175.67678089522312 181.7681966196138 0.0
    vertex 177.13113262361102 181.1657844092548 0.0
  endloop
endfacet
facet normal 0.130526192220051 0.9914448613738105 -0.0
  outer loop
    vertex 174.11606924722193 181.9736682060869 0.0
    vertex 175.67678089522312 181.7681966196138 -5.0
    vertex 174.11606924722193 181.9736682060869 -5.0
  endloop
endfacet
facet normal 0.130526192220051 0.9914448613738105 -0.0
  outer loop
    vertex 175.67678089522312 181.7681966196138 -5.0
    vertex 174.11606924722193 181.9736682060869 0.0
    vertex 175.67678089522312 181.7681966196138 0.0
  endloop
endfacet
facet normal -0.13052619222005105 0.9914448613738105 -0.0
  outer loop
    vertex 172.5553575992207 181.7681966196138 0.0
    vertex 174.11606924722193 181.9736682060869 -5.0
    vertex 172.5553575992207 181.7681966196138 -5.0
  endloop
endfacet
facet normal -0.13052619222005105 0.9914448613738105 -0.0
  outer loop
    vertex 174.11606924722193 181.9736682060869 -5.0
    vertex 172.5553575992207 181.7681966196138 0.0
    vertex 174.11606924722193 181.9736682060869 0.0
  endloop
endfacet
facet normal -0.38268343236508684 0.9238795325112881 -0.0
  outer loop
    vertex 171.10100587083284 181.1657844092548 0.0
    vertex 172.5553575992207 181.7681966196138 -5.0
    vertex 171.10100587083284 181.1657844092548 -5.0
  endloop
endfacet
facet normal -0.38268343236508684 0.9238795325112881 -0.0
  outer loop
    vertex 172.5553575992207 181.7681966196138 -5.0
    vertex 171.10100587083284 181.1657844092548 0.0
    vertex 172.5553575992207 181.7681966196138 0.0
  endloop
endfacet
facet normal -0.6087614290087173 0.7933533402912377 -0.0
  outer loop
    vertex 169.85212572891805 180.20748497161262 0.0
    vertex 171.10100587083284 181.1657844092548 -5.0
    vertex 169.85212572891805 180.20748497161262 -5.0
  endloop
endfacet
facet normal -0.6087614290087173 0.7933533402912377 -0.0
  outer loop
    vertex 171.10100587083284 181.1657844092548 -5.0
    vertex 169.85212572891805 180.20748497161262 0.0
    vertex 171.10100587083284 181.1657844092548 0.0
  endloop
endfacet
facet normal -0.7933533402912377 0.6087614290087173 0.0
  outer loop
    vertex 169.85212572891805 180.20748497161262 0.0
    vertex 168.89382629127587 178.95860482969783 -5.0
    vertex 168.89382629127587 178.95860482969783 0.0
  endloop
endfacet
facet normal -0.7933533402912377 0.6087614290087173 0.0
  outer loop
    vertex 168.89382629127587 178.95860482969783 -5.0
    vertex 169.85212572891805 180.20748497161262 0.0
    vertex 169.85212572891805 180.20748497161262 -5.0
  endloop
endfacet
facet normal -0.9238795325112881 0.38268343236508695 0.0
  outer loop
    vertex 168.89382629127587 178.95860482969783 0.0
    vertex 168.29141408091687 177.50425310130996 -5.0
    vertex 168.29141408091687 177.50425310130996 0.0
  endloop
endfacet
facet normal -0.9238795325112881 0.38268343236508695 0.0
  outer loop
    vertex 168.29141408091687 177.50425310130996 -5.0
    vertex 168.89382629127587 178.95860482969783 0.0
    vertex 168.89382629127587 178.95860482969783 -5.0
  endloop
endfacet
facet normal -0.9914448613738105 0.13052619222005105 0.0
  outer loop
    vertex 168.29141408091687 177.50425310130996 0.0
    vertex 168.08594249444374 175.94354145330874 -5.0
    vertex 168.08594249444374 175.94354145330874 0.0
  endloop
endfacet
facet normal -0.9914448613738105 0.13052619222005105 0.0
  outer loop
    vertex 168.08594249444374 175.94354145330874 -5.0
    vertex 168.29141408091687 177.50425310130996 0.0
    vertex 168.29141408091687 177.50425310130996 -5.0
  endloop
endfacet
facet normal -0.9914448613738105 -0.130526192220051 0.0
  outer loop
    vertex 168.08594249444374 175.94354145330874 0.0
    vertex 168.29141408091687 174.38282980530752 -5.0
    vertex 168.29141408091687 174.38282980530752 0.0
  endloop
endfacet
facet normal -0.9914448613738105 -0.130526192220051 0.0
  outer loop
    vertex 168.29141408091687 174.38282980530752 -5.0
    vertex 168.08594249444374 175.94354145330874 0.0
    vertex 168.08594249444374 175.94354145330874 -5.0
  endloop
endfacet
facet normal -0.9238795325112881 -0.38268343236508706 0.0
  outer loop
    vertex 168.29141408091687 174.38282980530752 0.0
    vertex 168.89382629127587 172.92847807691965 -5.0
    vertex 168.89382629127587 172.92847807691965 0.0
  endloop
endfacet
facet normal -0.9238795325112881 -0.38268343236508706 0.0
  outer loop
    vertex 168.89382629127587 172.92847807691965 -5.0
    vertex 168.29141408091687 174.38282980530752 0.0
    vertex 168.29141408091687 174.38282980530752 -5.0
  endloop
endfacet
facet normal -0.7933533402912377 -0.6087614290087173 0.0
  outer loop
    vertex 168.89382629127587 172.92847807691965 0.0
    vertex 169.85212572891805 171.67959793500486 -5.0
    vertex 169.85212572891805 171.67959793500486 0.0
  endloop
endfacet
facet normal -0.7933533402912377 -0.6087614290087173 0.0
  outer loop
    vertex 169.85212572891805 171.67959793500486 -5.0
    vertex 168.89382629127587 172.92847807691965 0.0
    vertex 168.89382629127587 172.92847807691965 -5.0
  endloop
endfacet
facet normal -0.6087614290087173 -0.7933533402912377 0.0
  outer loop
    vertex 171.10100587083284 170.72129849736268 0.0
    vertex 169.85212572891805 171.67959793500486 -5.0
    vertex 171.10100587083284 170.72129849736268 -5.0
  endloop
endfacet
facet normal -0.6087614290087173 -0.7933533402912377 0.0
  outer loop
    vertex 169.85212572891805 171.67959793500486 -5.0
    vertex 171.10100587083284 170.72129849736268 0.0
    vertex 169.85212572891805 171.67959793500486 0.0
  endloop
endfacet
facet normal -0.38268343236508706 -0.9238795325112881 0.0
  outer loop
    vertex 172.5553575992207 170.11888628700368 0.0
    vertex 171.10100587083284 170.72129849736268 -5.0
    vertex 172.5553575992207 170.11888628700368 -5.0
  endloop
endfacet
facet normal -0.38268343236508706 -0.9238795325112881 0.0
  outer loop
    vertex 171.10100587083284 170.72129849736268 -5.0
    vertex 172.5553575992207 170.11888628700368 0.0
    vertex 171.10100587083284 170.72129849736268 0.0
  endloop
endfacet
facet normal -0.130526192220051 -0.9914448613738105 0.0
  outer loop
    vertex 174.11606924722193 169.91341470053058 0.0
    vertex 172.5553575992207 170.11888628700368 -5.0
    vertex 174.11606924722193 169.91341470053058 -5.0
  endloop
endfacet
facet normal -0.130526192220051 -0.9914448613738105 0.0
  outer loop
    vertex 172.5553575992207 170.11888628700368 -5.0
    vertex 174.11606924722193 169.91341470053058 0.0
    vertex 172.5553575992207 170.11888628700368 0.0
  endloop
endfacet
facet normal 0.13052619222005105 -0.9914448613738105 0.0
  outer loop
    vertex 175.67678089522312 170.11888628700368 0.0
    vertex 174.11606924722193 169.91341470053058 -5.0
    vertex 175.67678089522312 170.11888628700368 -5.0
  endloop
endfacet
facet normal 0.13052619222005105 -0.9914448613738105 0.0
  outer loop
    vertex 174.11606924722193 169.91341470053058 -5.0
    vertex 175.67678089522312 170.11888628700368 0.0
    vertex 174.11606924722193 169.91341470053058 0.0
  endloop
endfacet
facet normal 0.38268343236508695 -0.9238795325112881 0.0
  outer loop
    vertex 177.13113262361102 170.72129849736268 0.0
    vertex 175.67678089522312 170.11888628700368 -5.0
    vertex 177.13113262361102 170.72129849736268 -5.0
  endloop
endfacet
facet normal 0.38268343236508695 -0.9238795325112881 0.0
  outer loop
    vertex 175.67678089522312 170.11888628700368 -5.0
    vertex 177.13113262361102 170.72129849736268 0.0
    vertex 175.67678089522312 170.11888628700368 0.0
  endloop
endfacet
endsolid Center Post for Wall Thing V2
