solid flex_attachment_v2
facet normal -0.0 -0.0 1.0
  outer loop
    vertex 150.91105947482833 95.69069030244384 5.0664869999999995
    vertex 151.10186254646194 101.4612572664216 5.0664869999999995
    vertex 150.99457803423098 102.2761640414315 5.0664869999999995
  endloop
endfacet
facet normal -0.0 -0.0 1.0
  outer loop
    vertex 151.10186254646194 101.4612572664216 5.0664869999999995
    vertex 150.91105947482833 95.69069030244384 5.0664869999999995
    vertex 152.72563583763295 95.07856190979206 5.0664869999999995
  endloop
endfacet
facet normal -0.0 -0.0 1.0
  outer loop
    vertex 151.10186254646194 101.4612572664216 5.0664869999999995
    vertex 152.72563583763295 95.07856190979206 5.0664869999999995
    vertex 151.41640482094226 100.7018850414315 5.0664869999999995
  endloop
endfacet
facet normal -0.0 -0.0 1.0
  outer loop
    vertex 151.41640482094226 100.7018850414315 5.0664869999999995
    vertex 152.72563583763295 95.07856190979206 5.0664869999999995
    vertex 151.91676932147183 100.04979732867234 5.0664869999999995
  endloop
endfacet
facet normal -0.0 -0.0 1.0
  outer loop
    vertex 151.91676932147183 100.04979732867234 5.0664869999999995
    vertex 152.72563583763295 95.07856190979206 5.0664869999999995
    vertex 152.568857034231 99.54943282814277 5.0664869999999995
  endloop
endfacet
facet normal -0.0 -0.0 1.0
  outer loop
    vertex 152.568857034231 99.54943282814277 5.0664869999999995
    vertex 152.72563583763295 95.07856190979206 5.0664869999999995
    vertex 153.3282292592211 99.23489055366244 5.0664869999999995
  endloop
endfacet
facet normal -0.0 -0.0 1.0
  outer loop
    vertex 153.3282292592211 99.23489055366244 5.0664869999999995
    vertex 152.72563583763295 95.07856190979206 5.0664869999999995
    vertex 154.6368124963059 94.95693820781158 5.0664869999999995
  endloop
endfacet
facet normal -0.0 -0.0 1.0
  outer loop
    vertex 153.3282292592211 99.23489055366244 5.0664869999999995
    vertex 154.6368124963059 94.95693820781158 5.0664869999999995
    vertex 154.143136034231 99.12760604143149 5.0664869999999995
  endloop
endfacet
facet normal -0.0 -0.0 1.0
  outer loop
    vertex 154.143136034231 99.12760604143149 5.0664869999999995
    vertex 154.6368124963059 94.95693820781158 5.0664869999999995
    vertex 154.9580428092409 99.23489055366245 5.0664869999999995
  endloop
endfacet
facet normal -0.0 -0.0 1.0
  outer loop
    vertex 154.9580428092409 99.23489055366245 5.0664869999999995
    vertex 154.6368124963059 94.95693820781158 5.0664869999999995
    vertex 156.51434591992737 95.3341076507997 5.0664869999999995
  endloop
endfacet
facet normal -0.0 -0.0 1.0
  outer loop
    vertex 154.9580428092409 99.23489055366245 5.0664869999999995
    vertex 156.51434591992737 95.3341076507997 5.0664869999999995
    vertex 155.71741503423098 99.54943282814277 5.0664869999999995
  endloop
endfacet
facet normal -0.0 -0.0 1.0
  outer loop
    vertex 155.71741503423098 99.54943282814277 5.0664869999999995
    vertex 156.51434591992737 95.3341076507997 5.0664869999999995
    vertex 156.36950274699015 100.04979732867234 5.0664869999999995
  endloop
endfacet
facet normal -0.0 -0.0 1.0
  outer loop
    vertex 156.36950274699015 100.04979732867234 5.0664869999999995
    vertex 156.51434591992737 95.3341076507997 5.0664869999999995
    vertex 156.86986724751972 100.7018850414315 5.0664869999999995
  endloop
endfacet
facet normal -0.0 -0.0 1.0
  outer loop
    vertex 156.86986724751972 100.7018850414315 5.0664869999999995
    vertex 156.51434591992737 95.3341076507997 5.0664869999999995
    vertex 158.23028530844826 96.18436676451876 5.0664869999999995
  endloop
endfacet
facet normal -0.0 -0.0 1.0
  outer loop
    vertex 156.86986724751972 100.7018850414315 5.0664869999999995
    vertex 158.23028530844826 96.18436676451876 5.0664869999999995
    vertex 157.18440952200004 101.4612572664216 5.0664869999999995
  endloop
endfacet
facet normal -0.0 -0.0 1.0
  outer loop
    vertex 157.18440952200004 101.4612572664216 5.0664869999999995
    vertex 158.23028530844826 96.18436676451876 5.0664869999999995
    vertex 157.291694034231 102.2761640414315 5.0664869999999995
  endloop
endfacet
facet normal -0.0 -0.0 1.0
  outer loop
    vertex 157.291694034231 102.2761640414315 5.0664869999999995
    vertex 158.23028530844826 96.18436676451876 5.0664869999999995
    vertex 157.37521259363365 108.86163778041914 5.0664869999999995
  endloop
endfacet
facet normal -0.0 -0.0 1.0
  outer loop
    vertex 157.37521259363365 108.86163778041914 5.0664869999999995
    vertex 158.23028530844826 96.18436676451876 5.0664869999999995
    vertex 158.96952828017405 107.80072023546526 5.0664869999999995
  endloop
endfacet
facet normal -0.0 -0.0 1.0
  outer loop
    vertex 158.96952828017405 107.80072023546526 5.0664869999999995
    vertex 158.23028530844826 96.18436676451876 5.0664869999999995
    vertex 159.66769222826477 97.44977179548843 5.0664869999999995
  endloop
endfacet
facet normal -0.0 -0.0 1.0
  outer loop
    vertex 158.96952828017405 107.80072023546526 5.0664869999999995
    vertex 159.66769222826477 97.44977179548843 5.0664869999999995
    vertex 160.23493331114375 106.36331331564875 5.0664869999999995
  endloop
endfacet
facet normal -0.0 -0.0 1.0
  outer loop
    vertex 160.23493331114375 106.36331331564875 5.0664869999999995
    vertex 159.66769222826477 97.44977179548843 5.0664869999999995
    vertex 160.72860977321864 99.04408748202883 5.0664869999999995
  endloop
endfacet
facet normal -0.0 -0.0 1.0
  outer loop
    vertex 160.23493331114375 106.36331331564875 5.0664869999999995
    vertex 160.72860977321864 99.04408748202883 5.0664869999999995
    vertex 161.08519242486278 104.64737392712787 5.0664869999999995
  endloop
endfacet
facet normal -0.0 -0.0 1.0
  outer loop
    vertex 161.08519242486278 104.64737392712787 5.0664869999999995
    vertex 160.72860977321864 99.04408748202883 5.0664869999999995
    vertex 161.34073816587042 100.85866384483346 5.0664869999999995
  endloop
endfacet
facet normal -0.0 -0.0 1.0
  outer loop
    vertex 161.08519242486278 104.64737392712787 5.0664869999999995
    vertex 161.34073816587042 100.85866384483346 5.0664869999999995
    vertex 161.46236186785092 102.7698405035064 5.0664869999999995
  endloop
endfacet
facet normal -0.0 -0.0 1.0
  outer loop
    vertex 147.2010796435992 99.90495415573511 5.0664869999999995
    vertex 146.94553390259156 103.69366423802953 5.0664869999999995
    vertex 146.82391020061107 101.7824875793566 5.0664869999999995
  endloop
endfacet
facet normal -0.0 -0.0 1.0
  outer loop
    vertex 146.94553390259156 103.69366423802953 5.0664869999999995
    vertex 147.2010796435992 99.90495415573511 5.0664869999999995
    vertex 147.55766229524335 105.50824060083416 5.0664869999999995
  endloop
endfacet
facet normal -0.0 -0.0 1.0
  outer loop
    vertex 147.55766229524335 105.50824060083416 5.0664869999999995
    vertex 147.2010796435992 99.90495415573511 5.0664869999999995
    vertex 148.05133875731826 98.18901476721423 5.0664869999999995
  endloop
endfacet
facet normal -0.0 -0.0 1.0
  outer loop
    vertex 147.55766229524335 105.50824060083416 5.0664869999999995
    vertex 148.05133875731826 98.18901476721423 5.0664869999999995
    vertex 148.6185798401972 107.10255628737455 5.0664869999999995
  endloop
endfacet
facet normal -0.0 -0.0 1.0
  outer loop
    vertex 148.6185798401972 107.10255628737455 5.0664869999999995
    vertex 148.05133875731826 98.18901476721423 5.0664869999999995
    vertex 149.31674378828794 96.75160784739774 5.0664869999999995
  endloop
endfacet
facet normal -0.0 -0.0 1.0
  outer loop
    vertex 148.6185798401972 107.10255628737455 5.0664869999999995
    vertex 149.31674378828794 96.75160784739774 5.0664869999999995
    vertex 150.05598676001372 108.36796131834421 5.0664869999999995
  endloop
endfacet
facet normal -0.0 -0.0 1.0
  outer loop
    vertex 150.05598676001372 108.36796131834421 5.0664869999999995
    vertex 149.31674378828794 96.75160784739774 5.0664869999999995
    vertex 150.91105947482833 95.69069030244384 5.0664869999999995
  endloop
endfacet
facet normal -0.0 -0.0 1.0
  outer loop
    vertex 150.05598676001372 108.36796131834421 5.0664869999999995
    vertex 150.91105947482833 95.69069030244384 5.0664869999999995
    vertex 150.99457803423098 102.2761640414315 5.0664869999999995
  endloop
endfacet
facet normal -0.0 -0.0 1.0
  outer loop
    vertex 150.05598676001372 108.36796131834421 5.0664869999999995
    vertex 150.99457803423098 102.2761640414315 5.0664869999999995
    vertex 151.7719261485346 109.21822043206329 5.0664869999999995
  endloop
endfacet
facet normal -0.0 -0.0 1.0
  outer loop
    vertex 151.7719261485346 109.21822043206329 5.0664869999999995
    vertex 150.99457803423098 102.2761640414315 5.0664869999999995
    vertex 151.10186254646194 103.09107081644139 5.0664869999999995
  endloop
endfacet
facet normal -0.0 -0.0 1.0
  outer loop
    vertex 151.7719261485346 109.21822043206329 5.0664869999999995
    vertex 151.10186254646194 103.09107081644139 5.0664869999999995
    vertex 151.41640482094226 103.85044304143149 5.0664869999999995
  endloop
endfacet
facet normal -0.0 -0.0 1.0
  outer loop
    vertex 151.7719261485346 109.21822043206329 5.0664869999999995
    vertex 151.41640482094226 103.85044304143149 5.0664869999999995
    vertex 151.91676932147183 104.50253075419066 5.0664869999999995
  endloop
endfacet
facet normal -0.0 -0.0 1.0
  outer loop
    vertex 151.7719261485346 109.21822043206329 5.0664869999999995
    vertex 151.91676932147183 104.50253075419066 5.0664869999999995
    vertex 153.64945957215608 109.59538987505142 5.0664869999999995
  endloop
endfacet
facet normal -0.0 -0.0 1.0
  outer loop
    vertex 153.64945957215608 109.59538987505142 5.0664869999999995
    vertex 151.91676932147183 104.50253075419066 5.0664869999999995
    vertex 152.568857034231 105.00289525472023 5.0664869999999995
  endloop
endfacet
facet normal -0.0 -0.0 1.0
  outer loop
    vertex 153.64945957215608 109.59538987505142 5.0664869999999995
    vertex 152.568857034231 105.00289525472023 5.0664869999999995
    vertex 153.3282292592211 105.31743752920055 5.0664869999999995
  endloop
endfacet
facet normal -0.0 -0.0 1.0
  outer loop
    vertex 153.64945957215608 109.59538987505142 5.0664869999999995
    vertex 153.3282292592211 105.31743752920055 5.0664869999999995
    vertex 154.143136034231 105.4247220414315 5.0664869999999995
  endloop
endfacet
facet normal -0.0 -0.0 1.0
  outer loop
    vertex 153.64945957215608 109.59538987505142 5.0664869999999995
    vertex 154.143136034231 105.4247220414315 5.0664869999999995
    vertex 155.56063623082903 109.47376617307093 5.0664869999999995
  endloop
endfacet
facet normal -0.0 -0.0 1.0
  outer loop
    vertex 155.56063623082903 109.47376617307093 5.0664869999999995
    vertex 154.143136034231 105.4247220414315 5.0664869999999995
    vertex 154.95804280924088 105.31743752920055 5.0664869999999995
  endloop
endfacet
facet normal -0.0 -0.0 1.0
  outer loop
    vertex 155.56063623082903 109.47376617307093 5.0664869999999995
    vertex 154.95804280924088 105.31743752920055 5.0664869999999995
    vertex 155.71741503423098 105.00289525472023 5.0664869999999995
  endloop
endfacet
facet normal -0.0 -0.0 1.0
  outer loop
    vertex 155.56063623082903 109.47376617307093 5.0664869999999995
    vertex 155.71741503423098 105.00289525472023 5.0664869999999995
    vertex 157.37521259363365 108.86163778041914 5.0664869999999995
  endloop
endfacet
facet normal -0.0 -0.0 1.0
  outer loop
    vertex 157.37521259363365 108.86163778041914 5.0664869999999995
    vertex 155.71741503423098 105.00289525472023 5.0664869999999995
    vertex 156.36950274699015 104.50253075419066 5.0664869999999995
  endloop
endfacet
facet normal -0.0 -0.0 1.0
  outer loop
    vertex 157.37521259363365 108.86163778041914 5.0664869999999995
    vertex 156.36950274699015 104.50253075419066 5.0664869999999995
    vertex 156.86986724751972 103.85044304143149 5.0664869999999995
  endloop
endfacet
facet normal -0.0 -0.0 1.0
  outer loop
    vertex 157.37521259363365 108.86163778041914 5.0664869999999995
    vertex 156.86986724751972 103.85044304143149 5.0664869999999995
    vertex 157.18440952200004 103.09107081644142 5.0664869999999995
  endloop
endfacet
facet normal -0.0 -0.0 1.0
  outer loop
    vertex 157.37521259363365 108.86163778041914 5.0664869999999995
    vertex 157.18440952200004 103.09107081644142 5.0664869999999995
    vertex 157.291694034231 102.2761640414315 5.0664869999999995
  endloop
endfacet
facet normal -0.3196421638144662 -0.9475383301545147 -0.0
  outer loop
    vertex 152.72563583763295 95.07856190979206 5.0664869999999995
    vertex 150.91105947482833 95.69069030244384 0.0
    vertex 152.72563583763295 95.07856190979206 0.0
  endloop
endfacet
facet normal -0.3196421638144662 -0.9475383301545147 -0.0
  outer loop
    vertex 150.91105947482833 95.69069030244384 0.0
    vertex 152.72563583763295 95.07856190979206 5.0664869999999995
    vertex 150.91105947482833 95.69069030244384 5.0664869999999995
  endloop
endfacet
facet normal -0.5539915870079405 -0.8325222648821012 -0.0
  outer loop
    vertex 150.91105947482833 95.69069030244384 5.0664869999999995
    vertex 149.31674378828794 96.75160784739774 0.0
    vertex 150.91105947482833 95.69069030244384 0.0
  endloop
endfacet
facet normal -0.5539915870079405 -0.8325222648821012 -0.0
  outer loop
    vertex 149.31674378828794 96.75160784739774 0.0
    vertex 150.91105947482833 95.69069030244384 5.0664869999999995
    vertex 149.31674378828794 96.75160784739774 5.0664869999999995
  endloop
endfacet
facet normal -0.7505873990612072 -0.6607711830660687 -0.0
  outer loop
    vertex 148.05133875731826 98.18901476721423 5.0664869999999995
    vertex 149.31674378828794 96.75160784739774 0.0
    vertex 149.31674378828794 96.75160784739774 5.0664869999999995
  endloop
endfacet
facet normal -0.7505873990612072 -0.6607711830660687 -0.0
  outer loop
    vertex 149.31674378828794 96.75160784739774 0.0
    vertex 148.05133875731826 98.18901476721423 5.0664869999999995
    vertex 148.05133875731826 98.18901476721423 0.0
  endloop
endfacet
facet normal -0.8960319202727864 -0.4439896371000827 -0.0
  outer loop
    vertex 147.2010796435992 99.90495415573511 5.0664869999999995
    vertex 148.05133875731826 98.18901476721423 0.0
    vertex 148.05133875731826 98.18901476721423 5.0664869999999995
  endloop
endfacet
facet normal -0.8960319202727864 -0.4439896371000827 -0.0
  outer loop
    vertex 148.05133875731826 98.18901476721423 0.0
    vertex 147.2010796435992 99.90495415573511 5.0664869999999995
    vertex 147.2010796435992 99.90495415573511 0.0
  endloop
endfacet
facet normal -0.9804133468805292 -0.19695093109330414 -0.0
  outer loop
    vertex 146.82391020061107 101.7824875793566 5.0664869999999995
    vertex 147.2010796435992 99.90495415573511 0.0
    vertex 147.2010796435992 99.90495415573511 5.0664869999999995
  endloop
endfacet
facet normal -0.9804133468805292 -0.19695093109330414 -0.0
  outer loop
    vertex 147.2010796435992 99.90495415573511 0.0
    vertex 146.82391020061107 101.7824875793566 5.0664869999999995
    vertex 146.82391020061107 101.7824875793566 0.0
  endloop
endfacet
facet normal -0.9979812241080274 0.06350965539068441 0.0
  outer loop
    vertex 146.94553390259156 103.69366423802953 5.0664869999999995
    vertex 146.82391020061107 101.7824875793566 0.0
    vertex 146.82391020061107 101.7824875793566 5.0664869999999995
  endloop
endfacet
facet normal -0.9979812241080274 0.06350965539068441 0.0
  outer loop
    vertex 146.82391020061107 101.7824875793566 0.0
    vertex 146.94553390259156 103.69366423802953 5.0664869999999995
    vertex 146.94553390259156 103.69366423802953 0.0
  endloop
endfacet
facet normal -0.9475383301545176 0.3196421638144573 0.0
  outer loop
    vertex 147.55766229524335 105.50824060083416 5.0664869999999995
    vertex 146.94553390259156 103.69366423802953 0.0
    vertex 146.94553390259156 103.69366423802953 5.0664869999999995
  endloop
endfacet
facet normal -0.9475383301545176 0.3196421638144573 0.0
  outer loop
    vertex 146.94553390259156 103.69366423802953 0.0
    vertex 147.55766229524335 105.50824060083416 5.0664869999999995
    vertex 147.55766229524335 105.50824060083416 0.0
  endloop
endfacet
facet normal -0.8325222648821039 0.5539915870079364 0.0
  outer loop
    vertex 148.6185798401972 107.10255628737455 5.0664869999999995
    vertex 147.55766229524335 105.50824060083416 0.0
    vertex 147.55766229524335 105.50824060083416 5.0664869999999995
  endloop
endfacet
facet normal -0.8325222648821039 0.5539915870079364 0.0
  outer loop
    vertex 147.55766229524335 105.50824060083416 0.0
    vertex 148.6185798401972 107.10255628737455 5.0664869999999995
    vertex 148.6185798401972 107.10255628737455 0.0
  endloop
endfacet
facet normal -0.6607711830660592 0.7505873990612157 0.0
  outer loop
    vertex 148.6185798401972 107.10255628737455 5.0664869999999995
    vertex 150.05598676001372 108.36796131834421 0.0
    vertex 148.6185798401972 107.10255628737455 0.0
  endloop
endfacet
facet normal -0.6607711830660592 0.7505873990612157 0.0
  outer loop
    vertex 150.05598676001372 108.36796131834421 0.0
    vertex 148.6185798401972 107.10255628737455 5.0664869999999995
    vertex 150.05598676001372 108.36796131834421 5.0664869999999995
  endloop
endfacet
facet normal -0.4439896371000945 0.8960319202727806 0.0
  outer loop
    vertex 150.05598676001372 108.36796131834421 5.0664869999999995
    vertex 151.7719261485346 109.21822043206329 0.0
    vertex 150.05598676001372 108.36796131834421 0.0
  endloop
endfacet
facet normal -0.4439896371000945 0.8960319202727806 0.0
  outer loop
    vertex 151.7719261485346 109.21822043206329 0.0
    vertex 150.05598676001372 108.36796131834421 5.0664869999999995
    vertex 151.7719261485346 109.21822043206329 5.0664869999999995
  endloop
endfacet
facet normal -0.1969509310933053 0.980413346880529 0.0
  outer loop
    vertex 151.7719261485346 109.21822043206329 5.0664869999999995
    vertex 153.64945957215608 109.59538987505142 0.0
    vertex 151.7719261485346 109.21822043206329 0.0
  endloop
endfacet
facet normal -0.1969509310933053 0.980413346880529 0.0
  outer loop
    vertex 153.64945957215608 109.59538987505142 0.0
    vertex 151.7719261485346 109.21822043206329 5.0664869999999995
    vertex 153.64945957215608 109.59538987505142 5.0664869999999995
  endloop
endfacet
facet normal 0.06350965539068366 0.9979812241080274 0.0
  outer loop
    vertex 153.64945957215608 109.59538987505142 5.0664869999999995
    vertex 155.56063623082903 109.47376617307093 0.0
    vertex 153.64945957215608 109.59538987505142 0.0
  endloop
endfacet
facet normal 0.06350965539068366 0.9979812241080274 0.0
  outer loop
    vertex 155.56063623082903 109.47376617307093 0.0
    vertex 153.64945957215608 109.59538987505142 5.0664869999999995
    vertex 155.56063623082903 109.47376617307093 5.0664869999999995
  endloop
endfacet
facet normal 0.3196421638144573 0.9475383301545176 0.0
  outer loop
    vertex 155.56063623082903 109.47376617307093 5.0664869999999995
    vertex 157.37521259363365 108.86163778041914 0.0
    vertex 155.56063623082903 109.47376617307093 0.0
  endloop
endfacet
facet normal 0.3196421638144573 0.9475383301545176 0.0
  outer loop
    vertex 157.37521259363365 108.86163778041914 0.0
    vertex 155.56063623082903 109.47376617307093 5.0664869999999995
    vertex 157.37521259363365 108.86163778041914 5.0664869999999995
  endloop
endfacet
facet normal 0.5539915870079364 0.8325222648821039 0.0
  outer loop
    vertex 157.37521259363365 108.86163778041914 5.0664869999999995
    vertex 158.96952828017405 107.80072023546526 0.0
    vertex 157.37521259363365 108.86163778041914 0.0
  endloop
endfacet
facet normal 0.5539915870079364 0.8325222648821039 0.0
  outer loop
    vertex 158.96952828017405 107.80072023546526 0.0
    vertex 157.37521259363365 108.86163778041914 5.0664869999999995
    vertex 158.96952828017405 107.80072023546526 5.0664869999999995
  endloop
endfacet
facet normal 0.7505873990612099 0.6607711830660659 0.0
  outer loop
    vertex 158.96952828017405 107.80072023546526 0.0
    vertex 160.23493331114375 106.36331331564875 5.0664869999999995
    vertex 160.23493331114375 106.36331331564875 0.0
  endloop
endfacet
facet normal 0.7505873990612099 0.6607711830660659 0.0
  outer loop
    vertex 160.23493331114375 106.36331331564875 5.0664869999999995
    vertex 158.96952828017405 107.80072023546526 0.0
    vertex 158.96952828017405 107.80072023546526 5.0664869999999995
  endloop
endfacet
facet normal 0.8960319202727876 0.4439896371000803 0.0
  outer loop
    vertex 160.23493331114375 106.36331331564875 0.0
    vertex 161.08519242486278 104.64737392712787 5.0664869999999995
    vertex 161.08519242486278 104.64737392712787 0.0
  endloop
endfacet
facet normal 0.8960319202727876 0.4439896371000803 0.0
  outer loop
    vertex 161.08519242486278 104.64737392712787 5.0664869999999995
    vertex 160.23493331114375 106.36331331564875 0.0
    vertex 160.23493331114375 106.36331331564875 5.0664869999999995
  endloop
endfacet
facet normal 0.980413346880529 0.1969509310933053 0.0
  outer loop
    vertex 161.08519242486278 104.64737392712787 0.0
    vertex 161.46236186785092 102.7698405035064 5.0664869999999995
    vertex 161.46236186785092 102.7698405035064 0.0
  endloop
endfacet
facet normal 0.980413346880529 0.1969509310933053 0.0
  outer loop
    vertex 161.46236186785092 102.7698405035064 5.0664869999999995
    vertex 161.08519242486278 104.64737392712787 0.0
    vertex 161.08519242486278 104.64737392712787 5.0664869999999995
  endloop
endfacet
facet normal 0.9979812241080274 -0.06350965539068404 0.0
  outer loop
    vertex 161.46236186785092 102.7698405035064 0.0
    vertex 161.34073816587042 100.85866384483346 5.0664869999999995
    vertex 161.34073816587042 100.85866384483346 0.0
  endloop
endfacet
facet normal 0.9979812241080274 -0.06350965539068404 0.0
  outer loop
    vertex 161.34073816587042 100.85866384483346 5.0664869999999995
    vertex 161.46236186785092 102.7698405035064 0.0
    vertex 161.46236186785092 102.7698405035064 5.0664869999999995
  endloop
endfacet
facet normal 0.9475383301545172 -0.3196421638144591 0.0
  outer loop
    vertex 161.34073816587042 100.85866384483346 0.0
    vertex 160.72860977321864 99.04408748202883 5.0664869999999995
    vertex 160.72860977321864 99.04408748202883 0.0
  endloop
endfacet
facet normal 0.9475383301545172 -0.3196421638144591 0.0
  outer loop
    vertex 160.72860977321864 99.04408748202883 5.0664869999999995
    vertex 161.34073816587042 100.85866384483346 0.0
    vertex 161.34073816587042 100.85866384483346 5.0664869999999995
  endloop
endfacet
facet normal 0.8325222648821039 -0.5539915870079364 0.0
  outer loop
    vertex 160.72860977321864 99.04408748202883 0.0
    vertex 159.66769222826477 97.44977179548843 5.0664869999999995
    vertex 159.66769222826477 97.44977179548843 0.0
  endloop
endfacet
facet normal 0.8325222648821039 -0.5539915870079364 0.0
  outer loop
    vertex 159.66769222826477 97.44977179548843 5.0664869999999995
    vertex 160.72860977321864 99.04408748202883 0.0
    vertex 160.72860977321864 99.04408748202883 5.0664869999999995
  endloop
endfacet
facet normal 0.6607711830660624 -0.7505873990612126 0.0
  outer loop
    vertex 159.66769222826477 97.44977179548843 5.0664869999999995
    vertex 158.23028530844826 96.18436676451876 0.0
    vertex 159.66769222826477 97.44977179548843 0.0
  endloop
endfacet
facet normal 0.6607711830660624 -0.7505873990612126 0.0
  outer loop
    vertex 158.23028530844826 96.18436676451876 0.0
    vertex 159.66769222826477 97.44977179548843 5.0664869999999995
    vertex 158.23028530844826 96.18436676451876 5.0664869999999995
  endloop
endfacet
facet normal 0.4439896371000851 -0.8960319202727852 0.0
  outer loop
    vertex 158.23028530844826 96.18436676451876 5.0664869999999995
    vertex 156.51434591992737 95.3341076507997 0.0
    vertex 158.23028530844826 96.18436676451876 0.0
  endloop
endfacet
facet normal 0.4439896371000851 -0.8960319202727852 0.0
  outer loop
    vertex 156.51434591992737 95.3341076507997 0.0
    vertex 158.23028530844826 96.18436676451876 5.0664869999999995
    vertex 156.51434591992737 95.3341076507997 5.0664869999999995
  endloop
endfacet
facet normal 0.1969509310933053 -0.980413346880529 0.0
  outer loop
    vertex 156.51434591992737 95.3341076507997 5.0664869999999995
    vertex 154.6368124963059 94.95693820781158 0.0
    vertex 156.51434591992737 95.3341076507997 0.0
  endloop
endfacet
facet normal 0.1969509310933053 -0.980413346880529 0.0
  outer loop
    vertex 154.6368124963059 94.95693820781158 0.0
    vertex 156.51434591992737 95.3341076507997 5.0664869999999995
    vertex 154.6368124963059 94.95693820781158 5.0664869999999995
  endloop
endfacet
facet normal -0.06350965539067781 -0.9979812241080278 -0.0
  outer loop
    vertex 154.6368124963059 94.95693820781158 5.0664869999999995
    vertex 152.72563583763295 95.07856190979206 0.0
    vertex 154.6368124963059 94.95693820781158 0.0
  endloop
endfacet
facet normal -0.06350965539067781 -0.9979812241080278 -0.0
  outer loop
    vertex 152.72563583763295 95.07856190979206 0.0
    vertex 154.6368124963059 94.95693820781158 5.0664869999999995
    vertex 152.72563583763295 95.07856190979206 5.0664869999999995
  endloop
endfacet
facet normal 0.608761429008717 -0.7933533402912379 0.0
  outer loop
    vertex 152.568857034231 105.00289525472023 5.0664869999999995
    vertex 151.91676932147183 104.50253075419066 0.0
    vertex 152.568857034231 105.00289525472023 0.0
  endloop
endfacet
facet normal 0.608761429008717 -0.7933533402912379 0.0
  outer loop
    vertex 151.91676932147183 104.50253075419066 0.0
    vertex 152.568857034231 105.00289525472023 5.0664869999999995
    vertex 151.91676932147183 104.50253075419066 5.0664869999999995
  endloop
endfacet
facet normal 0.9238795325112924 -0.382683432365076 -0.0
  outer loop
    vertex 151.41640482094226 103.85044304143149 0.0
    vertex 151.10186254646194 103.09107081644139 5.0664869999999995
    vertex 151.10186254646194 103.09107081644139 0.0
  endloop
endfacet
facet normal 0.9238795325112924 -0.382683432365076 -0.0
  outer loop
    vertex 151.10186254646194 103.09107081644139 5.0664869999999995
    vertex 151.41640482094226 103.85044304143149 0.0
    vertex 151.41640482094226 103.85044304143149 5.0664869999999995
  endloop
endfacet
facet normal 0.7933533402912379 -0.608761429008717 -0.0
  outer loop
    vertex 151.91676932147183 104.50253075419066 0.0
    vertex 151.41640482094226 103.85044304143149 5.0664869999999995
    vertex 151.41640482094226 103.85044304143149 0.0
  endloop
endfacet
facet normal 0.7933533402912379 -0.608761429008717 -0.0
  outer loop
    vertex 151.41640482094226 103.85044304143149 5.0664869999999995
    vertex 151.91676932147183 104.50253075419066 0.0
    vertex 151.91676932147183 104.50253075419066 5.0664869999999995
  endloop
endfacet
facet normal 0.9914448613738092 -0.13052619222006076 -0.0
  outer loop
    vertex 151.10186254646194 103.09107081644139 0.0
    vertex 150.99457803423098 102.2761640414315 5.0664869999999995
    vertex 150.99457803423098 102.2761640414315 0.0
  endloop
endfacet
facet normal 0.9914448613738092 -0.13052619222006076 -0.0
  outer loop
    vertex 150.99457803423098 102.2761640414315 5.0664869999999995
    vertex 151.10186254646194 103.09107081644139 0.0
    vertex 151.10186254646194 103.09107081644139 5.0664869999999995
  endloop
endfacet
facet normal 0.9914448613738094 0.13052619222005904 -0.0
  outer loop
    vertex 150.99457803423098 102.2761640414315 0.0
    vertex 151.10186254646194 101.4612572664216 5.0664869999999995
    vertex 151.10186254646194 101.4612572664216 0.0
  endloop
endfacet
facet normal 0.9914448613738094 0.13052619222005904 -0.0
  outer loop
    vertex 151.10186254646194 101.4612572664216 5.0664869999999995
    vertex 150.99457803423098 102.2761640414315 0.0
    vertex 150.99457803423098 102.2761640414315 5.0664869999999995
  endloop
endfacet
facet normal 0.7933533402912379 0.608761429008717 -0.0
  outer loop
    vertex 151.41640482094226 100.7018850414315 0.0
    vertex 151.91676932147183 100.04979732867234 5.0664869999999995
    vertex 151.91676932147183 100.04979732867234 0.0
  endloop
endfacet
facet normal 0.7933533402912379 0.608761429008717 -0.0
  outer loop
    vertex 151.91676932147183 100.04979732867234 5.0664869999999995
    vertex 151.41640482094226 100.7018850414315 0.0
    vertex 151.41640482094226 100.7018850414315 5.0664869999999995
  endloop
endfacet
facet normal 0.9238795325112905 0.3826834323650809 -0.0
  outer loop
    vertex 151.10186254646194 101.4612572664216 0.0
    vertex 151.41640482094226 100.7018850414315 5.0664869999999995
    vertex 151.41640482094226 100.7018850414315 0.0
  endloop
endfacet
facet normal 0.9238795325112905 0.3826834323650809 -0.0
  outer loop
    vertex 151.41640482094226 100.7018850414315 5.0664869999999995
    vertex 151.10186254646194 101.4612572664216 0.0
    vertex 151.10186254646194 101.4612572664216 5.0664869999999995
  endloop
endfacet
facet normal 0.608761429008717 0.7933533402912379 -0.0
  outer loop
    vertex 151.91676932147183 100.04979732867234 5.0664869999999995
    vertex 152.568857034231 99.54943282814277 0.0
    vertex 151.91676932147183 100.04979732867234 0.0
  endloop
endfacet
facet normal 0.608761429008717 0.7933533402912379 -0.0
  outer loop
    vertex 152.568857034231 99.54943282814277 0.0
    vertex 151.91676932147183 100.04979732867234 5.0664869999999995
    vertex 152.568857034231 99.54943282814277 5.0664869999999995
  endloop
endfacet
facet normal 0.13052619222004733 0.9914448613738109 -0.0
  outer loop
    vertex 153.3282292592211 99.23489055366244 5.0664869999999995
    vertex 154.143136034231 99.12760604143149 0.0
    vertex 153.3282292592211 99.23489055366244 0.0
  endloop
endfacet
facet normal 0.13052619222004733 0.9914448613738109 -0.0
  outer loop
    vertex 154.143136034231 99.12760604143149 0.0
    vertex 153.3282292592211 99.23489055366244 5.0664869999999995
    vertex 154.143136034231 99.12760604143149 5.0664869999999995
  endloop
endfacet
facet normal 0.38268343236508773 0.9238795325112876 -0.0
  outer loop
    vertex 152.568857034231 99.54943282814277 5.0664869999999995
    vertex 153.3282292592211 99.23489055366244 0.0
    vertex 152.568857034231 99.54943282814277 0.0
  endloop
endfacet
facet normal 0.38268343236508773 0.9238795325112876 -0.0
  outer loop
    vertex 153.3282292592211 99.23489055366244 0.0
    vertex 152.568857034231 99.54943282814277 5.0664869999999995
    vertex 153.3282292592211 99.23489055366244 5.0664869999999995
  endloop
endfacet
facet normal -0.1305261922200573 0.9914448613738096 -0.0
  outer loop
    vertex 154.143136034231 99.12760604143149 5.0664869999999995
    vertex 154.9580428092409 99.23489055366245 0.0
    vertex 154.143136034231 99.12760604143149 0.0
  endloop
endfacet
facet normal -0.1305261922200573 0.9914448613738096 -0.0
  outer loop
    vertex 154.9580428092409 99.23489055366245 0.0
    vertex 154.143136034231 99.12760604143149 5.0664869999999995
    vertex 154.9580428092409 99.23489055366245 5.0664869999999995
  endloop
endfacet
facet normal -0.3826834323650857 0.9238795325112884 -0.0
  outer loop
    vertex 154.9580428092409 99.23489055366245 5.0664869999999995
    vertex 155.71741503423098 99.54943282814277 0.0
    vertex 154.9580428092409 99.23489055366245 0.0
  endloop
endfacet
facet normal -0.3826834323650857 0.9238795325112884 -0.0
  outer loop
    vertex 155.71741503423098 99.54943282814277 0.0
    vertex 154.9580428092409 99.23489055366245 5.0664869999999995
    vertex 155.71741503423098 99.54943282814277 5.0664869999999995
  endloop
endfacet
facet normal -0.608761429008717 0.7933533402912379 -0.0
  outer loop
    vertex 155.71741503423098 99.54943282814277 5.0664869999999995
    vertex 156.36950274699015 100.04979732867234 0.0
    vertex 155.71741503423098 99.54943282814277 0.0
  endloop
endfacet
facet normal -0.608761429008717 0.7933533402912379 -0.0
  outer loop
    vertex 156.36950274699015 100.04979732867234 0.0
    vertex 155.71741503423098 99.54943282814277 5.0664869999999995
    vertex 156.36950274699015 100.04979732867234 5.0664869999999995
  endloop
endfacet
facet normal -0.9238795325112905 0.3826834323650809 0.0
  outer loop
    vertex 157.18440952200004 101.4612572664216 5.0664869999999995
    vertex 156.86986724751972 100.7018850414315 0.0
    vertex 156.86986724751972 100.7018850414315 5.0664869999999995
  endloop
endfacet
facet normal -0.9238795325112905 0.3826834323650809 0.0
  outer loop
    vertex 156.86986724751972 100.7018850414315 0.0
    vertex 157.18440952200004 101.4612572664216 5.0664869999999995
    vertex 157.18440952200004 101.4612572664216 0.0
  endloop
endfacet
facet normal -0.7933533402912379 0.608761429008717 0.0
  outer loop
    vertex 156.86986724751972 100.7018850414315 5.0664869999999995
    vertex 156.36950274699015 100.04979732867234 0.0
    vertex 156.36950274699015 100.04979732867234 5.0664869999999995
  endloop
endfacet
facet normal -0.7933533402912379 0.608761429008717 0.0
  outer loop
    vertex 156.36950274699015 100.04979732867234 0.0
    vertex 156.86986724751972 100.7018850414315 5.0664869999999995
    vertex 156.86986724751972 100.7018850414315 0.0
  endloop
endfacet
facet normal -0.9914448613738094 0.13052619222005904 0.0
  outer loop
    vertex 157.291694034231 102.2761640414315 5.0664869999999995
    vertex 157.18440952200004 101.4612572664216 0.0
    vertex 157.18440952200004 101.4612572664216 5.0664869999999995
  endloop
endfacet
facet normal -0.9914448613738094 0.13052619222005904 0.0
  outer loop
    vertex 157.18440952200004 101.4612572664216 0.0
    vertex 157.291694034231 102.2761640414315 5.0664869999999995
    vertex 157.291694034231 102.2761640414315 0.0
  endloop
endfacet
facet normal -0.9914448613738098 -0.13052619222005726 0.0
  outer loop
    vertex 157.18440952200004 103.09107081644142 5.0664869999999995
    vertex 157.291694034231 102.2761640414315 0.0
    vertex 157.291694034231 102.2761640414315 5.0664869999999995
  endloop
endfacet
facet normal -0.9914448613738098 -0.13052619222005726 0.0
  outer loop
    vertex 157.291694034231 102.2761640414315 0.0
    vertex 157.18440952200004 103.09107081644142 5.0664869999999995
    vertex 157.18440952200004 103.09107081644142 0.0
  endloop
endfacet
facet normal -0.608761429008717 -0.7933533402912379 0.0
  outer loop
    vertex 156.36950274699015 104.50253075419066 5.0664869999999995
    vertex 155.71741503423098 105.00289525472023 0.0
    vertex 156.36950274699015 104.50253075419066 0.0
  endloop
endfacet
facet normal -0.608761429008717 -0.7933533402912379 0.0
  outer loop
    vertex 155.71741503423098 105.00289525472023 0.0
    vertex 156.36950274699015 104.50253075419066 5.0664869999999995
    vertex 155.71741503423098 105.00289525472023 5.0664869999999995
  endloop
endfacet
facet normal -0.9238795325112886 -0.38268343236508573 0.0
  outer loop
    vertex 156.86986724751972 103.85044304143149 5.0664869999999995
    vertex 157.18440952200004 103.09107081644142 0.0
    vertex 157.18440952200004 103.09107081644142 5.0664869999999995
  endloop
endfacet
facet normal -0.9238795325112886 -0.38268343236508573 0.0
  outer loop
    vertex 157.18440952200004 103.09107081644142 0.0
    vertex 156.86986724751972 103.85044304143149 5.0664869999999995
    vertex 156.86986724751972 103.85044304143149 0.0
  endloop
endfacet
facet normal -0.7933533402912379 -0.608761429008717 0.0
  outer loop
    vertex 156.36950274699015 104.50253075419066 5.0664869999999995
    vertex 156.86986724751972 103.85044304143149 0.0
    vertex 156.86986724751972 103.85044304143149 5.0664869999999995
  endloop
endfacet
facet normal -0.7933533402912379 -0.608761429008717 0.0
  outer loop
    vertex 156.86986724751972 103.85044304143149 0.0
    vertex 156.36950274699015 104.50253075419066 5.0664869999999995
    vertex 156.36950274699015 104.50253075419066 0.0
  endloop
endfacet
facet normal -0.13052619222006076 -0.9914448613738092 0.0
  outer loop
    vertex 154.95804280924088 105.31743752920055 5.0664869999999995
    vertex 154.143136034231 105.4247220414315 0.0
    vertex 154.95804280924088 105.31743752920055 0.0
  endloop
endfacet
facet normal -0.13052619222006076 -0.9914448613738092 0.0
  outer loop
    vertex 154.143136034231 105.4247220414315 0.0
    vertex 154.95804280924088 105.31743752920055 5.0664869999999995
    vertex 154.143136034231 105.4247220414315 5.0664869999999995
  endloop
endfacet
facet normal -0.382683432365076 -0.9238795325112924 0.0
  outer loop
    vertex 155.71741503423098 105.00289525472023 5.0664869999999995
    vertex 154.95804280924088 105.31743752920055 0.0
    vertex 155.71741503423098 105.00289525472023 0.0
  endloop
endfacet
facet normal -0.382683432365076 -0.9238795325112924 0.0
  outer loop
    vertex 154.95804280924088 105.31743752920055 0.0
    vertex 155.71741503423098 105.00289525472023 5.0664869999999995
    vertex 154.95804280924088 105.31743752920055 5.0664869999999995
  endloop
endfacet
facet normal 0.13052619222006076 -0.9914448613738092 0.0
  outer loop
    vertex 154.143136034231 105.4247220414315 5.0664869999999995
    vertex 153.3282292592211 105.31743752920055 0.0
    vertex 154.143136034231 105.4247220414315 0.0
  endloop
endfacet
facet normal 0.13052619222006076 -0.9914448613738092 0.0
  outer loop
    vertex 153.3282292592211 105.31743752920055 0.0
    vertex 154.143136034231 105.4247220414315 5.0664869999999995
    vertex 153.3282292592211 105.31743752920055 5.0664869999999995
  endloop
endfacet
facet normal 0.382683432365076 -0.9238795325112924 0.0
  outer loop
    vertex 153.3282292592211 105.31743752920055 5.0664869999999995
    vertex 152.568857034231 105.00289525472023 0.0
    vertex 153.3282292592211 105.31743752920055 0.0
  endloop
endfacet
facet normal 0.382683432365076 -0.9238795325112924 0.0
  outer loop
    vertex 152.568857034231 105.00289525472023 0.0
    vertex 153.3282292592211 105.31743752920055 5.0664869999999995
    vertex 152.568857034231 105.00289525472023 5.0664869999999995
  endloop
endfacet
facet normal 0.0 0.0 -1.0
  outer loop
    vertex 146.94553390259156 103.69366423802953 0.0
    vertex 147.2010796435992 99.90495415573511 0.0
    vertex 146.82391020061107 101.7824875793566 0.0
  endloop
endfacet
facet normal 0.0 0.0 -1.0
  outer loop
    vertex 147.2010796435992 99.90495415573511 0.0
    vertex 146.94553390259156 103.69366423802953 0.0
    vertex 147.55766229524335 105.50824060083416 0.0
  endloop
endfacet
facet normal 0.0 0.0 -1.0
  outer loop
    vertex 147.2010796435992 99.90495415573511 0.0
    vertex 147.55766229524335 105.50824060083416 0.0
    vertex 148.05133875731826 98.18901476721423 0.0
  endloop
endfacet
facet normal 0.0 0.0 -1.0
  outer loop
    vertex 148.05133875731826 98.18901476721423 0.0
    vertex 147.55766229524335 105.50824060083416 0.0
    vertex 148.6185798401972 107.10255628737455 0.0
  endloop
endfacet
facet normal 0.0 0.0 -1.0
  outer loop
    vertex 148.05133875731826 98.18901476721423 0.0
    vertex 148.6185798401972 107.10255628737455 0.0
    vertex 149.31674378828794 96.75160784739774 0.0
  endloop
endfacet
facet normal 0.0 0.0 -1.0
  outer loop
    vertex 149.31674378828794 96.75160784739774 0.0
    vertex 148.6185798401972 107.10255628737455 0.0
    vertex 150.05598676001372 108.36796131834421 0.0
  endloop
endfacet
facet normal 0.0 0.0 -1.0
  outer loop
    vertex 149.31674378828794 96.75160784739774 0.0
    vertex 150.05598676001372 108.36796131834421 0.0
    vertex 150.91105947482833 95.69069030244384 0.0
  endloop
endfacet
facet normal 0.0 0.0 -1.0
  outer loop
    vertex 150.91105947482833 95.69069030244384 0.0
    vertex 150.05598676001372 108.36796131834421 0.0
    vertex 150.99457803423098 102.2761640414315 0.0
  endloop
endfacet
facet normal 0.0 0.0 -1.0
  outer loop
    vertex 150.99457803423098 102.2761640414315 0.0
    vertex 150.05598676001372 108.36796131834421 0.0
    vertex 151.7719261485346 109.21822043206329 0.0
  endloop
endfacet
facet normal 0.0 0.0 -1.0
  outer loop
    vertex 150.99457803423098 102.2761640414315 0.0
    vertex 151.7719261485346 109.21822043206329 0.0
    vertex 151.10186254646194 103.09107081644139 0.0
  endloop
endfacet
facet normal 0.0 0.0 -1.0
  outer loop
    vertex 151.10186254646194 103.09107081644139 0.0
    vertex 151.7719261485346 109.21822043206329 0.0
    vertex 151.41640482094226 103.85044304143149 0.0
  endloop
endfacet
facet normal 0.0 0.0 -1.0
  outer loop
    vertex 151.41640482094226 103.85044304143149 0.0
    vertex 151.7719261485346 109.21822043206329 0.0
    vertex 151.91676932147183 104.50253075419066 0.0
  endloop
endfacet
facet normal 0.0 0.0 -1.0
  outer loop
    vertex 151.91676932147183 104.50253075419066 0.0
    vertex 151.7719261485346 109.21822043206329 0.0
    vertex 153.64945957215608 109.59538987505142 0.0
  endloop
endfacet
facet normal 0.0 0.0 -1.0
  outer loop
    vertex 151.91676932147183 104.50253075419066 0.0
    vertex 153.64945957215608 109.59538987505142 0.0
    vertex 152.568857034231 105.00289525472023 0.0
  endloop
endfacet
facet normal 0.0 0.0 -1.0
  outer loop
    vertex 152.568857034231 105.00289525472023 0.0
    vertex 153.64945957215608 109.59538987505142 0.0
    vertex 153.3282292592211 105.31743752920055 0.0
  endloop
endfacet
facet normal 0.0 0.0 -1.0
  outer loop
    vertex 153.3282292592211 105.31743752920055 0.0
    vertex 153.64945957215608 109.59538987505142 0.0
    vertex 154.143136034231 105.4247220414315 0.0
  endloop
endfacet
facet normal 0.0 0.0 -1.0
  outer loop
    vertex 154.143136034231 105.4247220414315 0.0
    vertex 153.64945957215608 109.59538987505142 0.0
    vertex 155.56063623082903 109.47376617307093 0.0
  endloop
endfacet
facet normal 0.0 0.0 -1.0
  outer loop
    vertex 154.143136034231 105.4247220414315 0.0
    vertex 155.56063623082903 109.47376617307093 0.0
    vertex 154.95804280924088 105.31743752920055 0.0
  endloop
endfacet
facet normal 0.0 0.0 -1.0
  outer loop
    vertex 154.95804280924088 105.31743752920055 0.0
    vertex 155.56063623082903 109.47376617307093 0.0
    vertex 155.71741503423098 105.00289525472023 0.0
  endloop
endfacet
facet normal 0.0 0.0 -1.0
  outer loop
    vertex 155.71741503423098 105.00289525472023 0.0
    vertex 155.56063623082903 109.47376617307093 0.0
    vertex 157.37521259363365 108.86163778041914 0.0
  endloop
endfacet
facet normal 0.0 0.0 -1.0
  outer loop
    vertex 155.71741503423098 105.00289525472023 0.0
    vertex 157.37521259363365 108.86163778041914 0.0
    vertex 156.36950274699015 104.50253075419066 0.0
  endloop
endfacet
facet normal 0.0 0.0 -1.0
  outer loop
    vertex 156.36950274699015 104.50253075419066 0.0
    vertex 157.37521259363365 108.86163778041914 0.0
    vertex 156.86986724751972 103.85044304143149 0.0
  endloop
endfacet
facet normal 0.0 0.0 -1.0
  outer loop
    vertex 156.86986724751972 103.85044304143149 0.0
    vertex 157.37521259363365 108.86163778041914 0.0
    vertex 157.18440952200004 103.09107081644142 0.0
  endloop
endfacet
facet normal 0.0 0.0 -1.0
  outer loop
    vertex 157.18440952200004 103.09107081644142 0.0
    vertex 157.37521259363365 108.86163778041914 0.0
    vertex 157.291694034231 102.2761640414315 0.0
  endloop
endfacet
facet normal 0.0 0.0 -1.0
  outer loop
    vertex 150.91105947482833 95.69069030244384 0.0
    vertex 151.10186254646194 101.4612572664216 0.0
    vertex 152.72563583763295 95.07856190979206 0.0
  endloop
endfacet
facet normal 0.0 0.0 -1.0
  outer loop
    vertex 151.10186254646194 101.4612572664216 0.0
    vertex 150.91105947482833 95.69069030244384 0.0
    vertex 150.99457803423098 102.2761640414315 0.0
  endloop
endfacet
facet normal 0.0 0.0 -1.0
  outer loop
    vertex 152.72563583763295 95.07856190979206 0.0
    vertex 151.10186254646194 101.4612572664216 0.0
    vertex 151.41640482094226 100.7018850414315 0.0
  endloop
endfacet
facet normal 0.0 0.0 -1.0
  outer loop
    vertex 152.72563583763295 95.07856190979206 0.0
    vertex 151.41640482094226 100.7018850414315 0.0
    vertex 151.91676932147183 100.04979732867234 0.0
  endloop
endfacet
facet normal 0.0 0.0 -1.0
  outer loop
    vertex 152.72563583763295 95.07856190979206 0.0
    vertex 151.91676932147183 100.04979732867234 0.0
    vertex 152.568857034231 99.54943282814277 0.0
  endloop
endfacet
facet normal 0.0 0.0 -1.0
  outer loop
    vertex 152.72563583763295 95.07856190979206 0.0
    vertex 152.568857034231 99.54943282814277 0.0
    vertex 153.3282292592211 99.23489055366244 0.0
  endloop
endfacet
facet normal 0.0 0.0 -1.0
  outer loop
    vertex 152.72563583763295 95.07856190979206 0.0
    vertex 153.3282292592211 99.23489055366244 0.0
    vertex 154.6368124963059 94.95693820781158 0.0
  endloop
endfacet
facet normal 0.0 0.0 -1.0
  outer loop
    vertex 154.6368124963059 94.95693820781158 0.0
    vertex 153.3282292592211 99.23489055366244 0.0
    vertex 154.143136034231 99.12760604143149 0.0
  endloop
endfacet
facet normal 0.0 0.0 -1.0
  outer loop
    vertex 154.6368124963059 94.95693820781158 0.0
    vertex 154.143136034231 99.12760604143149 0.0
    vertex 154.9580428092409 99.23489055366245 0.0
  endloop
endfacet
facet normal 0.0 0.0 -1.0
  outer loop
    vertex 154.6368124963059 94.95693820781158 0.0
    vertex 154.9580428092409 99.23489055366245 0.0
    vertex 156.51434591992737 95.3341076507997 0.0
  endloop
endfacet
facet normal 0.0 0.0 -1.0
  outer loop
    vertex 156.51434591992737 95.3341076507997 0.0
    vertex 154.9580428092409 99.23489055366245 0.0
    vertex 155.71741503423098 99.54943282814277 0.0
  endloop
endfacet
facet normal 0.0 0.0 -1.0
  outer loop
    vertex 156.51434591992737 95.3341076507997 0.0
    vertex 155.71741503423098 99.54943282814277 0.0
    vertex 156.36950274699015 100.04979732867234 0.0
  endloop
endfacet
facet normal 0.0 0.0 -1.0
  outer loop
    vertex 156.51434591992737 95.3341076507997 0.0
    vertex 156.36950274699015 100.04979732867234 0.0
    vertex 156.86986724751972 100.7018850414315 0.0
  endloop
endfacet
facet normal 0.0 0.0 -1.0
  outer loop
    vertex 156.51434591992737 95.3341076507997 0.0
    vertex 156.86986724751972 100.7018850414315 0.0
    vertex 158.23028530844826 96.18436676451876 0.0
  endloop
endfacet
facet normal 0.0 0.0 -1.0
  outer loop
    vertex 158.23028530844826 96.18436676451876 0.0
    vertex 156.86986724751972 100.7018850414315 0.0
    vertex 157.18440952200004 101.4612572664216 0.0
  endloop
endfacet
facet normal 0.0 0.0 -1.0
  outer loop
    vertex 158.23028530844826 96.18436676451876 0.0
    vertex 157.18440952200004 101.4612572664216 0.0
    vertex 157.291694034231 102.2761640414315 0.0
  endloop
endfacet
facet normal 0.0 0.0 -1.0
  outer loop
    vertex 158.23028530844826 96.18436676451876 0.0
    vertex 157.291694034231 102.2761640414315 0.0
    vertex 157.37521259363365 108.86163778041914 0.0
  endloop
endfacet
facet normal 0.0 0.0 -1.0
  outer loop
    vertex 158.23028530844826 96.18436676451876 0.0
    vertex 157.37521259363365 108.86163778041914 0.0
    vertex 158.96952828017405 107.80072023546526 0.0
  endloop
endfacet
facet normal 0.0 0.0 -1.0
  outer loop
    vertex 158.23028530844826 96.18436676451876 0.0
    vertex 158.96952828017405 107.80072023546526 0.0
    vertex 159.66769222826477 97.44977179548843 0.0
  endloop
endfacet
facet normal 0.0 0.0 -1.0
  outer loop
    vertex 159.66769222826477 97.44977179548843 0.0
    vertex 158.96952828017405 107.80072023546526 0.0
    vertex 160.23493331114375 106.36331331564875 0.0
  endloop
endfacet
facet normal 0.0 0.0 -1.0
  outer loop
    vertex 159.66769222826477 97.44977179548843 0.0
    vertex 160.23493331114375 106.36331331564875 0.0
    vertex 160.72860977321864 99.04408748202883 0.0
  endloop
endfacet
facet normal 0.0 0.0 -1.0
  outer loop
    vertex 160.72860977321864 99.04408748202883 0.0
    vertex 160.23493331114375 106.36331331564875 0.0
    vertex 161.08519242486278 104.64737392712787 0.0
  endloop
endfacet
facet normal 0.0 0.0 -1.0
  outer loop
    vertex 160.72860977321864 99.04408748202883 0.0
    vertex 161.08519242486278 104.64737392712787 0.0
    vertex 161.34073816587042 100.85866384483346 0.0
  endloop
endfacet
facet normal 0.0 0.0 -1.0
  outer loop
    vertex 161.34073816587042 100.85866384483346 0.0
    vertex 161.08519242486278 104.64737392712787 0.0
    vertex 161.46236186785092 102.7698405035064 0.0
  endloop
endfacet
facet normal 0.0 0.0 -1.0
  outer loop
    vertex 151.10186254646194 103.09107081644139 6.216702999999999
    vertex 151.10186254646194 101.4612572664216 6.216702999999999
    vertex 150.99457803423098 102.2761640414315 6.216702999999999
  endloop
endfacet
facet normal 0.0 0.0 -1.0
  outer loop
    vertex 151.10186254646194 101.4612572664216 6.216702999999999
    vertex 151.10186254646194 103.09107081644139 6.216702999999999
    vertex 151.41640482094226 103.85044304143149 6.216702999999999
  endloop
endfacet
facet normal 0.0 0.0 -1.0
  outer loop
    vertex 151.10186254646194 101.4612572664216 6.216702999999999
    vertex 151.41640482094226 103.85044304143149 6.216702999999999
    vertex 151.41640482094226 100.7018850414315 6.216702999999999
  endloop
endfacet
facet normal 0.0 0.0 -1.0
  outer loop
    vertex 151.41640482094226 100.7018850414315 6.216702999999999
    vertex 151.41640482094226 103.85044304143149 6.216702999999999
    vertex 151.91676932147183 104.50253075419066 6.216702999999999
  endloop
endfacet
facet normal 0.0 0.0 -1.0
  outer loop
    vertex 151.41640482094226 100.7018850414315 6.216702999999999
    vertex 151.91676932147183 104.50253075419066 6.216702999999999
    vertex 151.91676932147183 100.04979732867234 6.216702999999999
  endloop
endfacet
facet normal 0.0 0.0 -1.0
  outer loop
    vertex 151.91676932147183 100.04979732867234 6.216702999999999
    vertex 151.91676932147183 104.50253075419066 6.216702999999999
    vertex 152.2365447796426 102.49997417822462 6.216702999999999
  endloop
endfacet
facet normal 0.0 0.0 -1.0
  outer loop
    vertex 152.2365447796426 102.49997417822462 6.216702999999999
    vertex 151.91676932147183 104.50253075419066 6.216702999999999
    vertex 152.30355372076974 103.00895761838046 6.216702999999999
  endloop
endfacet
facet normal 0.0 0.0 -1.0
  outer loop
    vertex 152.30355372076974 103.00895761838046 6.216702999999999
    vertex 151.91676932147183 104.50253075419066 6.216702999999999
    vertex 152.568857034231 105.00289525472023 6.216702999999999
  endloop
endfacet
facet normal 0.0 0.0 -1.0
  outer loop
    vertex 152.30355372076974 103.00895761838046 6.216702999999999
    vertex 152.568857034231 105.00289525472023 6.216702999999999
    vertex 152.5000139955509 103.48325467822464 6.216702999999999
  endloop
endfacet
facet normal 0.0 0.0 -1.0
  outer loop
    vertex 152.5000139955509 103.48325467822464 6.216702999999999
    vertex 152.568857034231 105.00289525472023 6.216702999999999
    vertex 152.81253716092561 103.89054279694163 6.216702999999999
  endloop
endfacet
facet normal 0.0 0.0 -1.0
  outer loop
    vertex 152.81253716092561 103.89054279694163 6.216702999999999
    vertex 152.568857034231 105.00289525472023 6.216702999999999
    vertex 153.3282292592211 105.31743752920055 6.216702999999999
  endloop
endfacet
facet normal 0.0 0.0 -1.0
  outer loop
    vertex 152.81253716092561 103.89054279694163 6.216702999999999
    vertex 153.3282292592211 105.31743752920055 6.216702999999999
    vertex 153.2198252796426 104.20306596231636 6.216702999999999
  endloop
endfacet
facet normal 0.0 0.0 -1.0
  outer loop
    vertex 153.2198252796426 104.20306596231636 6.216702999999999
    vertex 153.3282292592211 105.31743752920055 6.216702999999999
    vertex 153.69412233948677 104.39952623709748 6.216702999999999
  endloop
endfacet
facet normal 0.0 0.0 -1.0
  outer loop
    vertex 153.69412233948677 104.39952623709748 6.216702999999999
    vertex 153.3282292592211 105.31743752920055 6.216702999999999
    vertex 154.143136034231 105.4247220414315 6.216702999999999
  endloop
endfacet
facet normal 0.0 0.0 -1.0
  outer loop
    vertex 153.69412233948677 104.39952623709748 6.216702999999999
    vertex 154.143136034231 105.4247220414315 6.216702999999999
    vertex 154.2031057796426 104.46653517822463 6.216702999999999
  endloop
endfacet
facet normal 0.0 0.0 -1.0
  outer loop
    vertex 154.2031057796426 104.46653517822463 6.216702999999999
    vertex 154.143136034231 105.4247220414315 6.216702999999999
    vertex 154.95804280924088 105.31743752920055 6.216702999999999
  endloop
endfacet
facet normal 0.0 0.0 -1.0
  outer loop
    vertex 154.2031057796426 104.46653517822463 6.216702999999999
    vertex 154.95804280924088 105.31743752920055 6.216702999999999
    vertex 154.71208921979846 104.39952623709748 6.216702999999999
  endloop
endfacet
facet normal 0.0 0.0 -1.0
  outer loop
    vertex 154.71208921979846 104.39952623709748 6.216702999999999
    vertex 154.95804280924088 105.31743752920055 6.216702999999999
    vertex 155.18638627964262 104.20306596231636 6.216702999999999
  endloop
endfacet
facet normal 0.0 0.0 -1.0
  outer loop
    vertex 155.18638627964262 104.20306596231636 6.216702999999999
    vertex 154.95804280924088 105.31743752920055 6.216702999999999
    vertex 155.71741503423098 105.00289525472023 6.216702999999999
  endloop
endfacet
facet normal 0.0 0.0 -1.0
  outer loop
    vertex 155.18638627964262 104.20306596231636 6.216702999999999
    vertex 155.71741503423098 105.00289525472023 6.216702999999999
    vertex 155.5936743983596 103.89054279694163 6.216702999999999
  endloop
endfacet
facet normal 0.0 0.0 -1.0
  outer loop
    vertex 155.5936743983596 103.89054279694163 6.216702999999999
    vertex 155.71741503423098 105.00289525472023 6.216702999999999
    vertex 155.90619756373434 103.48325467822461 6.216702999999999
  endloop
endfacet
facet normal 0.0 0.0 -1.0
  outer loop
    vertex 155.90619756373434 103.48325467822461 6.216702999999999
    vertex 155.71741503423098 105.00289525472023 6.216702999999999
    vertex 156.36950274699015 104.50253075419066 6.216702999999999
  endloop
endfacet
facet normal 0.0 0.0 -1.0
  outer loop
    vertex 155.90619756373434 103.48325467822461 6.216702999999999
    vertex 156.36950274699015 104.50253075419066 6.216702999999999
    vertex 156.10265783851548 103.00895761838046 6.216702999999999
  endloop
endfacet
facet normal 0.0 0.0 -1.0
  outer loop
    vertex 156.10265783851548 103.00895761838046 6.216702999999999
    vertex 156.36950274699015 104.50253075419066 6.216702999999999
    vertex 156.16966677964263 102.49997417822462 6.216702999999999
  endloop
endfacet
facet normal 0.0 0.0 -1.0
  outer loop
    vertex 152.2365447796426 102.49997417822462 6.216702999999999
    vertex 152.568857034231 99.54943282814277 6.216702999999999
    vertex 151.91676932147183 100.04979732867234 6.216702999999999
  endloop
endfacet
facet normal 0.0 0.0 -1.0
  outer loop
    vertex 152.568857034231 99.54943282814277 6.216702999999999
    vertex 152.2365447796426 102.49997417822462 6.216702999999999
    vertex 152.30355372076974 101.99099073806876 6.216702999999999
  endloop
endfacet
facet normal 0.0 0.0 -1.0
  outer loop
    vertex 152.568857034231 99.54943282814277 6.216702999999999
    vertex 152.30355372076974 101.99099073806876 6.216702999999999
    vertex 152.5000139955509 101.51669367822461 6.216702999999999
  endloop
endfacet
facet normal 0.0 0.0 -1.0
  outer loop
    vertex 152.568857034231 99.54943282814277 6.216702999999999
    vertex 152.5000139955509 101.51669367822461 6.216702999999999
    vertex 152.81253716092561 101.10940555950761 6.216702999999999
  endloop
endfacet
facet normal 0.0 0.0 -1.0
  outer loop
    vertex 152.568857034231 99.54943282814277 6.216702999999999
    vertex 152.81253716092561 101.10940555950761 6.216702999999999
    vertex 153.3282292592211 99.23489055366244 6.216702999999999
  endloop
endfacet
facet normal 0.0 0.0 -1.0
  outer loop
    vertex 153.3282292592211 99.23489055366244 6.216702999999999
    vertex 152.81253716092561 101.10940555950761 6.216702999999999
    vertex 153.2198252796426 100.79688239413288 6.216702999999999
  endloop
endfacet
facet normal 0.0 0.0 -1.0
  outer loop
    vertex 153.3282292592211 99.23489055366244 6.216702999999999
    vertex 153.2198252796426 100.79688239413288 6.216702999999999
    vertex 153.69412233948677 100.60042211935176 6.216702999999999
  endloop
endfacet
facet normal 0.0 0.0 -1.0
  outer loop
    vertex 153.3282292592211 99.23489055366244 6.216702999999999
    vertex 153.69412233948677 100.60042211935176 6.216702999999999
    vertex 154.143136034231 99.12760604143149 6.216702999999999
  endloop
endfacet
facet normal 0.0 0.0 -1.0
  outer loop
    vertex 154.143136034231 99.12760604143149 6.216702999999999
    vertex 153.69412233948677 100.60042211935176 6.216702999999999
    vertex 154.2031057796426 100.5334131782246 6.216702999999999
  endloop
endfacet
facet normal 0.0 0.0 -1.0
  outer loop
    vertex 154.143136034231 99.12760604143149 6.216702999999999
    vertex 154.2031057796426 100.5334131782246 6.216702999999999
    vertex 154.9580428092409 99.23489055366245 6.216702999999999
  endloop
endfacet
facet normal 0.0 0.0 -1.0
  outer loop
    vertex 154.9580428092409 99.23489055366245 6.216702999999999
    vertex 154.2031057796426 100.5334131782246 6.216702999999999
    vertex 154.71208921979846 100.60042211935175 6.216702999999999
  endloop
endfacet
facet normal 0.0 0.0 -1.0
  outer loop
    vertex 154.9580428092409 99.23489055366245 6.216702999999999
    vertex 154.71208921979846 100.60042211935175 6.216702999999999
    vertex 155.1863862796426 100.79688239413288 6.216702999999999
  endloop
endfacet
facet normal 0.0 0.0 -1.0
  outer loop
    vertex 154.9580428092409 99.23489055366245 6.216702999999999
    vertex 155.1863862796426 100.79688239413288 6.216702999999999
    vertex 155.71741503423098 99.54943282814277 6.216702999999999
  endloop
endfacet
facet normal 0.0 0.0 -1.0
  outer loop
    vertex 155.71741503423098 99.54943282814277 6.216702999999999
    vertex 155.1863862796426 100.79688239413288 6.216702999999999
    vertex 155.5936743983596 101.10940555950761 6.216702999999999
  endloop
endfacet
facet normal 0.0 0.0 -1.0
  outer loop
    vertex 155.71741503423098 99.54943282814277 6.216702999999999
    vertex 155.5936743983596 101.10940555950761 6.216702999999999
    vertex 155.90619756373434 101.51669367822461 6.216702999999999
  endloop
endfacet
facet normal 0.0 0.0 -1.0
  outer loop
    vertex 155.71741503423098 99.54943282814277 6.216702999999999
    vertex 155.90619756373434 101.51669367822461 6.216702999999999
    vertex 156.36950274699015 100.04979732867234 6.216702999999999
  endloop
endfacet
facet normal 0.0 0.0 -1.0
  outer loop
    vertex 156.36950274699015 100.04979732867234 6.216702999999999
    vertex 155.90619756373434 101.51669367822461 6.216702999999999
    vertex 156.10265783851548 101.99099073806876 6.216702999999999
  endloop
endfacet
facet normal 0.0 0.0 -1.0
  outer loop
    vertex 156.36950274699015 100.04979732867234 6.216702999999999
    vertex 156.10265783851548 101.99099073806876 6.216702999999999
    vertex 156.16966677964263 102.49997417822462 6.216702999999999
  endloop
endfacet
facet normal 0.0 0.0 -1.0
  outer loop
    vertex 156.36950274699015 100.04979732867234 6.216702999999999
    vertex 156.16966677964263 102.49997417822462 6.216702999999999
    vertex 156.36950274699015 104.50253075419066 6.216702999999999
  endloop
endfacet
facet normal 0.0 0.0 -1.0
  outer loop
    vertex 156.36950274699015 100.04979732867234 6.216702999999999
    vertex 156.36950274699015 104.50253075419066 6.216702999999999
    vertex 156.86986724751972 103.85044304143149 6.216702999999999
  endloop
endfacet
facet normal 0.0 0.0 -1.0
  outer loop
    vertex 156.36950274699015 100.04979732867234 6.216702999999999
    vertex 156.86986724751972 103.85044304143149 6.216702999999999
    vertex 156.86986724751972 100.7018850414315 6.216702999999999
  endloop
endfacet
facet normal 0.0 0.0 -1.0
  outer loop
    vertex 156.86986724751972 100.7018850414315 6.216702999999999
    vertex 156.86986724751972 103.85044304143149 6.216702999999999
    vertex 157.18440952200004 103.09107081644142 6.216702999999999
  endloop
endfacet
facet normal 0.0 0.0 -1.0
  outer loop
    vertex 156.86986724751972 100.7018850414315 6.216702999999999
    vertex 157.18440952200004 103.09107081644142 6.216702999999999
    vertex 157.18440952200004 101.4612572664216 6.216702999999999
  endloop
endfacet
facet normal 0.0 0.0 -1.0
  outer loop
    vertex 157.18440952200004 101.4612572664216 6.216702999999999
    vertex 157.18440952200004 103.09107081644142 6.216702999999999
    vertex 157.291694034231 102.2761640414315 6.216702999999999
  endloop
endfacet
facet normal 0.608761429008717 -0.793353340291238 -5.757430405591924e-19
  outer loop
    vertex 152.568857034231 105.00289525472023 6.216702999999999
    vertex 151.91676932147183 104.50253075419066 5.0664869999999995
    vertex 152.568857034231 105.00289525472023 5.0664869999999995
  endloop
endfacet
facet normal 0.608761429008717 -0.793353340291238 -5.757430405591924e-19
  outer loop
    vertex 151.91676932147183 104.50253075419066 5.0664869999999995
    vertex 152.568857034231 105.00289525472023 6.216702999999999
    vertex 151.91676932147183 104.50253075419066 6.216702999999999
  endloop
endfacet
facet normal 0.382683432365076 -0.9238795325112924 2.5747955990685627e-19
  outer loop
    vertex 153.3282292592211 105.31743752920055 6.216702999999999
    vertex 152.568857034231 105.00289525472023 5.0664869999999995
    vertex 153.3282292592211 105.31743752920055 5.0664869999999995
  endloop
endfacet
facet normal 0.382683432365076 -0.9238795325112924 2.5747955990685627e-19
  outer loop
    vertex 152.568857034231 105.00289525472023 5.0664869999999995
    vertex 153.3282292592211 105.31743752920055 6.216702999999999
    vertex 152.568857034231 105.00289525472023 6.216702999999999
  endloop
endfacet
facet normal 0.13052619222006076 -0.9914448613738092 -6.907740067716376e-19
  outer loop
    vertex 154.143136034231 105.4247220414315 6.216702999999999
    vertex 153.3282292592211 105.31743752920055 5.0664869999999995
    vertex 154.143136034231 105.4247220414315 5.0664869999999995
  endloop
endfacet
facet normal 0.13052619222006076 -0.9914448613738092 -6.907740067716376e-19
  outer loop
    vertex 153.3282292592211 105.31743752920055 5.0664869999999995
    vertex 154.143136034231 105.4247220414315 6.216702999999999
    vertex 153.3282292592211 105.31743752920055 6.216702999999999
  endloop
endfacet
facet normal -0.13052619222006082 -0.9914448613738092 -7.054791984945524e-19
  outer loop
    vertex 154.95804280924088 105.31743752920055 6.216702999999999
    vertex 154.143136034231 105.4247220414315 5.0664869999999995
    vertex 154.95804280924088 105.31743752920055 5.0664869999999995
  endloop
endfacet
facet normal -0.13052619222006082 -0.9914448613738092 -7.054791984945524e-19
  outer loop
    vertex 154.143136034231 105.4247220414315 5.0664869999999995
    vertex 154.95804280924088 105.31743752920055 6.216702999999999
    vertex 154.143136034231 105.4247220414315 6.216702999999999
  endloop
endfacet
facet normal -0.38268343236507596 -0.9238795325112926 5.957326460706342e-19
  outer loop
    vertex 155.71741503423098 105.00289525472023 6.216702999999999
    vertex 154.95804280924088 105.31743752920055 5.0664869999999995
    vertex 155.71741503423098 105.00289525472023 5.0664869999999995
  endloop
endfacet
facet normal -0.38268343236507596 -0.9238795325112926 5.957326460706342e-19
  outer loop
    vertex 154.95804280924088 105.31743752920055 5.0664869999999995
    vertex 155.71741503423098 105.00289525472023 6.216702999999999
    vertex 154.95804280924088 105.31743752920055 6.216702999999999
  endloop
endfacet
facet normal -0.608761429008717 -0.793353340291238 5.757430405591924e-19
  outer loop
    vertex 156.36950274699015 104.50253075419066 6.216702999999999
    vertex 155.71741503423098 105.00289525472023 5.0664869999999995
    vertex 156.36950274699015 104.50253075419066 5.0664869999999995
  endloop
endfacet
facet normal -0.608761429008717 -0.793353340291238 5.757430405591924e-19
  outer loop
    vertex 155.71741503423098 105.00289525472023 5.0664869999999995
    vertex 156.36950274699015 104.50253075419066 6.216702999999999
    vertex 155.71741503423098 105.00289525472023 6.216702999999999
  endloop
endfacet
facet normal -0.793353340291238 -0.608761429008717 -2.3642688663840257e-19
  outer loop
    vertex 156.36950274699015 104.50253075419066 6.216702999999999
    vertex 156.86986724751972 103.85044304143149 5.0664869999999995
    vertex 156.86986724751972 103.85044304143149 6.216702999999999
  endloop
endfacet
facet normal -0.793353340291238 -0.608761429008717 -2.3642688663840257e-19
  outer loop
    vertex 156.86986724751972 103.85044304143149 5.0664869999999995
    vertex 156.36950274699015 104.50253075419066 6.216702999999999
    vertex 156.36950274699015 104.50253075419066 5.0664869999999995
  endloop
endfacet
facet normal -0.9238795325112884 -0.38268343236508573 -2.2213835317720716e-18
  outer loop
    vertex 156.86986724751972 103.85044304143149 6.216702999999999
    vertex 157.18440952200004 103.09107081644142 5.0664869999999995
    vertex 157.18440952200004 103.09107081644142 6.216702999999999
  endloop
endfacet
facet normal -0.9238795325112884 -0.38268343236508573 -2.2213835317720716e-18
  outer loop
    vertex 157.18440952200004 103.09107081644142 5.0664869999999995
    vertex 156.86986724751972 103.85044304143149 6.216702999999999
    vertex 156.86986724751972 103.85044304143149 5.0664869999999995
  endloop
endfacet
facet normal -0.9914448613738096 -0.1305261922200573 1.2344960963196244e-19
  outer loop
    vertex 157.18440952200004 103.09107081644142 6.216702999999999
    vertex 157.291694034231 102.2761640414315 5.0664869999999995
    vertex 157.291694034231 102.2761640414315 6.216702999999999
  endloop
endfacet
facet normal -0.9914448613738096 -0.1305261922200573 1.2344960963196244e-19
  outer loop
    vertex 157.291694034231 102.2761640414315 5.0664869999999995
    vertex 157.18440952200004 103.09107081644142 6.216702999999999
    vertex 157.18440952200004 103.09107081644142 5.0664869999999995
  endloop
endfacet
facet normal -0.9914448613738094 0.13052619222005907 9.817888012027012e-19
  outer loop
    vertex 157.291694034231 102.2761640414315 6.216702999999999
    vertex 157.18440952200004 101.4612572664216 5.0664869999999995
    vertex 157.18440952200004 101.4612572664216 6.216702999999999
  endloop
endfacet
facet normal -0.9914448613738094 0.13052619222005907 9.817888012027012e-19
  outer loop
    vertex 157.18440952200004 101.4612572664216 5.0664869999999995
    vertex 157.291694034231 102.2761640414315 6.216702999999999
    vertex 157.291694034231 102.2761640414315 5.0664869999999995
  endloop
endfacet
facet normal -0.9238795325112905 0.3826834323650809 -2.574795599083252e-19
  outer loop
    vertex 157.18440952200004 101.4612572664216 6.216702999999999
    vertex 156.86986724751972 100.7018850414315 5.0664869999999995
    vertex 156.86986724751972 100.7018850414315 6.216702999999999
  endloop
endfacet
facet normal -0.9238795325112905 0.3826834323650809 -2.574795599083252e-19
  outer loop
    vertex 156.86986724751972 100.7018850414315 5.0664869999999995
    vertex 157.18440952200004 101.4612572664216 6.216702999999999
    vertex 157.18440952200004 101.4612572664216 5.0664869999999995
  endloop
endfacet
facet normal -0.793353340291238 0.608761429008717 2.3642688663699506e-19
  outer loop
    vertex 156.86986724751972 100.7018850414315 6.216702999999999
    vertex 156.36950274699015 100.04979732867234 5.0664869999999995
    vertex 156.36950274699015 100.04979732867234 6.216702999999999
  endloop
endfacet
facet normal -0.793353340291238 0.608761429008717 2.3642688663699506e-19
  outer loop
    vertex 156.36950274699015 100.04979732867234 5.0664869999999995
    vertex 156.86986724751972 100.7018850414315 6.216702999999999
    vertex 156.86986724751972 100.7018850414315 5.0664869999999995
  endloop
endfacet
facet normal -0.608761429008717 0.793353340291238 -2.3642688663840257e-19
  outer loop
    vertex 155.71741503423098 99.54943282814277 6.216702999999999
    vertex 156.36950274699015 100.04979732867234 5.0664869999999995
    vertex 155.71741503423098 99.54943282814277 5.0664869999999995
  endloop
endfacet
facet normal -0.608761429008717 0.793353340291238 -2.3642688663840257e-19
  outer loop
    vertex 156.36950274699015 100.04979732867234 5.0664869999999995
    vertex 155.71741503423098 99.54943282814277 6.216702999999999
    vertex 156.36950274699015 100.04979732867234 6.216702999999999
  endloop
endfacet
facet normal -0.38268343236508573 0.9238795325112884 -1.4489448520498666e-18
  outer loop
    vertex 154.9580428092409 99.23489055366245 6.216702999999999
    vertex 155.71741503423098 99.54943282814277 5.0664869999999995
    vertex 154.9580428092409 99.23489055366245 5.0664869999999995
  endloop
endfacet
facet normal -0.38268343236508573 0.9238795325112884 -1.4489448520498666e-18
  outer loop
    vertex 155.71741503423098 99.54943282814277 5.0664869999999995
    vertex 154.9580428092409 99.23489055366245 6.216702999999999
    vertex 155.71741503423098 99.54943282814277 6.216702999999999
  endloop
endfacet
facet normal -0.1305261922200573 0.9914448613738096 9.96493992925778e-19
  outer loop
    vertex 154.143136034231 99.12760604143149 6.216702999999999
    vertex 154.9580428092409 99.23489055366245 5.0664869999999995
    vertex 154.143136034231 99.12760604143149 5.0664869999999995
  endloop
endfacet
facet normal -0.1305261922200573 0.9914448613738096 9.96493992925778e-19
  outer loop
    vertex 154.9580428092409 99.23489055366245 5.0664869999999995
    vertex 154.143136034231 99.12760604143149 6.216702999999999
    vertex 154.9580428092409 99.23489055366245 6.216702999999999
  endloop
endfacet
facet normal 0.13052619222004733 0.9914448613738109 1.381548013547769e-19
  outer loop
    vertex 153.3282292592211 99.23489055366244 6.216702999999999
    vertex 154.143136034231 99.12760604143149 5.0664869999999995
    vertex 153.3282292592211 99.23489055366244 5.0664869999999995
  endloop
endfacet
facet normal 0.13052619222004733 0.9914448613738109 1.381548013547769e-19
  outer loop
    vertex 154.143136034231 99.12760604143149 5.0664869999999995
    vertex 153.3282292592211 99.23489055366244 6.216702999999999
    vertex 154.143136034231 99.12760604143149 6.216702999999999
  endloop
endfacet
facet normal 0.3826834323650877 0.9238795325112876 -2.5747955990726476e-19
  outer loop
    vertex 152.568857034231 99.54943282814277 6.216702999999999
    vertex 153.3282292592211 99.23489055366244 5.0664869999999995
    vertex 152.568857034231 99.54943282814277 5.0664869999999995
  endloop
endfacet
facet normal 0.3826834323650877 0.9238795325112876 -2.5747955990726476e-19
  outer loop
    vertex 153.3282292592211 99.23489055366244 5.0664869999999995
    vertex 152.568857034231 99.54943282814277 6.216702999999999
    vertex 153.3282292592211 99.23489055366244 6.216702999999999
  endloop
endfacet
facet normal 0.608761429008717 0.793353340291238 2.3642688663840257e-19
  outer loop
    vertex 151.91676932147183 100.04979732867234 6.216702999999999
    vertex 152.568857034231 99.54943282814277 5.0664869999999995
    vertex 151.91676932147183 100.04979732867234 5.0664869999999995
  endloop
endfacet
facet normal 0.608761429008717 0.793353340291238 2.3642688663840257e-19
  outer loop
    vertex 152.568857034231 99.54943282814277 5.0664869999999995
    vertex 151.91676932147183 100.04979732867234 6.216702999999999
    vertex 152.568857034231 99.54943282814277 6.216702999999999
  endloop
endfacet
facet normal 0.793353340291238 0.608761429008717 -5.757430405577848e-19
  outer loop
    vertex 151.41640482094226 100.7018850414315 5.0664869999999995
    vertex 151.91676932147183 100.04979732867234 6.216702999999999
    vertex 151.91676932147183 100.04979732867234 5.0664869999999995
  endloop
endfacet
facet normal 0.793353340291238 0.608761429008717 -5.757430405577848e-19
  outer loop
    vertex 151.91676932147183 100.04979732867234 6.216702999999999
    vertex 151.41640482094226 100.7018850414315 5.0664869999999995
    vertex 151.41640482094226 100.7018850414315 6.216702999999999
  endloop
endfacet
facet normal 0.9238795325112905 0.3826834323650809 -1.6912654308206468e-19
  outer loop
    vertex 151.10186254646194 101.4612572664216 5.0664869999999995
    vertex 151.41640482094226 100.7018850414315 6.216702999999999
    vertex 151.41640482094226 100.7018850414315 5.0664869999999995
  endloop
endfacet
facet normal 0.9238795325112905 0.3826834323650809 -1.6912654308206468e-19
  outer loop
    vertex 151.41640482094226 100.7018850414315 6.216702999999999
    vertex 151.10186254646194 101.4612572664216 5.0664869999999995
    vertex 151.10186254646194 101.4612572664216 6.216702999999999
  endloop
endfacet
facet normal 0.9914448613738094 0.13052619222005907 2.689570068474611e-19
  outer loop
    vertex 150.99457803423098 102.2761640414315 5.0664869999999995
    vertex 151.10186254646194 101.4612572664216 6.216702999999999
    vertex 151.10186254646194 101.4612572664216 5.0664869999999995
  endloop
endfacet
facet normal 0.9914448613738094 0.13052619222005907 2.689570068474611e-19
  outer loop
    vertex 151.10186254646194 101.4612572664216 6.216702999999999
    vertex 150.99457803423098 102.2761640414315 5.0664869999999995
    vertex 150.99457803423098 102.2761640414315 6.216702999999999
  endloop
endfacet
facet normal 0.9914448613738092 -0.13052619222006082 3.9975921234004904e-19
  outer loop
    vertex 151.10186254646194 103.09107081644139 5.0664869999999995
    vertex 150.99457803423098 102.2761640414315 6.216702999999999
    vertex 150.99457803423098 102.2761640414315 5.0664869999999995
  endloop
endfacet
facet normal 0.9914448613738092 -0.13052619222006082 3.9975921234004904e-19
  outer loop
    vertex 150.99457803423098 102.2761640414315 6.216702999999999
    vertex 151.10186254646194 103.09107081644139 5.0664869999999995
    vertex 151.10186254646194 103.09107081644139 6.216702999999999
  endloop
endfacet
facet normal 0.9238795325112926 -0.38268343236507596 5.957326460706342e-19
  outer loop
    vertex 151.41640482094226 103.85044304143149 5.0664869999999995
    vertex 151.10186254646194 103.09107081644139 6.216702999999999
    vertex 151.10186254646194 103.09107081644139 5.0664869999999995
  endloop
endfacet
facet normal 0.9238795325112926 -0.38268343236507596 5.957326460706342e-19
  outer loop
    vertex 151.10186254646194 103.09107081644139 6.216702999999999
    vertex 151.41640482094226 103.85044304143149 5.0664869999999995
    vertex 151.41640482094226 103.85044304143149 6.216702999999999
  endloop
endfacet
facet normal 0.793353340291238 -0.608761429008717 5.757430405591924e-19
  outer loop
    vertex 151.91676932147183 104.50253075419066 5.0664869999999995
    vertex 151.41640482094226 103.85044304143149 6.216702999999999
    vertex 151.41640482094226 103.85044304143149 5.0664869999999995
  endloop
endfacet
facet normal 0.793353340291238 -0.608761429008717 5.757430405591924e-19
  outer loop
    vertex 151.41640482094226 103.85044304143149 6.216702999999999
    vertex 151.91676932147183 104.50253075419066 5.0664869999999995
    vertex 151.91676932147183 104.50253075419066 6.216702999999999
  endloop
endfacet
endsolid flex_attachment_v2
