solid LED_Fan_Enclosure_large_lipo
facet normal 0.0 0.0 -1.0
  outer loop
    vertex 101.84130413288099 57.040434387304245 -1.6919798895287383e-14
    vertex 87.84030468219741 57.040434387304245 -1.6919798895287383e-14
    vertex 87.84030468219741 99.04243328867143 -1.6919798895287383e-14
  endloop
endfacet
facet normal 0.0 0.0 -1.0
  outer loop
    vertex 101.84130413288099 57.040434387304245 -1.6919798895287383e-14
    vertex 87.84030468219741 99.04243328867143 -1.6919798895287383e-14
    vertex 101.84130413288099 99.04243328867143 -1.6919798895287383e-14
  endloop
endfacet
facet normal 0.0 -1.0 0.0
  outer loop
    vertex 87.84030468219741 57.040434387304245 37.59276797901914
    vertex 87.84030468219741 57.040434387304245 -1.6919798895287383e-14
    vertex 99.29830486530288 57.040434387304245 37.59276797901914
  endloop
endfacet
facet normal 0.0 -1.0 0.0
  outer loop
    vertex 99.29830486530288 57.040434387304245 40.598767782562234
    vertex 99.29830486530288 57.040434387304245 37.59276797901914
    vertex 101.84130413288099 57.040434387304245 -1.6919798895287383e-14
  endloop
endfacet
facet normal 0.0 -1.0 0.0
  outer loop
    vertex 101.84130413288099 57.040434387304245 70.09676745068359
    vertex 99.29830486530288 57.040434387304245 40.598767782562234
    vertex 101.84130413288099 57.040434387304245 -1.6919798895287383e-14
  endloop
endfacet
facet normal 0.0 -1.0 0.0
  outer loop
    vertex 99.29830486530288 57.040434387304245 37.59276797901914
    vertex 87.84030468219741 57.040434387304245 -1.6919798895287383e-14
    vertex 101.84130413288099 57.040434387304245 -1.6919798895287383e-14
  endloop
endfacet
facet normal -1.0 0.0 0.0
  outer loop
    vertex 87.84030468219741 59.038433578588425 1.9969999790191477
    vertex 87.84030468219741 57.040434387304245 37.59276797901914
    vertex 87.84030468219741 59.038433578588425 37.59276797901914
  endloop
endfacet
facet normal -1.0 0.0 0.0
  outer loop
    vertex 87.84030468219741 59.038433578588425 1.9969999790191477
    vertex 87.84030468219741 57.040434387304245 -1.6919798895287383e-14
    vertex 87.84030468219741 57.040434387304245 37.59276797901914
  endloop
endfacet
facet normal -1.0 0.0 0.0
  outer loop
    vertex 87.84030468219741 99.04243328867143 -1.6919798895287383e-14
    vertex 87.84030468219741 59.038433578588425 1.9969999790191477
    vertex 87.84030468219741 97.54443409738725 1.9969999790191477
  endloop
endfacet
facet normal 0.0 1.0 0.0
  outer loop
    vertex 99.29830486530288 59.038433578588425 37.59276797901914
    vertex 99.29830486530288 59.038433578588425 1.9969999790191477
    vertex 87.84030468219741 59.038433578588425 37.59276797901914
  endloop
endfacet
facet normal 0.0 1.0 0.0
  outer loop
    vertex 87.84030468219741 59.038433578588425 37.59276797901914
    vertex 99.29830486530288 59.038433578588425 1.9969999790191477
    vertex 87.84030468219741 59.038433578588425 1.9969999790191477
  endloop
endfacet
facet normal 0.0 0.0 1.0
  outer loop
    vertex 99.29830486530288 59.038433578588425 37.59276797901914
    vertex 87.84030468219741 59.038433578588425 37.59276797901914
    vertex 99.29830486530288 57.040434387304245 37.59276797901914
  endloop
endfacet
facet normal 0.0 0.0 1.0
  outer loop
    vertex 99.29830486530288 57.040434387304245 37.59276797901914
    vertex 87.84030468219741 59.038433578588425 37.59276797901914
    vertex 87.84030468219741 57.040434387304245 37.59276797901914
  endloop
endfacet
facet normal 0.0 0.0 -1.0
  outer loop
    vertex 99.29830486530288 57.040434387304245 40.598767782562234
    vertex 87.84030468219741 57.040434387304245 40.598767782562234
    vertex 99.29830486530288 59.038433578588425 40.598767782562234
  endloop
endfacet
facet normal 0.0 0.0 -1.0
  outer loop
    vertex 99.29830486530288 59.038433578588425 40.598767782562234
    vertex 87.84030468219741 57.040434387304245 40.598767782562234
    vertex 87.84030468219741 59.038433578588425 40.598767782562234
  endloop
endfacet
facet normal -1.0 6.139834661152568e-17 -8.485953843591414e-17
  outer loop
    vertex 99.29830486530288 97.54443409738725 1.9969999790191477
    vertex 99.29830486530288 59.038433578588425 40.598767782562234
    vertex 99.29830486530288 97.04243328867142 68.09576799999998
  endloop
endfacet
facet normal -1.0 0.0 0.0
  outer loop
    vertex 99.29830486530288 97.04243328867142 68.09576799999998
    vertex 99.29830486530288 59.038433578588425 40.598767782562234
    vertex 99.29830486530288 59.04043438730424 68.09576799999998
  endloop
endfacet
facet normal -1.0 1.4646893702560406e-16 0.0
  outer loop
    vertex 99.29830486530288 97.54443409738725 1.9969999790191477
    vertex 99.29830486530288 59.038433578588425 37.59276797901914
    vertex 99.29830486530288 59.038433578588425 40.598767782562234
  endloop
endfacet
facet normal -1.0 0.0 -1.5844391853255695e-16
  outer loop
    vertex 99.29830486530288 97.54443409738725 1.9969999790191477
    vertex 99.29830486530288 59.038433578588425 1.9969999790191477
    vertex 99.29830486530288 59.038433578588425 37.59276797901914
  endloop
endfacet
facet normal -1.0 0.0 0.0
  outer loop
    vertex 99.29830486530288 59.038433578588425 37.59276797901914
    vertex 99.29830486530288 57.040434387304245 40.598767782562234
    vertex 99.29830486530288 59.038433578588425 40.598767782562234
  endloop
endfacet
facet normal -1.0 0.0 0.0
  outer loop
    vertex 99.29830486530288 59.038433578588425 37.59276797901914
    vertex 99.29830486530288 57.040434387304245 37.59276797901914
    vertex 99.29830486530288 57.040434387304245 40.598767782562234
  endloop
endfacet
facet normal 0.0 0.0 1.0
  outer loop
    vertex 99.29830486530288 97.54443409738725 1.9969999790191477
    vertex 87.84030468219741 59.038433578588425 1.9969999790191477
    vertex 99.29830486530288 59.038433578588425 1.9969999790191477
  endloop
endfacet
facet normal 0.0 0.0 1.0
  outer loop
    vertex 99.29830486530288 97.54443409738725 1.9969999790191477
    vertex 87.84030468219741 97.54443409738725 1.9969999790191477
    vertex 87.84030468219741 59.038433578588425 1.9969999790191477
  endloop
endfacet
facet normal 0.0 0.0 -1.0
  outer loop
    vertex 99.29830486530288 97.04243328867142 68.09576799999998
    vertex 96.74930507892593 59.04043438730424 68.09576799999998
    vertex 96.74930507892593 97.04243328867142 68.09576799999998
  endloop
endfacet
facet normal 0.0 0.0 -1.0
  outer loop
    vertex 99.29830486530288 97.04243328867142 68.09576799999998
    vertex 97.24678393160116 59.039433982946335 68.09576799999998
    vertex 96.74930507892593 59.04043438730424 68.09576799999998
  endloop
endfacet
facet normal 0.0 0.0 -1.0
  outer loop
    vertex 97.24678393160116 59.039433982946335 68.09576799999998
    vertex 99.29830486530288 97.04243328867142 68.09576799999998
    vertex 99.29830486530288 59.04043438730424 68.09576799999998
  endloop
endfacet
facet normal 0.0 -1.0 0.0
  outer loop
    vertex 101.84130413288099 57.040434387304245 70.09676745068359
    vertex 87.84030468219741 57.040434387304245 40.598767782562234
    vertex 99.29830486530288 57.040434387304245 40.598767782562234
  endloop
endfacet
facet normal -1.0 0.0 0.0
  outer loop
    vertex 99.29830486530288 97.04243328867142 70.09676745068359
    vertex 99.29830486530288 59.04043438730424 70.09676745068359
    vertex 99.29830486530288 59.038433578588425 74.09276964794918
  endloop
endfacet
facet normal 0.0 0.0 1.0
  outer loop
    vertex 99.29830486530288 97.04243328867142 70.09676745068359
    vertex 96.74930507892593 97.04243328867142 70.09676745068359
    vertex 96.74930507892593 59.04043438730424 70.09676745068359
  endloop
endfacet
facet normal -0.0 -0.0 1.0
  outer loop
    vertex 97.93130804921698 59.039433982946335 70.09676745068359
    vertex 99.29830486530288 97.04243328867142 70.09676745068359
    vertex 96.74930507892593 59.04043438730424 70.09676745068359
  endloop
endfacet
facet normal -0.0 -0.0 1.0
  outer loop
    vertex 99.29830486530288 97.04243328867142 70.09676745068359
    vertex 97.93130804921698 59.039433982946335 70.09676745068359
    vertex 99.29830486530288 59.04043438730424 70.09676745068359
  endloop
endfacet
facet normal 1.0 3.038401360516519e-17 -6.225313688113537e-17
  outer loop
    vertex 101.84130413288099 99.04243328867143 90.59676745068357
    vertex 101.84130413288099 57.040434387304245 70.09676745068359
    vertex 101.84130413288099 99.04243328867143 -1.6919798895287383e-14
  endloop
endfacet
facet normal 1.0 -1.420465427372232e-32 -8.045924470145868e-17
  outer loop
    vertex 101.84130413288099 99.04243328867143 -1.6919798895287383e-14
    vertex 101.84130413288099 57.040434387304245 70.09676745068359
    vertex 101.84130413288099 57.040434387304245 -1.6919798895287383e-14
  endloop
endfacet
facet normal 0.0011847584915034943 0.9999992897043484 -0.00013014651693881476
  outer loop
    vertex 96.74930507892593 59.04043438730424 70.09676745068359
    vertex 97.24678393160116 59.039433982946335 68.09576799999998
    vertex 96.74930507892593 59.04043438730424 68.09576799999998
  endloop
endfacet
facet normal 0.0011847584915034943 0.9999992897043484 -0.00013014651693881476
  outer loop
    vertex 97.24678393160116 59.039433982946335 68.09576799999998
    vertex 96.74930507892593 59.04043438730424 70.09676745068359
    vertex 97.68108273334452 59.039433982946335 69.36530933734223
  endloop
endfacet
facet normal 0.0001475484830253727 -0.9999999886777061 -2.9564045712734423e-05
  outer loop
    vertex 99.29830486530288 59.04043438730424 70.09676745068359
    vertex 97.68108273334452 59.039433982946335 69.36530933734223
    vertex 99.29830486530288 59.04043438730424 68.09576799999998
  endloop
endfacet
facet normal 0.0001475484830253727 -0.9999999886777061 -2.9564045712734423e-05
  outer loop
    vertex 97.68108273334452 59.039433982946335 69.36530933734223
    vertex 99.29830486530288 59.04043438730424 70.09676745068359
    vertex 97.93130804921698 59.039433982946335 70.09676745068359
  endloop
endfacet
facet normal -1.0 0.0 0.0
  outer loop
    vertex 87.84030468219741 99.04243328867143 -1.6919798895287383e-14
    vertex 87.84030468219741 97.54443409738725 1.9969999790191477
    vertex 87.84030468219741 97.54443409738725 88.59876635205076
  endloop
endfacet
facet normal 0.0 0.0 1.0
  outer loop
    vertex 99.29830486530288 81.03843383796175 90.59676745068357
    vertex 87.84030468219741 81.03843383796175 90.59676745068357
    vertex 87.84030468219741 57.040434387304245 90.59676745068357
  endloop
endfacet
facet normal 0.0 0.0 1.0
  outer loop
    vertex 99.29830486530288 84.04443385896867 90.59676745068357
    vertex 87.84030468219741 99.04243328867143 90.59676745068357
    vertex 87.84030468219741 84.04443385896867 90.59676745068357
  endloop
endfacet
facet normal 0.0 0.0 1.0
  outer loop
    vertex 101.84130413288099 99.04243328867143 90.59676745068357
    vertex 87.84030468219741 99.04243328867143 90.59676745068357
    vertex 99.29830486530288 84.04443385896867 90.59676745068357
  endloop
endfacet
facet normal 0.0 0.0 1.0
  outer loop
    vertex 101.84130413288099 99.04243328867143 90.59676745068357
    vertex 99.29830486530288 84.04443385896867 90.59676745068357
    vertex 99.29830486530288 81.03843383796175 90.59676745068357
  endloop
endfacet
facet normal 0.0 0.0 1.0
  outer loop
    vertex 101.84130413288099 57.040434387304245 90.59676745068357
    vertex 99.29830486530288 81.03843383796175 90.59676745068357
    vertex 87.84030468219741 57.040434387304245 90.59676745068357
  endloop
endfacet
facet normal 0.0 0.0 1.0
  outer loop
    vertex 101.84130413288099 99.04243328867143 90.59676745068357
    vertex 99.29830486530288 81.03843383796175 90.59676745068357
    vertex 101.84130413288099 57.040434387304245 90.59676745068357
  endloop
endfacet
facet normal 0.0 -1.0 0.0
  outer loop
    vertex 87.84030468219741 57.040434387304245 90.59676745068357
    vertex 99.29830486530288 57.040434387304245 85.59876635205077
    vertex 101.84130413288099 57.040434387304245 90.59676745068357
  endloop
endfacet
facet normal 0.0 -1.0 0.0
  outer loop
    vertex 87.84030468219741 57.040434387304245 90.59676745068357
    vertex 87.84030468219741 57.040434387304245 85.59876635205077
    vertex 99.29830486530288 57.040434387304245 85.59876635205077
  endloop
endfacet
facet normal -1.0 0.0 0.0
  outer loop
    vertex 87.84030468219741 59.038433578588425 85.59876635205077
    vertex 87.84030468219741 57.040434387304245 85.59876635205077
    vertex 87.84030468219741 59.038433578588425 88.59876635205076
  endloop
endfacet
facet normal -1.0 0.0 0.0
  outer loop
    vertex 87.84030468219741 81.03843383796175 88.59876635205076
    vertex 87.84030468219741 59.038433578588425 88.59876635205076
    vertex 87.84030468219741 81.03843383796175 90.59676745068357
  endloop
endfacet
facet normal -1.0 0.0 0.0
  outer loop
    vertex 87.84030468219741 59.038433578588425 88.59876635205076
    vertex 87.84030468219741 57.040434387304245 85.59876635205077
    vertex 87.84030468219741 57.040434387304245 90.59676745068357
  endloop
endfacet
facet normal -1.0 0.0 0.0
  outer loop
    vertex 87.84030468219741 81.03843383796175 90.59676745068357
    vertex 87.84030468219741 59.038433578588425 88.59876635205076
    vertex 87.84030468219741 57.040434387304245 90.59676745068357
  endloop
endfacet
facet normal -1.0 0.0 0.0
  outer loop
    vertex 87.84030468219741 97.54443409738725 88.59876635205076
    vertex 87.84030468219741 84.04443385896867 88.59876635205076
    vertex 87.84030468219741 84.04443385896867 90.59676745068357
  endloop
endfacet
facet normal -1.0 0.0 0.0
  outer loop
    vertex 87.84030468219741 99.04243328867143 90.59676745068357
    vertex 87.84030468219741 97.54443409738725 88.59876635205076
    vertex 87.84030468219741 84.04443385896867 90.59676745068357
  endloop
endfacet
facet normal 0.0 1.0 0.0
  outer loop
    vertex 99.29830486530288 59.038433578588425 88.59876635205076
    vertex 99.29830486530288 59.038433578588425 85.59876635205077
    vertex 87.84030468219741 59.038433578588425 88.59876635205076
  endloop
endfacet
facet normal 0.0 1.0 0.0
  outer loop
    vertex 87.84030468219741 59.038433578588425 88.59876635205076
    vertex 99.29830486530288 59.038433578588425 85.59876635205077
    vertex 87.84030468219741 59.038433578588425 85.59876635205077
  endloop
endfacet
facet normal 0.0 0.0 -1.0
  outer loop
    vertex 99.29830486530288 57.040434387304245 85.59876635205077
    vertex 87.84030468219741 57.040434387304245 85.59876635205077
    vertex 99.29830486530288 59.038433578588425 85.59876635205077
  endloop
endfacet
facet normal 0.0 0.0 -1.0
  outer loop
    vertex 99.29830486530288 59.038433578588425 85.59876635205077
    vertex 87.84030468219741 57.040434387304245 85.59876635205077
    vertex 87.84030468219741 59.038433578588425 85.59876635205077
  endloop
endfacet
facet normal -1.0 0.0 0.0
  outer loop
    vertex 99.29830486530288 81.03843383796175 88.59876635205076
    vertex 99.29830486530288 59.038433578588425 85.59876635205077
    vertex 99.29830486530288 59.038433578588425 88.59876635205076
  endloop
endfacet
facet normal -1.0 0.0 0.0
  outer loop
    vertex 99.29830486530288 81.03843383796175 88.59876635205076
    vertex 99.29830486530288 59.038433578588425 74.09276964794918
    vertex 99.29830486530288 59.038433578588425 85.59876635205077
  endloop
endfacet
facet normal -1.0 0.0 0.0
  outer loop
    vertex 99.29830486530288 97.54443409738725 88.59876635205076
    vertex 99.29830486530288 97.04243328867142 70.09676745068359
    vertex 99.29830486530288 84.04443385896867 88.59876635205076
  endloop
endfacet
facet normal -1.0 0.0 0.0
  outer loop
    vertex 99.29830486530288 59.038433578588425 74.09276964794918
    vertex 99.29830486530288 57.040434387304245 85.59876635205077
    vertex 99.29830486530288 59.038433578588425 85.59876635205077
  endloop
endfacet
facet normal 0.0 0.0 -1.0
  outer loop
    vertex 99.29830486530288 59.038433578588425 88.59876635205076
    vertex 87.84030468219741 81.03843383796175 88.59876635205076
    vertex 99.29830486530288 81.03843383796175 88.59876635205076
  endloop
endfacet
facet normal 0.0 0.0 -1.0
  outer loop
    vertex 99.29830486530288 59.038433578588425 88.59876635205076
    vertex 87.84030468219741 59.038433578588425 88.59876635205076
    vertex 87.84030468219741 81.03843383796175 88.59876635205076
  endloop
endfacet
facet normal 0.0 0.0 -1.0
  outer loop
    vertex 99.29830486530288 84.04443385896867 88.59876635205076
    vertex 87.84030468219741 97.54443409738725 88.59876635205076
    vertex 99.29830486530288 97.54443409738725 88.59876635205076
  endloop
endfacet
facet normal 0.0 0.0 -1.0
  outer loop
    vertex 99.29830486530288 84.04443385896867 88.59876635205076
    vertex 87.84030468219741 84.04443385896867 88.59876635205076
    vertex 87.84030468219741 97.54443409738725 88.59876635205076
  endloop
endfacet
facet normal 0.0 1.0 0.0
  outer loop
    vertex 99.29830486530288 81.03843383796175 90.59676745068357
    vertex 99.29830486530288 81.03843383796175 88.59876635205076
    vertex 87.84030468219741 81.03843383796175 88.59876635205076
  endloop
endfacet
facet normal 0.0 1.0 0.0
  outer loop
    vertex 99.29830486530288 81.03843383796175 90.59676745068357
    vertex 87.84030468219741 81.03843383796175 88.59876635205076
    vertex 87.84030468219741 81.03843383796175 90.59676745068357
  endloop
endfacet
facet normal 0.0 -1.0 0.0
  outer loop
    vertex 87.84030468219741 84.04443385896867 90.59676745068357
    vertex 99.29830486530288 84.04443385896867 88.59876635205076
    vertex 99.29830486530288 84.04443385896867 90.59676745068357
  endloop
endfacet
facet normal 0.0 -1.0 0.0
  outer loop
    vertex 87.84030468219741 84.04443385896867 90.59676745068357
    vertex 87.84030468219741 84.04443385896867 88.59876635205076
    vertex 99.29830486530288 84.04443385896867 88.59876635205076
  endloop
endfacet
facet normal -1.0 0.0 0.0
  outer loop
    vertex 99.29830486530288 84.04443385896867 90.59676745068357
    vertex 99.29830486530288 81.03843383796175 88.59876635205076
    vertex 99.29830486530288 81.03843383796175 90.59676745068357
  endloop
endfacet
facet normal -1.0 0.0 0.0
  outer loop
    vertex 99.29830486530288 84.04443385896867 88.59876635205076
    vertex 99.29830486530288 81.03843383796175 88.59876635205076
    vertex 99.29830486530288 84.04443385896867 90.59676745068357
  endloop
endfacet
facet normal 0.0 -1.0 0.0
  outer loop
    vertex 99.29830486530288 97.54443409738725 88.59876635205076
    vertex 87.84030468219741 97.54443409738725 1.9969999790191477
    vertex 99.29830486530288 97.54443409738725 1.9969999790191477
  endloop
endfacet
facet normal -1.0 0.0 0.0
  outer loop
    vertex 96.74930507892593 97.04243328867142 68.09576799999998
    vertex 96.74930507892593 59.04043438730424 68.09576799999998
    vertex 96.74930507892593 97.04243328867142 70.09676745068359
  endloop
endfacet
facet normal -1.0 0.0 0.0
  outer loop
    vertex 96.74930507892593 97.04243328867142 70.09676745068359
    vertex 96.74930507892593 59.04043438730424 68.09576799999998
    vertex 96.74930507892593 59.04043438730424 70.09676745068359
  endloop
endfacet
facet normal 0.0 -1.0 0.0
  outer loop
    vertex 87.84030468219741 97.54443409738725 88.59876635205076
    vertex 87.84030468219741 97.54443409738725 1.9969999790191477
    vertex 99.29830486530288 97.54443409738725 88.59876635205076
  endloop
endfacet
facet normal -1.0 0.0 0.0
  outer loop
    vertex 99.29830486530288 97.54443409738725 88.59876635205076
    vertex 99.29830486530288 97.04243328867142 68.09576799999998
    vertex 99.29830486530288 97.04243328867142 70.09676745068359
  endloop
endfacet
facet normal -1.0 2.6598684119263197e-15 -6.512491836254403e-17
  outer loop
    vertex 99.29830486530288 97.54443409738725 1.9969999790191477
    vertex 99.29830486530288 97.04243328867142 68.09576799999998
    vertex 99.29830486530288 97.54443409738725 88.59876635205076
  endloop
endfacet
facet normal 0.0 1.0 0.0
  outer loop
    vertex 99.29830486530288 97.04243328867142 70.09676745068359
    vertex 99.29830486530288 97.04243328867142 68.09576799999998
    vertex 96.74930507892593 97.04243328867142 68.09576799999998
  endloop
endfacet
facet normal 0.0 1.0 0.0
  outer loop
    vertex 99.29830486530288 97.04243328867142 70.09676745068359
    vertex 96.74930507892593 97.04243328867142 68.09576799999998
    vertex 96.74930507892593 97.04243328867142 70.09676745068359
  endloop
endfacet
facet normal 1.0 0.0 0.0
  outer loop
    vertex 101.84130413288099 99.04243328867143 90.59676745068357
    vertex 101.84130413288099 57.040434387304245 90.59676745068357
    vertex 101.84130413288099 57.040434387304245 70.09676745068359
  endloop
endfacet
facet normal 0.0 -1.0 0.0
  outer loop
    vertex 87.84030468219741 57.040434387304245 74.09276964794918
    vertex 87.84030468219741 57.040434387304245 40.598767782562234
    vertex 99.29830486530288 57.040434387304245 74.09276964794918
  endloop
endfacet
facet normal 0.0 -1.0 0.0
  outer loop
    vertex 99.29830486530288 57.040434387304245 74.09276964794918
    vertex 87.84030468219741 57.040434387304245 40.598767782562234
    vertex 101.84130413288099 57.040434387304245 70.09676745068359
  endloop
endfacet
facet normal 0.0 -1.0 0.0
  outer loop
    vertex 99.29830486530288 57.040434387304245 85.59876635205077
    vertex 99.29830486530288 57.040434387304245 74.09276964794918
    vertex 101.84130413288099 57.040434387304245 70.09676745068359
  endloop
endfacet
facet normal 0.0 -1.0 0.0
  outer loop
    vertex 101.84130413288099 57.040434387304245 90.59676745068357
    vertex 99.29830486530288 57.040434387304245 85.59876635205077
    vertex 101.84130413288099 57.040434387304245 70.09676745068359
  endloop
endfacet
facet normal -1.0 0.0 0.0
  outer loop
    vertex 87.84030468219741 99.04243328867143 -1.6919798895287383e-14
    vertex 87.84030468219741 97.54443409738725 88.59876635205076
    vertex 87.84030468219741 99.04243328867143 90.59676745068357
  endloop
endfacet
facet normal -1.0 0.0 0.0
  outer loop
    vertex 87.84030468219741 59.038433578588425 40.598767782562234
    vertex 87.84030468219741 57.040434387304245 74.09276964794918
    vertex 87.84030468219741 59.038433578588425 74.09276964794918
  endloop
endfacet
facet normal -1.0 0.0 0.0
  outer loop
    vertex 87.84030468219741 59.038433578588425 40.598767782562234
    vertex 87.84030468219741 57.040434387304245 40.598767782562234
    vertex 87.84030468219741 57.040434387304245 74.09276964794918
  endloop
endfacet
facet normal 0.0 1.0 0.0
  outer loop
    vertex 101.84130413288099 99.04243328867143 90.59676745068357
    vertex 87.84030468219741 99.04243328867143 -1.6919798895287383e-14
    vertex 87.84030468219741 99.04243328867143 90.59676745068357
  endloop
endfacet
facet normal 0.0 1.0 0.0
  outer loop
    vertex 101.84130413288099 99.04243328867143 90.59676745068357
    vertex 101.84130413288099 99.04243328867143 -1.6919798895287383e-14
    vertex 87.84030468219741 99.04243328867143 -1.6919798895287383e-14
  endloop
endfacet
facet normal -0.0006499793644144355 0.9999997883277532 2.9517362382887917e-05
  outer loop
    vertex 97.68108273334452 59.039433982946335 69.36530933734223
    vertex 99.29830486530288 59.04043438730424 70.09676745068359
    vertex 99.29830486530288 59.04043438730424 68.09576799999998
  endloop
endfacet
facet normal -0.0006499793644144355 0.9999997883277532 2.9517362382887917e-05
  outer loop
    vertex 99.29830486530288 59.04043438730424 70.09676745068359
    vertex 97.68108273334452 59.039433982946335 69.36530933734223
    vertex 97.93130804921698 59.039433982946335 70.09676745068359
  endloop
endfacet
facet normal 0.0010305779721701558 0.99999945360467 -0.0001752124568799124
  outer loop
    vertex 97.93130804921698 59.039433982946335 70.09676745068359
    vertex 97.68108273334452 59.039433982946335 69.36530933734223
    vertex 96.74930507892593 59.04043438730424 70.09676745068359
  endloop
endfacet
facet normal 0.0 0.0 1.0
  outer loop
    vertex 99.29830486530288 59.038433578588425 74.09276964794918
    vertex 87.84030468219741 59.038433578588425 74.09276964794918
    vertex 99.29830486530288 57.040434387304245 74.09276964794918
  endloop
endfacet
facet normal 0.0 0.0 1.0
  outer loop
    vertex 99.29830486530288 57.040434387304245 74.09276964794918
    vertex 87.84030468219741 59.038433578588425 74.09276964794918
    vertex 87.84030468219741 57.040434387304245 74.09276964794918
  endloop
endfacet
facet normal -1.0 0.0 0.0
  outer loop
    vertex 99.29830486530288 97.04243328867142 70.09676745068359
    vertex 99.29830486530288 81.03843383796175 88.59876635205076
    vertex 99.29830486530288 84.04443385896867 88.59876635205076
  endloop
endfacet
facet normal -1.0 0.0 0.0
  outer loop
    vertex 99.29830486530288 97.04243328867142 70.09676745068359
    vertex 99.29830486530288 59.038433578588425 74.09276964794918
    vertex 99.29830486530288 81.03843383796175 88.59876635205076
  endloop
endfacet
facet normal -1.0 0.0 0.0
  outer loop
    vertex 99.29830486530288 59.038433578588425 74.09276964794918
    vertex 99.29830486530288 57.040434387304245 74.09276964794918
    vertex 99.29830486530288 57.040434387304245 85.59876635205077
  endloop
endfacet
facet normal -1.0 0.0 0.0
  outer loop
    vertex 87.84030468219741 99.04243328867143 -1.6919798895287383e-14
    vertex 87.84030468219741 57.040434387304245 -1.6919798895287383e-14
    vertex 87.84030468219741 59.038433578588425 1.9969999790191477
  endloop
endfacet
facet normal -1.5147112121948892e-05 0.9999999985341863 -5.1982617210031224e-05
  outer loop
    vertex 97.24678393160116 59.039433982946335 68.09576799999998
    vertex 99.29830486530288 59.038433578588425 40.598767782562234
    vertex 87.84030468219741 59.038433578588425 40.598767782562234
  endloop
endfacet
facet normal -1.5147112121948892e-05 0.9999999985341863 -5.1982617210031224e-05
  outer loop
    vertex 99.29830486530288 59.038433578588425 40.598767782562234
    vertex 97.24678393160116 59.039433982946335 68.09576799999998
    vertex 99.29830486530288 59.04043438730424 68.09576799999998
  endloop
endfacet
facet normal -0.0004876402714723236 0.9999998671894516 0.00016681740038933945
  outer loop
    vertex 97.68108273334452 59.039433982946335 69.36530933734223
    vertex 99.29830486530288 59.04043438730424 68.09576799999998
    vertex 97.24678393160116 59.039433982946335 68.09576799999998
  endloop
endfacet
facet normal -0.0007318261116912675 0.9999996068637425 0.0005007024096708708
  outer loop
    vertex 99.29830486530288 59.038433578588425 74.09276964794918
    vertex 99.29830486530288 59.04043438730424 70.09676745068359
    vertex 97.93130804921698 59.039433982946335 70.09676745068359
  endloop
endfacet
facet normal -9.926085488750526e-05 0.9999999950682581 3.281277910335521e-06
  outer loop
    vertex 87.84030468219741 59.038433578588425 74.09276964794918
    vertex 96.74930507892593 59.04043438730424 68.09576799999998
    vertex 87.84030468219741 59.038433578588425 40.598767782562234
  endloop
endfacet
facet normal -9.926085488750526e-05 0.9999999950682581 3.281277910335521e-06
  outer loop
    vertex 96.74930507892593 59.04043438730424 68.09576799999998
    vertex 87.84030468219741 59.038433578588425 74.09276964794918
    vertex 96.74930507892593 59.04043438730424 70.09676745068359
  endloop
endfacet
facet normal -9.926085488750526e-05 0.9999999950682581 3.281277910335521e-06
  outer loop
    vertex 96.74930507892593 59.04043438730424 70.09676745068359
    vertex 87.84030468219741 59.038433578588425 74.09276964794918
    vertex 97.93130804921698 59.039433982946335 70.09676745068359
  endloop
endfacet
facet normal -9.926085488750526e-05 0.9999999950682581 3.281277910335521e-06
  outer loop
    vertex 97.93130804921698 59.039433982946335 70.09676745068359
    vertex 87.84030468219741 59.038433578588425 74.09276964794918
    vertex 99.29830486530288 59.038433578588425 74.09276964794918
  endloop
endfacet
facet normal -9.926085488750526e-05 0.9999999950682581 3.281277910335521e-06
  outer loop
    vertex 97.24678393160116 59.039433982946335 68.09576799999998
    vertex 87.84030468219741 59.038433578588425 40.598767782562234
    vertex 96.74930507892593 59.04043438730424 68.09576799999998
  endloop
endfacet
endsolid LED_Fan_Enclosure_large_lipo
